%TF.GenerationSoftware,KiCad,Pcbnew,10.0.1*%
%TF.CreationDate,2026-05-06T11:20:22-04:00*%
%TF.ProjectId,PDM_Board_mini,50444d5f-426f-4617-9264-5f6d696e692e,rev?*%
%TF.SameCoordinates,Original*%
%TF.FileFunction,Copper,L3,Inr*%
%TF.FilePolarity,Positive*%
%FSLAX46Y46*%
G04 Gerber Fmt 4.6, Leading zero omitted, Abs format (unit mm)*
G04 Created by KiCad (PCBNEW 10.0.1) date 2026-05-06 11:20:22*
%MOMM*%
%LPD*%
G01*
G04 APERTURE LIST*
%ADD10C,0.150000*%
%ADD11C,0.300000*%
%ADD12C,0.400000*%
%TA.AperFunction,ComponentPad*%
%ADD13C,4.400000*%
%TD*%
%TA.AperFunction,ComponentPad*%
%ADD14C,1.676400*%
%TD*%
%TA.AperFunction,ComponentPad*%
%ADD15C,1.700000*%
%TD*%
%TA.AperFunction,ComponentPad*%
%ADD16R,1.700000X1.700000*%
%TD*%
%TA.AperFunction,ViaPad*%
%ADD17C,0.600000*%
%TD*%
G04 APERTURE END LIST*
D10*
X177002200Y-166007200D02*
X285002200Y-166007200D01*
X285002200Y-198007200D01*
X177002200Y-198007200D01*
X177002200Y-166007200D01*
X10000000Y-10000000D02*
X287002200Y-10000000D01*
X287002200Y-200007200D01*
X10000000Y-200007200D01*
X10000000Y-10000000D01*
X12000000Y-12000000D02*
X285002200Y-12000000D01*
X285002200Y-198007200D01*
X12000000Y-198007200D01*
X12000000Y-12000000D01*
X60000000Y-12000000D02*
X60000000Y-10000000D01*
X110000000Y-12000000D02*
X110000000Y-10000000D01*
X160000000Y-12000000D02*
X160000000Y-10000000D01*
X210000000Y-12000000D02*
X210000000Y-10000000D01*
X260000000Y-12000000D02*
X260000000Y-10000000D01*
X36089160Y-11593604D02*
X35346303Y-11593604D01*
X35717731Y-11593604D02*
X35717731Y-10293604D01*
X35717731Y-10293604D02*
X35593922Y-10479319D01*
X35593922Y-10479319D02*
X35470112Y-10603128D01*
X35470112Y-10603128D02*
X35346303Y-10665033D01*
X85346303Y-10417414D02*
X85408207Y-10355509D01*
X85408207Y-10355509D02*
X85532017Y-10293604D01*
X85532017Y-10293604D02*
X85841541Y-10293604D01*
X85841541Y-10293604D02*
X85965350Y-10355509D01*
X85965350Y-10355509D02*
X86027255Y-10417414D01*
X86027255Y-10417414D02*
X86089160Y-10541223D01*
X86089160Y-10541223D02*
X86089160Y-10665033D01*
X86089160Y-10665033D02*
X86027255Y-10850747D01*
X86027255Y-10850747D02*
X85284398Y-11593604D01*
X85284398Y-11593604D02*
X86089160Y-11593604D01*
X135284398Y-10293604D02*
X136089160Y-10293604D01*
X136089160Y-10293604D02*
X135655826Y-10788842D01*
X135655826Y-10788842D02*
X135841541Y-10788842D01*
X135841541Y-10788842D02*
X135965350Y-10850747D01*
X135965350Y-10850747D02*
X136027255Y-10912652D01*
X136027255Y-10912652D02*
X136089160Y-11036461D01*
X136089160Y-11036461D02*
X136089160Y-11345985D01*
X136089160Y-11345985D02*
X136027255Y-11469795D01*
X136027255Y-11469795D02*
X135965350Y-11531700D01*
X135965350Y-11531700D02*
X135841541Y-11593604D01*
X135841541Y-11593604D02*
X135470112Y-11593604D01*
X135470112Y-11593604D02*
X135346303Y-11531700D01*
X135346303Y-11531700D02*
X135284398Y-11469795D01*
X185965350Y-10726938D02*
X185965350Y-11593604D01*
X185655826Y-10231700D02*
X185346303Y-11160271D01*
X185346303Y-11160271D02*
X186151064Y-11160271D01*
X236027255Y-10293604D02*
X235408207Y-10293604D01*
X235408207Y-10293604D02*
X235346303Y-10912652D01*
X235346303Y-10912652D02*
X235408207Y-10850747D01*
X235408207Y-10850747D02*
X235532017Y-10788842D01*
X235532017Y-10788842D02*
X235841541Y-10788842D01*
X235841541Y-10788842D02*
X235965350Y-10850747D01*
X235965350Y-10850747D02*
X236027255Y-10912652D01*
X236027255Y-10912652D02*
X236089160Y-11036461D01*
X236089160Y-11036461D02*
X236089160Y-11345985D01*
X236089160Y-11345985D02*
X236027255Y-11469795D01*
X236027255Y-11469795D02*
X235965350Y-11531700D01*
X235965350Y-11531700D02*
X235841541Y-11593604D01*
X235841541Y-11593604D02*
X235532017Y-11593604D01*
X235532017Y-11593604D02*
X235408207Y-11531700D01*
X235408207Y-11531700D02*
X235346303Y-11469795D01*
X285965350Y-10293604D02*
X285717731Y-10293604D01*
X285717731Y-10293604D02*
X285593922Y-10355509D01*
X285593922Y-10355509D02*
X285532017Y-10417414D01*
X285532017Y-10417414D02*
X285408207Y-10603128D01*
X285408207Y-10603128D02*
X285346303Y-10850747D01*
X285346303Y-10850747D02*
X285346303Y-11345985D01*
X285346303Y-11345985D02*
X285408207Y-11469795D01*
X285408207Y-11469795D02*
X285470112Y-11531700D01*
X285470112Y-11531700D02*
X285593922Y-11593604D01*
X285593922Y-11593604D02*
X285841541Y-11593604D01*
X285841541Y-11593604D02*
X285965350Y-11531700D01*
X285965350Y-11531700D02*
X286027255Y-11469795D01*
X286027255Y-11469795D02*
X286089160Y-11345985D01*
X286089160Y-11345985D02*
X286089160Y-11036461D01*
X286089160Y-11036461D02*
X286027255Y-10912652D01*
X286027255Y-10912652D02*
X285965350Y-10850747D01*
X285965350Y-10850747D02*
X285841541Y-10788842D01*
X285841541Y-10788842D02*
X285593922Y-10788842D01*
X285593922Y-10788842D02*
X285470112Y-10850747D01*
X285470112Y-10850747D02*
X285408207Y-10912652D01*
X285408207Y-10912652D02*
X285346303Y-11036461D01*
X60000000Y-198007200D02*
X60000000Y-200007200D01*
X110000000Y-198007200D02*
X110000000Y-200007200D01*
X160000000Y-198007200D02*
X160000000Y-200007200D01*
X210000000Y-198007200D02*
X210000000Y-200007200D01*
X260000000Y-198007200D02*
X260000000Y-200007200D01*
X36089160Y-199600804D02*
X35346303Y-199600804D01*
X35717731Y-199600804D02*
X35717731Y-198300804D01*
X35717731Y-198300804D02*
X35593922Y-198486519D01*
X35593922Y-198486519D02*
X35470112Y-198610328D01*
X35470112Y-198610328D02*
X35346303Y-198672233D01*
X85346303Y-198424614D02*
X85408207Y-198362709D01*
X85408207Y-198362709D02*
X85532017Y-198300804D01*
X85532017Y-198300804D02*
X85841541Y-198300804D01*
X85841541Y-198300804D02*
X85965350Y-198362709D01*
X85965350Y-198362709D02*
X86027255Y-198424614D01*
X86027255Y-198424614D02*
X86089160Y-198548423D01*
X86089160Y-198548423D02*
X86089160Y-198672233D01*
X86089160Y-198672233D02*
X86027255Y-198857947D01*
X86027255Y-198857947D02*
X85284398Y-199600804D01*
X85284398Y-199600804D02*
X86089160Y-199600804D01*
X135284398Y-198300804D02*
X136089160Y-198300804D01*
X136089160Y-198300804D02*
X135655826Y-198796042D01*
X135655826Y-198796042D02*
X135841541Y-198796042D01*
X135841541Y-198796042D02*
X135965350Y-198857947D01*
X135965350Y-198857947D02*
X136027255Y-198919852D01*
X136027255Y-198919852D02*
X136089160Y-199043661D01*
X136089160Y-199043661D02*
X136089160Y-199353185D01*
X136089160Y-199353185D02*
X136027255Y-199476995D01*
X136027255Y-199476995D02*
X135965350Y-199538900D01*
X135965350Y-199538900D02*
X135841541Y-199600804D01*
X135841541Y-199600804D02*
X135470112Y-199600804D01*
X135470112Y-199600804D02*
X135346303Y-199538900D01*
X135346303Y-199538900D02*
X135284398Y-199476995D01*
X185965350Y-198734138D02*
X185965350Y-199600804D01*
X185655826Y-198238900D02*
X185346303Y-199167471D01*
X185346303Y-199167471D02*
X186151064Y-199167471D01*
X236027255Y-198300804D02*
X235408207Y-198300804D01*
X235408207Y-198300804D02*
X235346303Y-198919852D01*
X235346303Y-198919852D02*
X235408207Y-198857947D01*
X235408207Y-198857947D02*
X235532017Y-198796042D01*
X235532017Y-198796042D02*
X235841541Y-198796042D01*
X235841541Y-198796042D02*
X235965350Y-198857947D01*
X235965350Y-198857947D02*
X236027255Y-198919852D01*
X236027255Y-198919852D02*
X236089160Y-199043661D01*
X236089160Y-199043661D02*
X236089160Y-199353185D01*
X236089160Y-199353185D02*
X236027255Y-199476995D01*
X236027255Y-199476995D02*
X235965350Y-199538900D01*
X235965350Y-199538900D02*
X235841541Y-199600804D01*
X235841541Y-199600804D02*
X235532017Y-199600804D01*
X235532017Y-199600804D02*
X235408207Y-199538900D01*
X235408207Y-199538900D02*
X235346303Y-199476995D01*
X285965350Y-198300804D02*
X285717731Y-198300804D01*
X285717731Y-198300804D02*
X285593922Y-198362709D01*
X285593922Y-198362709D02*
X285532017Y-198424614D01*
X285532017Y-198424614D02*
X285408207Y-198610328D01*
X285408207Y-198610328D02*
X285346303Y-198857947D01*
X285346303Y-198857947D02*
X285346303Y-199353185D01*
X285346303Y-199353185D02*
X285408207Y-199476995D01*
X285408207Y-199476995D02*
X285470112Y-199538900D01*
X285470112Y-199538900D02*
X285593922Y-199600804D01*
X285593922Y-199600804D02*
X285841541Y-199600804D01*
X285841541Y-199600804D02*
X285965350Y-199538900D01*
X285965350Y-199538900D02*
X286027255Y-199476995D01*
X286027255Y-199476995D02*
X286089160Y-199353185D01*
X286089160Y-199353185D02*
X286089160Y-199043661D01*
X286089160Y-199043661D02*
X286027255Y-198919852D01*
X286027255Y-198919852D02*
X285965350Y-198857947D01*
X285965350Y-198857947D02*
X285841541Y-198796042D01*
X285841541Y-198796042D02*
X285593922Y-198796042D01*
X285593922Y-198796042D02*
X285470112Y-198857947D01*
X285470112Y-198857947D02*
X285408207Y-198919852D01*
X285408207Y-198919852D02*
X285346303Y-199043661D01*
X10000000Y-60000000D02*
X12000000Y-60000000D01*
X10000000Y-110000000D02*
X12000000Y-110000000D01*
X10000000Y-160000000D02*
X12000000Y-160000000D01*
X10690476Y-35222176D02*
X11309523Y-35222176D01*
X10566666Y-35593604D02*
X10999999Y-34293604D01*
X10999999Y-34293604D02*
X11433333Y-35593604D01*
X11092857Y-84912652D02*
X11278571Y-84974557D01*
X11278571Y-84974557D02*
X11340476Y-85036461D01*
X11340476Y-85036461D02*
X11402380Y-85160271D01*
X11402380Y-85160271D02*
X11402380Y-85345985D01*
X11402380Y-85345985D02*
X11340476Y-85469795D01*
X11340476Y-85469795D02*
X11278571Y-85531700D01*
X11278571Y-85531700D02*
X11154761Y-85593604D01*
X11154761Y-85593604D02*
X10659523Y-85593604D01*
X10659523Y-85593604D02*
X10659523Y-84293604D01*
X10659523Y-84293604D02*
X11092857Y-84293604D01*
X11092857Y-84293604D02*
X11216666Y-84355509D01*
X11216666Y-84355509D02*
X11278571Y-84417414D01*
X11278571Y-84417414D02*
X11340476Y-84541223D01*
X11340476Y-84541223D02*
X11340476Y-84665033D01*
X11340476Y-84665033D02*
X11278571Y-84788842D01*
X11278571Y-84788842D02*
X11216666Y-84850747D01*
X11216666Y-84850747D02*
X11092857Y-84912652D01*
X11092857Y-84912652D02*
X10659523Y-84912652D01*
X11402380Y-135469795D02*
X11340476Y-135531700D01*
X11340476Y-135531700D02*
X11154761Y-135593604D01*
X11154761Y-135593604D02*
X11030952Y-135593604D01*
X11030952Y-135593604D02*
X10845238Y-135531700D01*
X10845238Y-135531700D02*
X10721428Y-135407890D01*
X10721428Y-135407890D02*
X10659523Y-135284080D01*
X10659523Y-135284080D02*
X10597619Y-135036461D01*
X10597619Y-135036461D02*
X10597619Y-134850747D01*
X10597619Y-134850747D02*
X10659523Y-134603128D01*
X10659523Y-134603128D02*
X10721428Y-134479319D01*
X10721428Y-134479319D02*
X10845238Y-134355509D01*
X10845238Y-134355509D02*
X11030952Y-134293604D01*
X11030952Y-134293604D02*
X11154761Y-134293604D01*
X11154761Y-134293604D02*
X11340476Y-134355509D01*
X11340476Y-134355509D02*
X11402380Y-134417414D01*
X10659523Y-185593604D02*
X10659523Y-184293604D01*
X10659523Y-184293604D02*
X10969047Y-184293604D01*
X10969047Y-184293604D02*
X11154761Y-184355509D01*
X11154761Y-184355509D02*
X11278571Y-184479319D01*
X11278571Y-184479319D02*
X11340476Y-184603128D01*
X11340476Y-184603128D02*
X11402380Y-184850747D01*
X11402380Y-184850747D02*
X11402380Y-185036461D01*
X11402380Y-185036461D02*
X11340476Y-185284080D01*
X11340476Y-185284080D02*
X11278571Y-185407890D01*
X11278571Y-185407890D02*
X11154761Y-185531700D01*
X11154761Y-185531700D02*
X10969047Y-185593604D01*
X10969047Y-185593604D02*
X10659523Y-185593604D01*
X287002200Y-60000000D02*
X285002200Y-60000000D01*
X287002200Y-110000000D02*
X285002200Y-110000000D01*
X287002200Y-160000000D02*
X285002200Y-160000000D01*
X285692676Y-35222176D02*
X286311723Y-35222176D01*
X285568866Y-35593604D02*
X286002199Y-34293604D01*
X286002199Y-34293604D02*
X286435533Y-35593604D01*
X286095057Y-84912652D02*
X286280771Y-84974557D01*
X286280771Y-84974557D02*
X286342676Y-85036461D01*
X286342676Y-85036461D02*
X286404580Y-85160271D01*
X286404580Y-85160271D02*
X286404580Y-85345985D01*
X286404580Y-85345985D02*
X286342676Y-85469795D01*
X286342676Y-85469795D02*
X286280771Y-85531700D01*
X286280771Y-85531700D02*
X286156961Y-85593604D01*
X286156961Y-85593604D02*
X285661723Y-85593604D01*
X285661723Y-85593604D02*
X285661723Y-84293604D01*
X285661723Y-84293604D02*
X286095057Y-84293604D01*
X286095057Y-84293604D02*
X286218866Y-84355509D01*
X286218866Y-84355509D02*
X286280771Y-84417414D01*
X286280771Y-84417414D02*
X286342676Y-84541223D01*
X286342676Y-84541223D02*
X286342676Y-84665033D01*
X286342676Y-84665033D02*
X286280771Y-84788842D01*
X286280771Y-84788842D02*
X286218866Y-84850747D01*
X286218866Y-84850747D02*
X286095057Y-84912652D01*
X286095057Y-84912652D02*
X285661723Y-84912652D01*
X286404580Y-135469795D02*
X286342676Y-135531700D01*
X286342676Y-135531700D02*
X286156961Y-135593604D01*
X286156961Y-135593604D02*
X286033152Y-135593604D01*
X286033152Y-135593604D02*
X285847438Y-135531700D01*
X285847438Y-135531700D02*
X285723628Y-135407890D01*
X285723628Y-135407890D02*
X285661723Y-135284080D01*
X285661723Y-135284080D02*
X285599819Y-135036461D01*
X285599819Y-135036461D02*
X285599819Y-134850747D01*
X285599819Y-134850747D02*
X285661723Y-134603128D01*
X285661723Y-134603128D02*
X285723628Y-134479319D01*
X285723628Y-134479319D02*
X285847438Y-134355509D01*
X285847438Y-134355509D02*
X286033152Y-134293604D01*
X286033152Y-134293604D02*
X286156961Y-134293604D01*
X286156961Y-134293604D02*
X286342676Y-134355509D01*
X286342676Y-134355509D02*
X286404580Y-134417414D01*
X285661723Y-185593604D02*
X285661723Y-184293604D01*
X285661723Y-184293604D02*
X285971247Y-184293604D01*
X285971247Y-184293604D02*
X286156961Y-184355509D01*
X286156961Y-184355509D02*
X286280771Y-184479319D01*
X286280771Y-184479319D02*
X286342676Y-184603128D01*
X286342676Y-184603128D02*
X286404580Y-184850747D01*
X286404580Y-184850747D02*
X286404580Y-185036461D01*
X286404580Y-185036461D02*
X286342676Y-185284080D01*
X286342676Y-185284080D02*
X286280771Y-185407890D01*
X286280771Y-185407890D02*
X286156961Y-185531700D01*
X286156961Y-185531700D02*
X285971247Y-185593604D01*
X285971247Y-185593604D02*
X285661723Y-185593604D01*
X200458026Y-193793328D02*
X200458026Y-192293328D01*
X200458026Y-192293328D02*
X200815169Y-192293328D01*
X200815169Y-192293328D02*
X201029455Y-192364757D01*
X201029455Y-192364757D02*
X201172312Y-192507614D01*
X201172312Y-192507614D02*
X201243741Y-192650471D01*
X201243741Y-192650471D02*
X201315169Y-192936185D01*
X201315169Y-192936185D02*
X201315169Y-193150471D01*
X201315169Y-193150471D02*
X201243741Y-193436185D01*
X201243741Y-193436185D02*
X201172312Y-193579042D01*
X201172312Y-193579042D02*
X201029455Y-193721900D01*
X201029455Y-193721900D02*
X200815169Y-193793328D01*
X200815169Y-193793328D02*
X200458026Y-193793328D01*
X202600884Y-193793328D02*
X202600884Y-193007614D01*
X202600884Y-193007614D02*
X202529455Y-192864757D01*
X202529455Y-192864757D02*
X202386598Y-192793328D01*
X202386598Y-192793328D02*
X202100884Y-192793328D01*
X202100884Y-192793328D02*
X201958026Y-192864757D01*
X202600884Y-193721900D02*
X202458026Y-193793328D01*
X202458026Y-193793328D02*
X202100884Y-193793328D01*
X202100884Y-193793328D02*
X201958026Y-193721900D01*
X201958026Y-193721900D02*
X201886598Y-193579042D01*
X201886598Y-193579042D02*
X201886598Y-193436185D01*
X201886598Y-193436185D02*
X201958026Y-193293328D01*
X201958026Y-193293328D02*
X202100884Y-193221900D01*
X202100884Y-193221900D02*
X202458026Y-193221900D01*
X202458026Y-193221900D02*
X202600884Y-193150471D01*
X203100884Y-192793328D02*
X203672312Y-192793328D01*
X203315169Y-192293328D02*
X203315169Y-193579042D01*
X203315169Y-193579042D02*
X203386598Y-193721900D01*
X203386598Y-193721900D02*
X203529455Y-193793328D01*
X203529455Y-193793328D02*
X203672312Y-193793328D01*
X204743741Y-193721900D02*
X204600884Y-193793328D01*
X204600884Y-193793328D02*
X204315170Y-193793328D01*
X204315170Y-193793328D02*
X204172312Y-193721900D01*
X204172312Y-193721900D02*
X204100884Y-193579042D01*
X204100884Y-193579042D02*
X204100884Y-193007614D01*
X204100884Y-193007614D02*
X204172312Y-192864757D01*
X204172312Y-192864757D02*
X204315170Y-192793328D01*
X204315170Y-192793328D02*
X204600884Y-192793328D01*
X204600884Y-192793328D02*
X204743741Y-192864757D01*
X204743741Y-192864757D02*
X204815170Y-193007614D01*
X204815170Y-193007614D02*
X204815170Y-193150471D01*
X204815170Y-193150471D02*
X204100884Y-193293328D01*
X205458026Y-193650471D02*
X205529455Y-193721900D01*
X205529455Y-193721900D02*
X205458026Y-193793328D01*
X205458026Y-193793328D02*
X205386598Y-193721900D01*
X205386598Y-193721900D02*
X205458026Y-193650471D01*
X205458026Y-193650471D02*
X205458026Y-193793328D01*
X205458026Y-192864757D02*
X205529455Y-192936185D01*
X205529455Y-192936185D02*
X205458026Y-193007614D01*
X205458026Y-193007614D02*
X205386598Y-192936185D01*
X205386598Y-192936185D02*
X205458026Y-192864757D01*
X205458026Y-192864757D02*
X205458026Y-193007614D01*
X177002200Y-194507200D02*
X285002200Y-194507200D01*
X178458026Y-196593328D02*
X178458026Y-195093328D01*
X179315169Y-196593328D02*
X178672312Y-195736185D01*
X179315169Y-195093328D02*
X178458026Y-195950471D01*
X179958026Y-196593328D02*
X179958026Y-195593328D01*
X179958026Y-195093328D02*
X179886598Y-195164757D01*
X179886598Y-195164757D02*
X179958026Y-195236185D01*
X179958026Y-195236185D02*
X180029455Y-195164757D01*
X180029455Y-195164757D02*
X179958026Y-195093328D01*
X179958026Y-195093328D02*
X179958026Y-195236185D01*
X181529455Y-196450471D02*
X181458027Y-196521900D01*
X181458027Y-196521900D02*
X181243741Y-196593328D01*
X181243741Y-196593328D02*
X181100884Y-196593328D01*
X181100884Y-196593328D02*
X180886598Y-196521900D01*
X180886598Y-196521900D02*
X180743741Y-196379042D01*
X180743741Y-196379042D02*
X180672312Y-196236185D01*
X180672312Y-196236185D02*
X180600884Y-195950471D01*
X180600884Y-195950471D02*
X180600884Y-195736185D01*
X180600884Y-195736185D02*
X180672312Y-195450471D01*
X180672312Y-195450471D02*
X180743741Y-195307614D01*
X180743741Y-195307614D02*
X180886598Y-195164757D01*
X180886598Y-195164757D02*
X181100884Y-195093328D01*
X181100884Y-195093328D02*
X181243741Y-195093328D01*
X181243741Y-195093328D02*
X181458027Y-195164757D01*
X181458027Y-195164757D02*
X181529455Y-195236185D01*
X182815170Y-196593328D02*
X182815170Y-195807614D01*
X182815170Y-195807614D02*
X182743741Y-195664757D01*
X182743741Y-195664757D02*
X182600884Y-195593328D01*
X182600884Y-195593328D02*
X182315170Y-195593328D01*
X182315170Y-195593328D02*
X182172312Y-195664757D01*
X182815170Y-196521900D02*
X182672312Y-196593328D01*
X182672312Y-196593328D02*
X182315170Y-196593328D01*
X182315170Y-196593328D02*
X182172312Y-196521900D01*
X182172312Y-196521900D02*
X182100884Y-196379042D01*
X182100884Y-196379042D02*
X182100884Y-196236185D01*
X182100884Y-196236185D02*
X182172312Y-196093328D01*
X182172312Y-196093328D02*
X182315170Y-196021900D01*
X182315170Y-196021900D02*
X182672312Y-196021900D01*
X182672312Y-196021900D02*
X182815170Y-195950471D01*
X184172313Y-196593328D02*
X184172313Y-195093328D01*
X184172313Y-196521900D02*
X184029455Y-196593328D01*
X184029455Y-196593328D02*
X183743741Y-196593328D01*
X183743741Y-196593328D02*
X183600884Y-196521900D01*
X183600884Y-196521900D02*
X183529455Y-196450471D01*
X183529455Y-196450471D02*
X183458027Y-196307614D01*
X183458027Y-196307614D02*
X183458027Y-195879042D01*
X183458027Y-195879042D02*
X183529455Y-195736185D01*
X183529455Y-195736185D02*
X183600884Y-195664757D01*
X183600884Y-195664757D02*
X183743741Y-195593328D01*
X183743741Y-195593328D02*
X184029455Y-195593328D01*
X184029455Y-195593328D02*
X184172313Y-195664757D01*
X186029455Y-195807614D02*
X186529455Y-195807614D01*
X186743741Y-196593328D02*
X186029455Y-196593328D01*
X186029455Y-196593328D02*
X186029455Y-195093328D01*
X186029455Y-195093328D02*
X186743741Y-195093328D01*
X187386598Y-196450471D02*
X187458027Y-196521900D01*
X187458027Y-196521900D02*
X187386598Y-196593328D01*
X187386598Y-196593328D02*
X187315170Y-196521900D01*
X187315170Y-196521900D02*
X187386598Y-196450471D01*
X187386598Y-196450471D02*
X187386598Y-196593328D01*
X188100884Y-196593328D02*
X188100884Y-195093328D01*
X188100884Y-195093328D02*
X188458027Y-195093328D01*
X188458027Y-195093328D02*
X188672313Y-195164757D01*
X188672313Y-195164757D02*
X188815170Y-195307614D01*
X188815170Y-195307614D02*
X188886599Y-195450471D01*
X188886599Y-195450471D02*
X188958027Y-195736185D01*
X188958027Y-195736185D02*
X188958027Y-195950471D01*
X188958027Y-195950471D02*
X188886599Y-196236185D01*
X188886599Y-196236185D02*
X188815170Y-196379042D01*
X188815170Y-196379042D02*
X188672313Y-196521900D01*
X188672313Y-196521900D02*
X188458027Y-196593328D01*
X188458027Y-196593328D02*
X188100884Y-196593328D01*
X189600884Y-196450471D02*
X189672313Y-196521900D01*
X189672313Y-196521900D02*
X189600884Y-196593328D01*
X189600884Y-196593328D02*
X189529456Y-196521900D01*
X189529456Y-196521900D02*
X189600884Y-196450471D01*
X189600884Y-196450471D02*
X189600884Y-196593328D01*
X190243742Y-196164757D02*
X190958028Y-196164757D01*
X190100885Y-196593328D02*
X190600885Y-195093328D01*
X190600885Y-195093328D02*
X191100885Y-196593328D01*
X191600884Y-196450471D02*
X191672313Y-196521900D01*
X191672313Y-196521900D02*
X191600884Y-196593328D01*
X191600884Y-196593328D02*
X191529456Y-196521900D01*
X191529456Y-196521900D02*
X191600884Y-196450471D01*
X191600884Y-196450471D02*
X191600884Y-196593328D01*
X194243742Y-196593328D02*
X193386599Y-196593328D01*
X193815170Y-196593328D02*
X193815170Y-195093328D01*
X193815170Y-195093328D02*
X193672313Y-195307614D01*
X193672313Y-195307614D02*
X193529456Y-195450471D01*
X193529456Y-195450471D02*
X193386599Y-195521900D01*
X195172313Y-195093328D02*
X195315170Y-195093328D01*
X195315170Y-195093328D02*
X195458027Y-195164757D01*
X195458027Y-195164757D02*
X195529456Y-195236185D01*
X195529456Y-195236185D02*
X195600884Y-195379042D01*
X195600884Y-195379042D02*
X195672313Y-195664757D01*
X195672313Y-195664757D02*
X195672313Y-196021900D01*
X195672313Y-196021900D02*
X195600884Y-196307614D01*
X195600884Y-196307614D02*
X195529456Y-196450471D01*
X195529456Y-196450471D02*
X195458027Y-196521900D01*
X195458027Y-196521900D02*
X195315170Y-196593328D01*
X195315170Y-196593328D02*
X195172313Y-196593328D01*
X195172313Y-196593328D02*
X195029456Y-196521900D01*
X195029456Y-196521900D02*
X194958027Y-196450471D01*
X194958027Y-196450471D02*
X194886598Y-196307614D01*
X194886598Y-196307614D02*
X194815170Y-196021900D01*
X194815170Y-196021900D02*
X194815170Y-195664757D01*
X194815170Y-195664757D02*
X194886598Y-195379042D01*
X194886598Y-195379042D02*
X194958027Y-195236185D01*
X194958027Y-195236185D02*
X195029456Y-195164757D01*
X195029456Y-195164757D02*
X195172313Y-195093328D01*
X196315169Y-196450471D02*
X196386598Y-196521900D01*
X196386598Y-196521900D02*
X196315169Y-196593328D01*
X196315169Y-196593328D02*
X196243741Y-196521900D01*
X196243741Y-196521900D02*
X196315169Y-196450471D01*
X196315169Y-196450471D02*
X196315169Y-196593328D01*
X197315170Y-195093328D02*
X197458027Y-195093328D01*
X197458027Y-195093328D02*
X197600884Y-195164757D01*
X197600884Y-195164757D02*
X197672313Y-195236185D01*
X197672313Y-195236185D02*
X197743741Y-195379042D01*
X197743741Y-195379042D02*
X197815170Y-195664757D01*
X197815170Y-195664757D02*
X197815170Y-196021900D01*
X197815170Y-196021900D02*
X197743741Y-196307614D01*
X197743741Y-196307614D02*
X197672313Y-196450471D01*
X197672313Y-196450471D02*
X197600884Y-196521900D01*
X197600884Y-196521900D02*
X197458027Y-196593328D01*
X197458027Y-196593328D02*
X197315170Y-196593328D01*
X197315170Y-196593328D02*
X197172313Y-196521900D01*
X197172313Y-196521900D02*
X197100884Y-196450471D01*
X197100884Y-196450471D02*
X197029455Y-196307614D01*
X197029455Y-196307614D02*
X196958027Y-196021900D01*
X196958027Y-196021900D02*
X196958027Y-195664757D01*
X196958027Y-195664757D02*
X197029455Y-195379042D01*
X197029455Y-195379042D02*
X197100884Y-195236185D01*
X197100884Y-195236185D02*
X197172313Y-195164757D01*
X197172313Y-195164757D02*
X197315170Y-195093328D01*
X198458026Y-196450471D02*
X198529455Y-196521900D01*
X198529455Y-196521900D02*
X198458026Y-196593328D01*
X198458026Y-196593328D02*
X198386598Y-196521900D01*
X198386598Y-196521900D02*
X198458026Y-196450471D01*
X198458026Y-196450471D02*
X198458026Y-196593328D01*
X199958027Y-196593328D02*
X199100884Y-196593328D01*
X199529455Y-196593328D02*
X199529455Y-195093328D01*
X199529455Y-195093328D02*
X199386598Y-195307614D01*
X199386598Y-195307614D02*
X199243741Y-195450471D01*
X199243741Y-195450471D02*
X199100884Y-195521900D01*
X177002200Y-191507200D02*
X285002200Y-191507200D01*
D11*
X264413853Y-193785528D02*
X263913853Y-193071242D01*
X263556710Y-193785528D02*
X263556710Y-192285528D01*
X263556710Y-192285528D02*
X264128139Y-192285528D01*
X264128139Y-192285528D02*
X264270996Y-192356957D01*
X264270996Y-192356957D02*
X264342425Y-192428385D01*
X264342425Y-192428385D02*
X264413853Y-192571242D01*
X264413853Y-192571242D02*
X264413853Y-192785528D01*
X264413853Y-192785528D02*
X264342425Y-192928385D01*
X264342425Y-192928385D02*
X264270996Y-192999814D01*
X264270996Y-192999814D02*
X264128139Y-193071242D01*
X264128139Y-193071242D02*
X263556710Y-193071242D01*
X265628139Y-193714100D02*
X265485282Y-193785528D01*
X265485282Y-193785528D02*
X265199568Y-193785528D01*
X265199568Y-193785528D02*
X265056710Y-193714100D01*
X265056710Y-193714100D02*
X264985282Y-193571242D01*
X264985282Y-193571242D02*
X264985282Y-192999814D01*
X264985282Y-192999814D02*
X265056710Y-192856957D01*
X265056710Y-192856957D02*
X265199568Y-192785528D01*
X265199568Y-192785528D02*
X265485282Y-192785528D01*
X265485282Y-192785528D02*
X265628139Y-192856957D01*
X265628139Y-192856957D02*
X265699568Y-192999814D01*
X265699568Y-192999814D02*
X265699568Y-193142671D01*
X265699568Y-193142671D02*
X264985282Y-193285528D01*
X266199567Y-192785528D02*
X266556710Y-193785528D01*
X266556710Y-193785528D02*
X266913853Y-192785528D01*
X267485281Y-193642671D02*
X267556710Y-193714100D01*
X267556710Y-193714100D02*
X267485281Y-193785528D01*
X267485281Y-193785528D02*
X267413853Y-193714100D01*
X267413853Y-193714100D02*
X267485281Y-193642671D01*
X267485281Y-193642671D02*
X267485281Y-193785528D01*
X267485281Y-192856957D02*
X267556710Y-192928385D01*
X267556710Y-192928385D02*
X267485281Y-192999814D01*
X267485281Y-192999814D02*
X267413853Y-192928385D01*
X267413853Y-192928385D02*
X267485281Y-192856957D01*
X267485281Y-192856957D02*
X267485281Y-192999814D01*
D10*
X178386598Y-193721900D02*
X178600884Y-193793328D01*
X178600884Y-193793328D02*
X178958026Y-193793328D01*
X178958026Y-193793328D02*
X179100884Y-193721900D01*
X179100884Y-193721900D02*
X179172312Y-193650471D01*
X179172312Y-193650471D02*
X179243741Y-193507614D01*
X179243741Y-193507614D02*
X179243741Y-193364757D01*
X179243741Y-193364757D02*
X179172312Y-193221900D01*
X179172312Y-193221900D02*
X179100884Y-193150471D01*
X179100884Y-193150471D02*
X178958026Y-193079042D01*
X178958026Y-193079042D02*
X178672312Y-193007614D01*
X178672312Y-193007614D02*
X178529455Y-192936185D01*
X178529455Y-192936185D02*
X178458026Y-192864757D01*
X178458026Y-192864757D02*
X178386598Y-192721900D01*
X178386598Y-192721900D02*
X178386598Y-192579042D01*
X178386598Y-192579042D02*
X178458026Y-192436185D01*
X178458026Y-192436185D02*
X178529455Y-192364757D01*
X178529455Y-192364757D02*
X178672312Y-192293328D01*
X178672312Y-192293328D02*
X179029455Y-192293328D01*
X179029455Y-192293328D02*
X179243741Y-192364757D01*
X179886597Y-193793328D02*
X179886597Y-192793328D01*
X179886597Y-192293328D02*
X179815169Y-192364757D01*
X179815169Y-192364757D02*
X179886597Y-192436185D01*
X179886597Y-192436185D02*
X179958026Y-192364757D01*
X179958026Y-192364757D02*
X179886597Y-192293328D01*
X179886597Y-192293328D02*
X179886597Y-192436185D01*
X180458026Y-192793328D02*
X181243741Y-192793328D01*
X181243741Y-192793328D02*
X180458026Y-193793328D01*
X180458026Y-193793328D02*
X181243741Y-193793328D01*
X182386598Y-193721900D02*
X182243741Y-193793328D01*
X182243741Y-193793328D02*
X181958027Y-193793328D01*
X181958027Y-193793328D02*
X181815169Y-193721900D01*
X181815169Y-193721900D02*
X181743741Y-193579042D01*
X181743741Y-193579042D02*
X181743741Y-193007614D01*
X181743741Y-193007614D02*
X181815169Y-192864757D01*
X181815169Y-192864757D02*
X181958027Y-192793328D01*
X181958027Y-192793328D02*
X182243741Y-192793328D01*
X182243741Y-192793328D02*
X182386598Y-192864757D01*
X182386598Y-192864757D02*
X182458027Y-193007614D01*
X182458027Y-193007614D02*
X182458027Y-193150471D01*
X182458027Y-193150471D02*
X181743741Y-193293328D01*
X183100883Y-193650471D02*
X183172312Y-193721900D01*
X183172312Y-193721900D02*
X183100883Y-193793328D01*
X183100883Y-193793328D02*
X183029455Y-193721900D01*
X183029455Y-193721900D02*
X183100883Y-193650471D01*
X183100883Y-193650471D02*
X183100883Y-193793328D01*
X183100883Y-192864757D02*
X183172312Y-192936185D01*
X183172312Y-192936185D02*
X183100883Y-193007614D01*
X183100883Y-193007614D02*
X183029455Y-192936185D01*
X183029455Y-192936185D02*
X183100883Y-192864757D01*
X183100883Y-192864757D02*
X183100883Y-193007614D01*
X184886598Y-193364757D02*
X185600884Y-193364757D01*
X184743741Y-193793328D02*
X185243741Y-192293328D01*
X185243741Y-192293328D02*
X185743741Y-193793328D01*
X186886598Y-192793328D02*
X186886598Y-193793328D01*
X186529455Y-192221900D02*
X186172312Y-193293328D01*
X186172312Y-193293328D02*
X187100883Y-193293328D01*
X263458026Y-196593328D02*
X263458026Y-195093328D01*
X264815170Y-196593328D02*
X264815170Y-195093328D01*
X264815170Y-196521900D02*
X264672312Y-196593328D01*
X264672312Y-196593328D02*
X264386598Y-196593328D01*
X264386598Y-196593328D02*
X264243741Y-196521900D01*
X264243741Y-196521900D02*
X264172312Y-196450471D01*
X264172312Y-196450471D02*
X264100884Y-196307614D01*
X264100884Y-196307614D02*
X264100884Y-195879042D01*
X264100884Y-195879042D02*
X264172312Y-195736185D01*
X264172312Y-195736185D02*
X264243741Y-195664757D01*
X264243741Y-195664757D02*
X264386598Y-195593328D01*
X264386598Y-195593328D02*
X264672312Y-195593328D01*
X264672312Y-195593328D02*
X264815170Y-195664757D01*
X265529455Y-196450471D02*
X265600884Y-196521900D01*
X265600884Y-196521900D02*
X265529455Y-196593328D01*
X265529455Y-196593328D02*
X265458027Y-196521900D01*
X265458027Y-196521900D02*
X265529455Y-196450471D01*
X265529455Y-196450471D02*
X265529455Y-196593328D01*
X265529455Y-195664757D02*
X265600884Y-195736185D01*
X265600884Y-195736185D02*
X265529455Y-195807614D01*
X265529455Y-195807614D02*
X265458027Y-195736185D01*
X265458027Y-195736185D02*
X265529455Y-195664757D01*
X265529455Y-195664757D02*
X265529455Y-195807614D01*
X267243741Y-195093328D02*
X268172313Y-195093328D01*
X268172313Y-195093328D02*
X267672313Y-195664757D01*
X267672313Y-195664757D02*
X267886598Y-195664757D01*
X267886598Y-195664757D02*
X268029456Y-195736185D01*
X268029456Y-195736185D02*
X268100884Y-195807614D01*
X268100884Y-195807614D02*
X268172313Y-195950471D01*
X268172313Y-195950471D02*
X268172313Y-196307614D01*
X268172313Y-196307614D02*
X268100884Y-196450471D01*
X268100884Y-196450471D02*
X268029456Y-196521900D01*
X268029456Y-196521900D02*
X267886598Y-196593328D01*
X267886598Y-196593328D02*
X267458027Y-196593328D01*
X267458027Y-196593328D02*
X267315170Y-196521900D01*
X267315170Y-196521900D02*
X267243741Y-196450471D01*
X269886598Y-195021900D02*
X268600884Y-196950471D01*
X271172313Y-196593328D02*
X270315170Y-196593328D01*
X270743741Y-196593328D02*
X270743741Y-195093328D01*
X270743741Y-195093328D02*
X270600884Y-195307614D01*
X270600884Y-195307614D02*
X270458027Y-195450471D01*
X270458027Y-195450471D02*
X270315170Y-195521900D01*
X272600884Y-196593328D02*
X271743741Y-196593328D01*
X272172312Y-196593328D02*
X272172312Y-195093328D01*
X272172312Y-195093328D02*
X272029455Y-195307614D01*
X272029455Y-195307614D02*
X271886598Y-195450471D01*
X271886598Y-195450471D02*
X271743741Y-195521900D01*
X177002200Y-187507200D02*
X285002200Y-187507200D01*
D12*
X178693928Y-188211638D02*
X179836785Y-188211638D01*
X179015357Y-190211638D02*
X179265357Y-188211638D01*
X180253452Y-190211638D02*
X180420119Y-188878304D01*
X180503452Y-188211638D02*
X180396309Y-188306876D01*
X180396309Y-188306876D02*
X180479643Y-188402114D01*
X180479643Y-188402114D02*
X180586786Y-188306876D01*
X180586786Y-188306876D02*
X180503452Y-188211638D01*
X180503452Y-188211638D02*
X180479643Y-188402114D01*
X181086786Y-188878304D02*
X181848690Y-188878304D01*
X181455833Y-188211638D02*
X181241548Y-189925923D01*
X181241548Y-189925923D02*
X181312976Y-190116400D01*
X181312976Y-190116400D02*
X181491548Y-190211638D01*
X181491548Y-190211638D02*
X181682024Y-190211638D01*
X182634405Y-190211638D02*
X182455833Y-190116400D01*
X182455833Y-190116400D02*
X182384405Y-189925923D01*
X182384405Y-189925923D02*
X182598690Y-188211638D01*
X184170119Y-190116400D02*
X183967738Y-190211638D01*
X183967738Y-190211638D02*
X183586785Y-190211638D01*
X183586785Y-190211638D02*
X183408214Y-190116400D01*
X183408214Y-190116400D02*
X183336785Y-189925923D01*
X183336785Y-189925923D02*
X183432024Y-189164019D01*
X183432024Y-189164019D02*
X183551071Y-188973542D01*
X183551071Y-188973542D02*
X183753452Y-188878304D01*
X183753452Y-188878304D02*
X184134404Y-188878304D01*
X184134404Y-188878304D02*
X184312976Y-188973542D01*
X184312976Y-188973542D02*
X184384404Y-189164019D01*
X184384404Y-189164019D02*
X184360595Y-189354495D01*
X184360595Y-189354495D02*
X183384404Y-189544971D01*
X185134405Y-190021161D02*
X185217738Y-190116400D01*
X185217738Y-190116400D02*
X185110595Y-190211638D01*
X185110595Y-190211638D02*
X185027262Y-190116400D01*
X185027262Y-190116400D02*
X185134405Y-190021161D01*
X185134405Y-190021161D02*
X185110595Y-190211638D01*
X185265357Y-188973542D02*
X185348690Y-189068780D01*
X185348690Y-189068780D02*
X185241548Y-189164019D01*
X185241548Y-189164019D02*
X185158214Y-189068780D01*
X185158214Y-189068780D02*
X185265357Y-188973542D01*
X185265357Y-188973542D02*
X185241548Y-189164019D01*
D10*
X178958026Y-185607614D02*
X178458026Y-185607614D01*
X178458026Y-186393328D02*
X178458026Y-184893328D01*
X178458026Y-184893328D02*
X179172312Y-184893328D01*
X179743740Y-186393328D02*
X179743740Y-185393328D01*
X179743740Y-184893328D02*
X179672312Y-184964757D01*
X179672312Y-184964757D02*
X179743740Y-185036185D01*
X179743740Y-185036185D02*
X179815169Y-184964757D01*
X179815169Y-184964757D02*
X179743740Y-184893328D01*
X179743740Y-184893328D02*
X179743740Y-185036185D01*
X180672312Y-186393328D02*
X180529455Y-186321900D01*
X180529455Y-186321900D02*
X180458026Y-186179042D01*
X180458026Y-186179042D02*
X180458026Y-184893328D01*
X181815169Y-186321900D02*
X181672312Y-186393328D01*
X181672312Y-186393328D02*
X181386598Y-186393328D01*
X181386598Y-186393328D02*
X181243740Y-186321900D01*
X181243740Y-186321900D02*
X181172312Y-186179042D01*
X181172312Y-186179042D02*
X181172312Y-185607614D01*
X181172312Y-185607614D02*
X181243740Y-185464757D01*
X181243740Y-185464757D02*
X181386598Y-185393328D01*
X181386598Y-185393328D02*
X181672312Y-185393328D01*
X181672312Y-185393328D02*
X181815169Y-185464757D01*
X181815169Y-185464757D02*
X181886598Y-185607614D01*
X181886598Y-185607614D02*
X181886598Y-185750471D01*
X181886598Y-185750471D02*
X181172312Y-185893328D01*
X182529454Y-186250471D02*
X182600883Y-186321900D01*
X182600883Y-186321900D02*
X182529454Y-186393328D01*
X182529454Y-186393328D02*
X182458026Y-186321900D01*
X182458026Y-186321900D02*
X182529454Y-186250471D01*
X182529454Y-186250471D02*
X182529454Y-186393328D01*
X182529454Y-185464757D02*
X182600883Y-185536185D01*
X182600883Y-185536185D02*
X182529454Y-185607614D01*
X182529454Y-185607614D02*
X182458026Y-185536185D01*
X182458026Y-185536185D02*
X182529454Y-185464757D01*
X182529454Y-185464757D02*
X182529454Y-185607614D01*
X184386597Y-186393328D02*
X184386597Y-184893328D01*
X184386597Y-184893328D02*
X184958026Y-184893328D01*
X184958026Y-184893328D02*
X185100883Y-184964757D01*
X185100883Y-184964757D02*
X185172312Y-185036185D01*
X185172312Y-185036185D02*
X185243740Y-185179042D01*
X185243740Y-185179042D02*
X185243740Y-185393328D01*
X185243740Y-185393328D02*
X185172312Y-185536185D01*
X185172312Y-185536185D02*
X185100883Y-185607614D01*
X185100883Y-185607614D02*
X184958026Y-185679042D01*
X184958026Y-185679042D02*
X184386597Y-185679042D01*
X185886597Y-186393328D02*
X185886597Y-184893328D01*
X185886597Y-184893328D02*
X186243740Y-184893328D01*
X186243740Y-184893328D02*
X186458026Y-184964757D01*
X186458026Y-184964757D02*
X186600883Y-185107614D01*
X186600883Y-185107614D02*
X186672312Y-185250471D01*
X186672312Y-185250471D02*
X186743740Y-185536185D01*
X186743740Y-185536185D02*
X186743740Y-185750471D01*
X186743740Y-185750471D02*
X186672312Y-186036185D01*
X186672312Y-186036185D02*
X186600883Y-186179042D01*
X186600883Y-186179042D02*
X186458026Y-186321900D01*
X186458026Y-186321900D02*
X186243740Y-186393328D01*
X186243740Y-186393328D02*
X185886597Y-186393328D01*
X187386597Y-186393328D02*
X187386597Y-184893328D01*
X187386597Y-184893328D02*
X187886597Y-185964757D01*
X187886597Y-185964757D02*
X188386597Y-184893328D01*
X188386597Y-184893328D02*
X188386597Y-186393328D01*
X188743741Y-186536185D02*
X189886598Y-186536185D01*
X190743740Y-185607614D02*
X190958026Y-185679042D01*
X190958026Y-185679042D02*
X191029455Y-185750471D01*
X191029455Y-185750471D02*
X191100883Y-185893328D01*
X191100883Y-185893328D02*
X191100883Y-186107614D01*
X191100883Y-186107614D02*
X191029455Y-186250471D01*
X191029455Y-186250471D02*
X190958026Y-186321900D01*
X190958026Y-186321900D02*
X190815169Y-186393328D01*
X190815169Y-186393328D02*
X190243740Y-186393328D01*
X190243740Y-186393328D02*
X190243740Y-184893328D01*
X190243740Y-184893328D02*
X190743740Y-184893328D01*
X190743740Y-184893328D02*
X190886598Y-184964757D01*
X190886598Y-184964757D02*
X190958026Y-185036185D01*
X190958026Y-185036185D02*
X191029455Y-185179042D01*
X191029455Y-185179042D02*
X191029455Y-185321900D01*
X191029455Y-185321900D02*
X190958026Y-185464757D01*
X190958026Y-185464757D02*
X190886598Y-185536185D01*
X190886598Y-185536185D02*
X190743740Y-185607614D01*
X190743740Y-185607614D02*
X190243740Y-185607614D01*
X191958026Y-186393328D02*
X191815169Y-186321900D01*
X191815169Y-186321900D02*
X191743740Y-186250471D01*
X191743740Y-186250471D02*
X191672312Y-186107614D01*
X191672312Y-186107614D02*
X191672312Y-185679042D01*
X191672312Y-185679042D02*
X191743740Y-185536185D01*
X191743740Y-185536185D02*
X191815169Y-185464757D01*
X191815169Y-185464757D02*
X191958026Y-185393328D01*
X191958026Y-185393328D02*
X192172312Y-185393328D01*
X192172312Y-185393328D02*
X192315169Y-185464757D01*
X192315169Y-185464757D02*
X192386598Y-185536185D01*
X192386598Y-185536185D02*
X192458026Y-185679042D01*
X192458026Y-185679042D02*
X192458026Y-186107614D01*
X192458026Y-186107614D02*
X192386598Y-186250471D01*
X192386598Y-186250471D02*
X192315169Y-186321900D01*
X192315169Y-186321900D02*
X192172312Y-186393328D01*
X192172312Y-186393328D02*
X191958026Y-186393328D01*
X193743741Y-186393328D02*
X193743741Y-185607614D01*
X193743741Y-185607614D02*
X193672312Y-185464757D01*
X193672312Y-185464757D02*
X193529455Y-185393328D01*
X193529455Y-185393328D02*
X193243741Y-185393328D01*
X193243741Y-185393328D02*
X193100883Y-185464757D01*
X193743741Y-186321900D02*
X193600883Y-186393328D01*
X193600883Y-186393328D02*
X193243741Y-186393328D01*
X193243741Y-186393328D02*
X193100883Y-186321900D01*
X193100883Y-186321900D02*
X193029455Y-186179042D01*
X193029455Y-186179042D02*
X193029455Y-186036185D01*
X193029455Y-186036185D02*
X193100883Y-185893328D01*
X193100883Y-185893328D02*
X193243741Y-185821900D01*
X193243741Y-185821900D02*
X193600883Y-185821900D01*
X193600883Y-185821900D02*
X193743741Y-185750471D01*
X194458026Y-186393328D02*
X194458026Y-185393328D01*
X194458026Y-185679042D02*
X194529455Y-185536185D01*
X194529455Y-185536185D02*
X194600884Y-185464757D01*
X194600884Y-185464757D02*
X194743741Y-185393328D01*
X194743741Y-185393328D02*
X194886598Y-185393328D01*
X196029455Y-186393328D02*
X196029455Y-184893328D01*
X196029455Y-186321900D02*
X195886597Y-186393328D01*
X195886597Y-186393328D02*
X195600883Y-186393328D01*
X195600883Y-186393328D02*
X195458026Y-186321900D01*
X195458026Y-186321900D02*
X195386597Y-186250471D01*
X195386597Y-186250471D02*
X195315169Y-186107614D01*
X195315169Y-186107614D02*
X195315169Y-185679042D01*
X195315169Y-185679042D02*
X195386597Y-185536185D01*
X195386597Y-185536185D02*
X195458026Y-185464757D01*
X195458026Y-185464757D02*
X195600883Y-185393328D01*
X195600883Y-185393328D02*
X195886597Y-185393328D01*
X195886597Y-185393328D02*
X196029455Y-185464757D01*
X196386598Y-186536185D02*
X197529455Y-186536185D01*
X197886597Y-186393328D02*
X197886597Y-185393328D01*
X197886597Y-185536185D02*
X197958026Y-185464757D01*
X197958026Y-185464757D02*
X198100883Y-185393328D01*
X198100883Y-185393328D02*
X198315169Y-185393328D01*
X198315169Y-185393328D02*
X198458026Y-185464757D01*
X198458026Y-185464757D02*
X198529455Y-185607614D01*
X198529455Y-185607614D02*
X198529455Y-186393328D01*
X198529455Y-185607614D02*
X198600883Y-185464757D01*
X198600883Y-185464757D02*
X198743740Y-185393328D01*
X198743740Y-185393328D02*
X198958026Y-185393328D01*
X198958026Y-185393328D02*
X199100883Y-185464757D01*
X199100883Y-185464757D02*
X199172312Y-185607614D01*
X199172312Y-185607614D02*
X199172312Y-186393328D01*
X199886597Y-186393328D02*
X199886597Y-185393328D01*
X199886597Y-184893328D02*
X199815169Y-184964757D01*
X199815169Y-184964757D02*
X199886597Y-185036185D01*
X199886597Y-185036185D02*
X199958026Y-184964757D01*
X199958026Y-184964757D02*
X199886597Y-184893328D01*
X199886597Y-184893328D02*
X199886597Y-185036185D01*
X200600883Y-185393328D02*
X200600883Y-186393328D01*
X200600883Y-185536185D02*
X200672312Y-185464757D01*
X200672312Y-185464757D02*
X200815169Y-185393328D01*
X200815169Y-185393328D02*
X201029455Y-185393328D01*
X201029455Y-185393328D02*
X201172312Y-185464757D01*
X201172312Y-185464757D02*
X201243741Y-185607614D01*
X201243741Y-185607614D02*
X201243741Y-186393328D01*
X201958026Y-186393328D02*
X201958026Y-185393328D01*
X201958026Y-184893328D02*
X201886598Y-184964757D01*
X201886598Y-184964757D02*
X201958026Y-185036185D01*
X201958026Y-185036185D02*
X202029455Y-184964757D01*
X202029455Y-184964757D02*
X201958026Y-184893328D01*
X201958026Y-184893328D02*
X201958026Y-185036185D01*
X202672312Y-186250471D02*
X202743741Y-186321900D01*
X202743741Y-186321900D02*
X202672312Y-186393328D01*
X202672312Y-186393328D02*
X202600884Y-186321900D01*
X202600884Y-186321900D02*
X202672312Y-186250471D01*
X202672312Y-186250471D02*
X202672312Y-186393328D01*
X203386598Y-186393328D02*
X203386598Y-184893328D01*
X203529456Y-185821900D02*
X203958027Y-186393328D01*
X203958027Y-185393328D02*
X203386598Y-185964757D01*
X204600884Y-186393328D02*
X204600884Y-185393328D01*
X204600884Y-184893328D02*
X204529456Y-184964757D01*
X204529456Y-184964757D02*
X204600884Y-185036185D01*
X204600884Y-185036185D02*
X204672313Y-184964757D01*
X204672313Y-184964757D02*
X204600884Y-184893328D01*
X204600884Y-184893328D02*
X204600884Y-185036185D01*
X205958028Y-186321900D02*
X205815170Y-186393328D01*
X205815170Y-186393328D02*
X205529456Y-186393328D01*
X205529456Y-186393328D02*
X205386599Y-186321900D01*
X205386599Y-186321900D02*
X205315170Y-186250471D01*
X205315170Y-186250471D02*
X205243742Y-186107614D01*
X205243742Y-186107614D02*
X205243742Y-185679042D01*
X205243742Y-185679042D02*
X205315170Y-185536185D01*
X205315170Y-185536185D02*
X205386599Y-185464757D01*
X205386599Y-185464757D02*
X205529456Y-185393328D01*
X205529456Y-185393328D02*
X205815170Y-185393328D01*
X205815170Y-185393328D02*
X205958028Y-185464757D01*
X207243742Y-186393328D02*
X207243742Y-185607614D01*
X207243742Y-185607614D02*
X207172313Y-185464757D01*
X207172313Y-185464757D02*
X207029456Y-185393328D01*
X207029456Y-185393328D02*
X206743742Y-185393328D01*
X206743742Y-185393328D02*
X206600884Y-185464757D01*
X207243742Y-186321900D02*
X207100884Y-186393328D01*
X207100884Y-186393328D02*
X206743742Y-186393328D01*
X206743742Y-186393328D02*
X206600884Y-186321900D01*
X206600884Y-186321900D02*
X206529456Y-186179042D01*
X206529456Y-186179042D02*
X206529456Y-186036185D01*
X206529456Y-186036185D02*
X206600884Y-185893328D01*
X206600884Y-185893328D02*
X206743742Y-185821900D01*
X206743742Y-185821900D02*
X207100884Y-185821900D01*
X207100884Y-185821900D02*
X207243742Y-185750471D01*
X208600885Y-186393328D02*
X208600885Y-184893328D01*
X208600885Y-186321900D02*
X208458027Y-186393328D01*
X208458027Y-186393328D02*
X208172313Y-186393328D01*
X208172313Y-186393328D02*
X208029456Y-186321900D01*
X208029456Y-186321900D02*
X207958027Y-186250471D01*
X207958027Y-186250471D02*
X207886599Y-186107614D01*
X207886599Y-186107614D02*
X207886599Y-185679042D01*
X207886599Y-185679042D02*
X207958027Y-185536185D01*
X207958027Y-185536185D02*
X208029456Y-185464757D01*
X208029456Y-185464757D02*
X208172313Y-185393328D01*
X208172313Y-185393328D02*
X208458027Y-185393328D01*
X208458027Y-185393328D02*
X208600885Y-185464757D01*
X208958028Y-186536185D02*
X210100885Y-186536185D01*
X210458027Y-185393328D02*
X210458027Y-186893328D01*
X210458027Y-185464757D02*
X210600885Y-185393328D01*
X210600885Y-185393328D02*
X210886599Y-185393328D01*
X210886599Y-185393328D02*
X211029456Y-185464757D01*
X211029456Y-185464757D02*
X211100885Y-185536185D01*
X211100885Y-185536185D02*
X211172313Y-185679042D01*
X211172313Y-185679042D02*
X211172313Y-186107614D01*
X211172313Y-186107614D02*
X211100885Y-186250471D01*
X211100885Y-186250471D02*
X211029456Y-186321900D01*
X211029456Y-186321900D02*
X210886599Y-186393328D01*
X210886599Y-186393328D02*
X210600885Y-186393328D01*
X210600885Y-186393328D02*
X210458027Y-186321900D01*
X212458028Y-186321900D02*
X212315170Y-186393328D01*
X212315170Y-186393328D02*
X212029456Y-186393328D01*
X212029456Y-186393328D02*
X211886599Y-186321900D01*
X211886599Y-186321900D02*
X211815170Y-186250471D01*
X211815170Y-186250471D02*
X211743742Y-186107614D01*
X211743742Y-186107614D02*
X211743742Y-185679042D01*
X211743742Y-185679042D02*
X211815170Y-185536185D01*
X211815170Y-185536185D02*
X211886599Y-185464757D01*
X211886599Y-185464757D02*
X212029456Y-185393328D01*
X212029456Y-185393328D02*
X212315170Y-185393328D01*
X212315170Y-185393328D02*
X212458028Y-185464757D01*
X213100884Y-186393328D02*
X213100884Y-184893328D01*
X213100884Y-185464757D02*
X213243742Y-185393328D01*
X213243742Y-185393328D02*
X213529456Y-185393328D01*
X213529456Y-185393328D02*
X213672313Y-185464757D01*
X213672313Y-185464757D02*
X213743742Y-185536185D01*
X213743742Y-185536185D02*
X213815170Y-185679042D01*
X213815170Y-185679042D02*
X213815170Y-186107614D01*
X213815170Y-186107614D02*
X213743742Y-186250471D01*
X213743742Y-186250471D02*
X213672313Y-186321900D01*
X213672313Y-186321900D02*
X213529456Y-186393328D01*
X213529456Y-186393328D02*
X213243742Y-186393328D01*
X213243742Y-186393328D02*
X213100884Y-186321900D01*
X177002200Y-181507200D02*
X285002200Y-181507200D01*
X178386598Y-183621900D02*
X178600884Y-183693328D01*
X178600884Y-183693328D02*
X178958026Y-183693328D01*
X178958026Y-183693328D02*
X179100884Y-183621900D01*
X179100884Y-183621900D02*
X179172312Y-183550471D01*
X179172312Y-183550471D02*
X179243741Y-183407614D01*
X179243741Y-183407614D02*
X179243741Y-183264757D01*
X179243741Y-183264757D02*
X179172312Y-183121900D01*
X179172312Y-183121900D02*
X179100884Y-183050471D01*
X179100884Y-183050471D02*
X178958026Y-182979042D01*
X178958026Y-182979042D02*
X178672312Y-182907614D01*
X178672312Y-182907614D02*
X178529455Y-182836185D01*
X178529455Y-182836185D02*
X178458026Y-182764757D01*
X178458026Y-182764757D02*
X178386598Y-182621900D01*
X178386598Y-182621900D02*
X178386598Y-182479042D01*
X178386598Y-182479042D02*
X178458026Y-182336185D01*
X178458026Y-182336185D02*
X178529455Y-182264757D01*
X178529455Y-182264757D02*
X178672312Y-182193328D01*
X178672312Y-182193328D02*
X179029455Y-182193328D01*
X179029455Y-182193328D02*
X179243741Y-182264757D01*
X179886597Y-183693328D02*
X179886597Y-182193328D01*
X180529455Y-183693328D02*
X180529455Y-182907614D01*
X180529455Y-182907614D02*
X180458026Y-182764757D01*
X180458026Y-182764757D02*
X180315169Y-182693328D01*
X180315169Y-182693328D02*
X180100883Y-182693328D01*
X180100883Y-182693328D02*
X179958026Y-182764757D01*
X179958026Y-182764757D02*
X179886597Y-182836185D01*
X181815169Y-183621900D02*
X181672312Y-183693328D01*
X181672312Y-183693328D02*
X181386598Y-183693328D01*
X181386598Y-183693328D02*
X181243740Y-183621900D01*
X181243740Y-183621900D02*
X181172312Y-183479042D01*
X181172312Y-183479042D02*
X181172312Y-182907614D01*
X181172312Y-182907614D02*
X181243740Y-182764757D01*
X181243740Y-182764757D02*
X181386598Y-182693328D01*
X181386598Y-182693328D02*
X181672312Y-182693328D01*
X181672312Y-182693328D02*
X181815169Y-182764757D01*
X181815169Y-182764757D02*
X181886598Y-182907614D01*
X181886598Y-182907614D02*
X181886598Y-183050471D01*
X181886598Y-183050471D02*
X181172312Y-183193328D01*
X183100883Y-183621900D02*
X182958026Y-183693328D01*
X182958026Y-183693328D02*
X182672312Y-183693328D01*
X182672312Y-183693328D02*
X182529454Y-183621900D01*
X182529454Y-183621900D02*
X182458026Y-183479042D01*
X182458026Y-183479042D02*
X182458026Y-182907614D01*
X182458026Y-182907614D02*
X182529454Y-182764757D01*
X182529454Y-182764757D02*
X182672312Y-182693328D01*
X182672312Y-182693328D02*
X182958026Y-182693328D01*
X182958026Y-182693328D02*
X183100883Y-182764757D01*
X183100883Y-182764757D02*
X183172312Y-182907614D01*
X183172312Y-182907614D02*
X183172312Y-183050471D01*
X183172312Y-183050471D02*
X182458026Y-183193328D01*
X183600883Y-182693328D02*
X184172311Y-182693328D01*
X183815168Y-182193328D02*
X183815168Y-183479042D01*
X183815168Y-183479042D02*
X183886597Y-183621900D01*
X183886597Y-183621900D02*
X184029454Y-183693328D01*
X184029454Y-183693328D02*
X184172311Y-183693328D01*
X184672311Y-183550471D02*
X184743740Y-183621900D01*
X184743740Y-183621900D02*
X184672311Y-183693328D01*
X184672311Y-183693328D02*
X184600883Y-183621900D01*
X184600883Y-183621900D02*
X184672311Y-183550471D01*
X184672311Y-183550471D02*
X184672311Y-183693328D01*
X184672311Y-182764757D02*
X184743740Y-182836185D01*
X184743740Y-182836185D02*
X184672311Y-182907614D01*
X184672311Y-182907614D02*
X184600883Y-182836185D01*
X184600883Y-182836185D02*
X184672311Y-182764757D01*
X184672311Y-182764757D02*
X184672311Y-182907614D01*
X197002200Y-191507200D02*
X197002200Y-194507200D01*
X261002200Y-191507200D02*
X261002200Y-198007200D01*
D13*
%TO.N,GND*%
%TO.C,H2*%
X130000000Y-134750000D03*
%TD*%
D14*
%TO.N,GND*%
%TO.C,J1*%
X138000000Y-120710000D03*
%TO.N,DAT*%
X138000000Y-123250000D03*
%TO.N,CLK*%
X138000000Y-125790000D03*
%TO.N,VDD*%
X138000000Y-128330000D03*
%TD*%
D13*
%TO.N,GND*%
%TO.C,H4*%
X155250000Y-114250000D03*
%TD*%
%TO.N,GND*%
%TO.C,H3*%
X155250000Y-134750000D03*
%TD*%
%TO.N,GND*%
%TO.C,H1*%
X130000000Y-114250000D03*
%TD*%
D15*
%TO.N,Net-(JP1-B)*%
%TO.C,JP1*%
X146040000Y-135250000D03*
%TO.N,J_OUT*%
X143500000Y-135250000D03*
D16*
%TO.N,Net-(JP1-A)*%
X140960000Y-135250000D03*
%TD*%
D14*
%TO.N,IN*%
%TO.C,J2*%
X145699600Y-125430400D03*
%TO.N,GND*%
X145699600Y-122890400D03*
%TD*%
D17*
%TO.N,GND*%
X142537500Y-114250000D03*
%TO.N,J_OUT*%
X149500000Y-124500000D03*
X149500000Y-124500000D03*
%TO.N,GND*%
X132000000Y-116250000D03*
X153250000Y-116250000D03*
X153250000Y-132750000D03*
X132000000Y-132750000D03*
%TO.N,VDD*%
X142332500Y-128330000D03*
X150662500Y-135500000D03*
%TO.N,GND*%
X136337500Y-135500000D03*
X150750000Y-123000000D03*
X150250000Y-128612500D03*
X148500000Y-128612500D03*
%TD*%
%TA.AperFunction,Conductor*%
%TO.N,GND*%
G36*
X157692539Y-111770185D02*
G01*
X157738294Y-111822989D01*
X157749500Y-111874500D01*
X157749500Y-137125500D01*
X157729815Y-137192539D01*
X157677011Y-137238294D01*
X157625500Y-137249500D01*
X127624500Y-137249500D01*
X127557461Y-137229815D01*
X127511706Y-137177011D01*
X127500500Y-137125500D01*
X127500500Y-134352135D01*
X139609500Y-134352135D01*
X139609500Y-136147870D01*
X139609501Y-136147876D01*
X139615908Y-136207483D01*
X139666202Y-136342328D01*
X139666206Y-136342335D01*
X139752452Y-136457544D01*
X139752455Y-136457547D01*
X139867664Y-136543793D01*
X139867671Y-136543797D01*
X140002517Y-136594091D01*
X140002516Y-136594091D01*
X140009444Y-136594835D01*
X140062127Y-136600500D01*
X141857872Y-136600499D01*
X141917483Y-136594091D01*
X142052331Y-136543796D01*
X142167546Y-136457546D01*
X142253796Y-136342331D01*
X142302810Y-136210916D01*
X142344681Y-136154984D01*
X142410145Y-136130566D01*
X142478418Y-136145417D01*
X142506673Y-136166569D01*
X142620213Y-136280109D01*
X142792179Y-136405048D01*
X142792181Y-136405049D01*
X142792184Y-136405051D01*
X142981588Y-136501557D01*
X143183757Y-136567246D01*
X143393713Y-136600500D01*
X143393714Y-136600500D01*
X143606286Y-136600500D01*
X143606287Y-136600500D01*
X143816243Y-136567246D01*
X144018412Y-136501557D01*
X144207816Y-136405051D01*
X144294138Y-136342335D01*
X144379786Y-136280109D01*
X144379788Y-136280106D01*
X144379792Y-136280104D01*
X144530104Y-136129792D01*
X144530106Y-136129788D01*
X144530109Y-136129786D01*
X144655048Y-135957820D01*
X144655047Y-135957820D01*
X144655051Y-135957816D01*
X144659514Y-135949054D01*
X144707488Y-135898259D01*
X144775308Y-135881463D01*
X144841444Y-135903999D01*
X144880486Y-135949056D01*
X144884951Y-135957820D01*
X145009890Y-136129786D01*
X145160213Y-136280109D01*
X145332179Y-136405048D01*
X145332181Y-136405049D01*
X145332184Y-136405051D01*
X145521588Y-136501557D01*
X145723757Y-136567246D01*
X145933713Y-136600500D01*
X145933714Y-136600500D01*
X146146286Y-136600500D01*
X146146287Y-136600500D01*
X146356243Y-136567246D01*
X146558412Y-136501557D01*
X146747816Y-136405051D01*
X146834138Y-136342335D01*
X146919786Y-136280109D01*
X146919788Y-136280106D01*
X146919792Y-136280104D01*
X147070104Y-136129792D01*
X147070106Y-136129788D01*
X147070109Y-136129786D01*
X147195048Y-135957820D01*
X147195047Y-135957820D01*
X147195051Y-135957816D01*
X147291557Y-135768412D01*
X147357246Y-135566243D01*
X147380226Y-135421153D01*
X149862000Y-135421153D01*
X149862000Y-135578846D01*
X149892761Y-135733489D01*
X149892764Y-135733501D01*
X149953102Y-135879172D01*
X149953109Y-135879185D01*
X150040710Y-136010288D01*
X150040713Y-136010292D01*
X150152207Y-136121786D01*
X150152211Y-136121789D01*
X150283314Y-136209390D01*
X150283327Y-136209397D01*
X150428998Y-136269735D01*
X150429003Y-136269737D01*
X150583653Y-136300499D01*
X150583656Y-136300500D01*
X150583658Y-136300500D01*
X150741344Y-136300500D01*
X150741345Y-136300499D01*
X150895997Y-136269737D01*
X151041679Y-136209394D01*
X151172789Y-136121789D01*
X151284289Y-136010289D01*
X151371894Y-135879179D01*
X151432237Y-135733497D01*
X151463000Y-135578842D01*
X151463000Y-135421158D01*
X151463000Y-135421155D01*
X151462999Y-135421153D01*
X151432238Y-135266510D01*
X151432237Y-135266503D01*
X151432235Y-135266498D01*
X151371897Y-135120827D01*
X151371890Y-135120814D01*
X151284289Y-134989711D01*
X151284286Y-134989707D01*
X151172792Y-134878213D01*
X151172788Y-134878210D01*
X151041685Y-134790609D01*
X151041672Y-134790602D01*
X150896001Y-134730264D01*
X150895989Y-134730261D01*
X150741345Y-134699500D01*
X150741342Y-134699500D01*
X150583658Y-134699500D01*
X150583655Y-134699500D01*
X150429010Y-134730261D01*
X150428998Y-134730264D01*
X150283327Y-134790602D01*
X150283314Y-134790609D01*
X150152211Y-134878210D01*
X150152207Y-134878213D01*
X150040713Y-134989707D01*
X150040710Y-134989711D01*
X149953109Y-135120814D01*
X149953102Y-135120827D01*
X149892764Y-135266498D01*
X149892761Y-135266510D01*
X149862000Y-135421153D01*
X147380226Y-135421153D01*
X147390500Y-135356287D01*
X147390500Y-135143713D01*
X147357246Y-134933757D01*
X147291557Y-134731588D01*
X147195051Y-134542184D01*
X147195049Y-134542181D01*
X147195048Y-134542179D01*
X147070109Y-134370213D01*
X146919786Y-134219890D01*
X146747820Y-134094951D01*
X146558414Y-133998444D01*
X146558413Y-133998443D01*
X146558412Y-133998443D01*
X146356243Y-133932754D01*
X146356241Y-133932753D01*
X146356240Y-133932753D01*
X146194957Y-133907208D01*
X146146287Y-133899500D01*
X145933713Y-133899500D01*
X145885042Y-133907208D01*
X145723760Y-133932753D01*
X145521585Y-133998444D01*
X145332179Y-134094951D01*
X145160213Y-134219890D01*
X145009890Y-134370213D01*
X144884949Y-134542182D01*
X144880484Y-134550946D01*
X144832509Y-134601742D01*
X144764688Y-134618536D01*
X144698553Y-134595998D01*
X144659516Y-134550946D01*
X144655050Y-134542182D01*
X144530109Y-134370213D01*
X144379786Y-134219890D01*
X144207820Y-134094951D01*
X144018414Y-133998444D01*
X144018413Y-133998443D01*
X144018412Y-133998443D01*
X143816243Y-133932754D01*
X143816241Y-133932753D01*
X143816240Y-133932753D01*
X143654957Y-133907208D01*
X143606287Y-133899500D01*
X143393713Y-133899500D01*
X143345042Y-133907208D01*
X143183760Y-133932753D01*
X142981585Y-133998444D01*
X142792179Y-134094951D01*
X142620215Y-134219889D01*
X142506673Y-134333431D01*
X142445350Y-134366915D01*
X142375658Y-134361931D01*
X142319725Y-134320059D01*
X142302810Y-134289082D01*
X142253797Y-134157671D01*
X142253793Y-134157664D01*
X142167547Y-134042455D01*
X142167544Y-134042452D01*
X142052335Y-133956206D01*
X142052328Y-133956202D01*
X141917482Y-133905908D01*
X141917483Y-133905908D01*
X141857883Y-133899501D01*
X141857881Y-133899500D01*
X141857873Y-133899500D01*
X141857864Y-133899500D01*
X140062129Y-133899500D01*
X140062123Y-133899501D01*
X140002516Y-133905908D01*
X139867671Y-133956202D01*
X139867664Y-133956206D01*
X139752455Y-134042452D01*
X139752452Y-134042455D01*
X139666206Y-134157664D01*
X139666202Y-134157671D01*
X139615908Y-134292517D01*
X139609501Y-134352116D01*
X139609500Y-134352135D01*
X127500500Y-134352135D01*
X127500500Y-130920672D01*
X127520185Y-130853633D01*
X127572989Y-130807878D01*
X127642147Y-130797934D01*
X127705703Y-130826959D01*
X127722873Y-130845183D01*
X127780798Y-130920672D01*
X127869893Y-131036784D01*
X127869899Y-131036791D01*
X128053207Y-131220099D01*
X128053213Y-131220104D01*
X128258890Y-131377925D01*
X128258897Y-131377929D01*
X128483400Y-131507547D01*
X128483416Y-131507555D01*
X128632776Y-131569421D01*
X128722924Y-131606762D01*
X128973341Y-131673861D01*
X129230374Y-131707700D01*
X129230381Y-131707700D01*
X129489617Y-131707700D01*
X129489624Y-131707700D01*
X129746657Y-131673861D01*
X129997074Y-131606762D01*
X130177368Y-131532081D01*
X130236581Y-131507555D01*
X130236584Y-131507553D01*
X130236590Y-131507551D01*
X130461108Y-131377925D01*
X130666785Y-131220104D01*
X130850103Y-131036786D01*
X131007924Y-130831109D01*
X131137550Y-130606591D01*
X131236761Y-130367075D01*
X131303860Y-130116658D01*
X131337699Y-129859625D01*
X131337699Y-129600375D01*
X131303860Y-129343342D01*
X131236761Y-129092925D01*
X131199420Y-129002777D01*
X131137554Y-128853417D01*
X131137546Y-128853401D01*
X131007928Y-128628898D01*
X131007924Y-128628891D01*
X130859425Y-128435363D01*
X130850104Y-128423215D01*
X130850098Y-128423208D01*
X130666790Y-128239900D01*
X130666783Y-128239894D01*
X130461116Y-128082081D01*
X130461114Y-128082079D01*
X130461108Y-128082075D01*
X130461103Y-128082072D01*
X130461100Y-128082070D01*
X130236597Y-127952452D01*
X130236581Y-127952444D01*
X129997072Y-127853237D01*
X129746655Y-127786138D01*
X129489633Y-127752301D01*
X129489630Y-127752300D01*
X129489624Y-127752300D01*
X129230374Y-127752300D01*
X129230368Y-127752300D01*
X129230364Y-127752301D01*
X128973342Y-127786138D01*
X128722925Y-127853237D01*
X128483416Y-127952444D01*
X128483400Y-127952452D01*
X128258897Y-128082070D01*
X128258881Y-128082081D01*
X128053214Y-128239894D01*
X128053207Y-128239900D01*
X127869899Y-128423208D01*
X127869893Y-128423215D01*
X127722876Y-128614813D01*
X127666448Y-128656016D01*
X127596702Y-128660171D01*
X127535782Y-128625959D01*
X127503029Y-128564242D01*
X127500500Y-128539327D01*
X127500500Y-123144636D01*
X136661300Y-123144636D01*
X136661300Y-123355363D01*
X136694262Y-123563480D01*
X136759379Y-123763887D01*
X136855043Y-123951635D01*
X136978890Y-124122099D01*
X137127900Y-124271109D01*
X137298366Y-124394958D01*
X137326936Y-124409516D01*
X137377732Y-124457491D01*
X137394526Y-124525312D01*
X137371988Y-124591447D01*
X137326936Y-124630484D01*
X137298366Y-124645041D01*
X137127900Y-124768890D01*
X136978890Y-124917900D01*
X136855043Y-125088364D01*
X136759379Y-125276112D01*
X136694262Y-125476519D01*
X136661300Y-125684636D01*
X136661300Y-125895363D01*
X136694262Y-126103480D01*
X136759379Y-126303887D01*
X136855043Y-126491635D01*
X136978890Y-126662099D01*
X137127900Y-126811109D01*
X137298366Y-126934958D01*
X137326936Y-126949516D01*
X137377732Y-126997491D01*
X137394526Y-127065312D01*
X137371988Y-127131447D01*
X137326936Y-127170484D01*
X137298366Y-127185041D01*
X137127900Y-127308890D01*
X136978890Y-127457900D01*
X136855043Y-127628364D01*
X136759379Y-127816112D01*
X136694262Y-128016519D01*
X136661300Y-128224636D01*
X136661300Y-128435363D01*
X136694262Y-128643480D01*
X136759379Y-128843887D01*
X136855043Y-129031635D01*
X136978890Y-129202099D01*
X137127900Y-129351109D01*
X137287415Y-129467001D01*
X137298368Y-129474959D01*
X137418000Y-129535914D01*
X137486112Y-129570620D01*
X137486114Y-129570620D01*
X137486117Y-129570622D01*
X137577687Y-129600375D01*
X137686519Y-129635737D01*
X137894637Y-129668700D01*
X137894642Y-129668700D01*
X138105363Y-129668700D01*
X138313480Y-129635737D01*
X138513883Y-129570622D01*
X138701632Y-129474959D01*
X138797344Y-129405420D01*
X138872099Y-129351109D01*
X138872101Y-129351106D01*
X138872105Y-129351104D01*
X139021104Y-129202105D01*
X139021106Y-129202101D01*
X139021109Y-129202099D01*
X139095478Y-129099737D01*
X139144959Y-129031632D01*
X139240622Y-128843883D01*
X139305737Y-128643480D01*
X139318287Y-128564242D01*
X139338700Y-128435363D01*
X139338700Y-128251153D01*
X141532000Y-128251153D01*
X141532000Y-128408846D01*
X141562761Y-128563489D01*
X141562764Y-128563501D01*
X141623102Y-128709172D01*
X141623109Y-128709185D01*
X141710710Y-128840288D01*
X141710713Y-128840292D01*
X141822207Y-128951786D01*
X141822211Y-128951789D01*
X141953314Y-129039390D01*
X141953327Y-129039397D01*
X142098998Y-129099735D01*
X142099003Y-129099737D01*
X142253653Y-129130499D01*
X142253656Y-129130500D01*
X142253658Y-129130500D01*
X142411344Y-129130500D01*
X142411345Y-129130499D01*
X142565997Y-129099737D01*
X142711679Y-129039394D01*
X142842789Y-128951789D01*
X142954289Y-128840289D01*
X143041894Y-128709179D01*
X143042730Y-128707162D01*
X143075154Y-128628882D01*
X143102237Y-128563497D01*
X143133000Y-128408842D01*
X143133000Y-128251158D01*
X143133000Y-128251155D01*
X143132999Y-128251153D01*
X143102238Y-128096510D01*
X143102237Y-128096503D01*
X143096259Y-128082070D01*
X143041897Y-127950827D01*
X143041890Y-127950814D01*
X142954289Y-127819711D01*
X142954286Y-127819707D01*
X142842792Y-127708213D01*
X142842788Y-127708210D01*
X142711685Y-127620609D01*
X142711672Y-127620602D01*
X142566001Y-127560264D01*
X142565989Y-127560261D01*
X142411345Y-127529500D01*
X142411342Y-127529500D01*
X142253658Y-127529500D01*
X142253655Y-127529500D01*
X142099010Y-127560261D01*
X142098998Y-127560264D01*
X141953327Y-127620602D01*
X141953314Y-127620609D01*
X141822211Y-127708210D01*
X141822207Y-127708213D01*
X141710713Y-127819707D01*
X141710710Y-127819711D01*
X141623109Y-127950814D01*
X141623102Y-127950827D01*
X141562764Y-128096498D01*
X141562761Y-128096510D01*
X141532000Y-128251153D01*
X139338700Y-128251153D01*
X139338700Y-128224636D01*
X139305737Y-128016519D01*
X139252683Y-127853237D01*
X139240622Y-127816117D01*
X139240620Y-127816114D01*
X139240620Y-127816112D01*
X139185641Y-127708211D01*
X139144959Y-127628368D01*
X139095479Y-127560264D01*
X139021109Y-127457900D01*
X138872099Y-127308890D01*
X138701636Y-127185043D01*
X138673064Y-127170485D01*
X138622268Y-127122510D01*
X138605473Y-127054689D01*
X138628010Y-126988554D01*
X138673064Y-126949515D01*
X138701632Y-126934959D01*
X138723413Y-126919134D01*
X138872099Y-126811109D01*
X138872101Y-126811106D01*
X138872105Y-126811104D01*
X139021104Y-126662105D01*
X139021106Y-126662101D01*
X139021109Y-126662099D01*
X139084130Y-126575356D01*
X139144959Y-126491632D01*
X139240622Y-126303883D01*
X139305737Y-126103480D01*
X139338700Y-125895363D01*
X139338700Y-125684636D01*
X139305737Y-125476519D01*
X139267386Y-125358489D01*
X139261474Y-125340294D01*
X139256516Y-125325036D01*
X144360900Y-125325036D01*
X144360900Y-125535763D01*
X144393862Y-125743880D01*
X144458979Y-125944287D01*
X144554643Y-126132035D01*
X144678490Y-126302499D01*
X144827500Y-126451509D01*
X144987015Y-126567401D01*
X144997968Y-126575359D01*
X145117600Y-126636314D01*
X145185712Y-126671020D01*
X145185714Y-126671020D01*
X145185717Y-126671022D01*
X145277287Y-126700775D01*
X145386119Y-126736137D01*
X145594237Y-126769100D01*
X145594242Y-126769100D01*
X145804963Y-126769100D01*
X146013080Y-126736137D01*
X146121894Y-126700781D01*
X152361901Y-126700781D01*
X152361901Y-126960018D01*
X152361902Y-126960034D01*
X152395739Y-127217056D01*
X152462838Y-127467473D01*
X152562045Y-127706982D01*
X152562053Y-127706998D01*
X152691671Y-127931501D01*
X152691682Y-127931517D01*
X152849495Y-128137184D01*
X152849501Y-128137191D01*
X153032809Y-128320499D01*
X153032815Y-128320504D01*
X153238492Y-128478325D01*
X153238499Y-128478329D01*
X153463002Y-128607947D01*
X153463018Y-128607955D01*
X153548784Y-128643480D01*
X153702526Y-128707162D01*
X153952943Y-128774261D01*
X154209976Y-128808100D01*
X154209983Y-128808100D01*
X154469219Y-128808100D01*
X154469226Y-128808100D01*
X154726259Y-128774261D01*
X154976676Y-128707162D01*
X155165622Y-128628898D01*
X155216183Y-128607955D01*
X155216186Y-128607953D01*
X155216192Y-128607951D01*
X155440710Y-128478325D01*
X155646387Y-128320504D01*
X155829705Y-128137186D01*
X155987526Y-127931509D01*
X156109007Y-127721097D01*
X156117148Y-127706998D01*
X156117156Y-127706982D01*
X156152934Y-127620606D01*
X156216363Y-127467475D01*
X156283462Y-127217058D01*
X156317301Y-126960025D01*
X156317301Y-126700775D01*
X156283462Y-126443742D01*
X156216363Y-126193325D01*
X156179022Y-126103177D01*
X156117156Y-125953817D01*
X156117148Y-125953801D01*
X155987530Y-125729298D01*
X155987526Y-125729291D01*
X155839027Y-125535763D01*
X155829706Y-125523615D01*
X155829700Y-125523608D01*
X155646392Y-125340300D01*
X155646385Y-125340294D01*
X155440718Y-125182481D01*
X155440716Y-125182479D01*
X155440710Y-125182475D01*
X155440705Y-125182472D01*
X155440702Y-125182470D01*
X155216199Y-125052852D01*
X155216183Y-125052844D01*
X154976674Y-124953637D01*
X154726257Y-124886538D01*
X154469235Y-124852701D01*
X154469232Y-124852700D01*
X154469226Y-124852700D01*
X154209976Y-124852700D01*
X154209970Y-124852700D01*
X154209966Y-124852701D01*
X153952944Y-124886538D01*
X153702527Y-124953637D01*
X153463018Y-125052844D01*
X153463002Y-125052852D01*
X153238499Y-125182470D01*
X153238483Y-125182481D01*
X153032816Y-125340294D01*
X153032809Y-125340300D01*
X152849501Y-125523608D01*
X152849495Y-125523615D01*
X152691682Y-125729282D01*
X152691671Y-125729298D01*
X152562053Y-125953801D01*
X152562045Y-125953817D01*
X152462838Y-126193326D01*
X152395739Y-126443743D01*
X152361902Y-126700765D01*
X152361901Y-126700781D01*
X146121894Y-126700781D01*
X146213483Y-126671022D01*
X146401232Y-126575359D01*
X146516469Y-126491635D01*
X146571699Y-126451509D01*
X146571701Y-126451506D01*
X146571705Y-126451504D01*
X146720704Y-126302505D01*
X146720706Y-126302501D01*
X146720709Y-126302499D01*
X146775020Y-126227744D01*
X146844559Y-126132032D01*
X146940222Y-125944283D01*
X147005337Y-125743880D01*
X147007649Y-125729282D01*
X147038300Y-125535763D01*
X147038300Y-125325036D01*
X147005337Y-125116919D01*
X146940671Y-124917900D01*
X146940222Y-124916517D01*
X146940220Y-124916514D01*
X146940220Y-124916512D01*
X146865002Y-124768890D01*
X146844559Y-124728768D01*
X146783730Y-124645043D01*
X146720709Y-124558300D01*
X146583562Y-124421153D01*
X148699500Y-124421153D01*
X148699500Y-124578846D01*
X148730261Y-124733489D01*
X148730264Y-124733501D01*
X148790602Y-124879172D01*
X148790609Y-124879185D01*
X148878210Y-125010288D01*
X148878213Y-125010292D01*
X148989707Y-125121786D01*
X148989711Y-125121789D01*
X149120814Y-125209390D01*
X149120827Y-125209397D01*
X149266498Y-125269735D01*
X149266503Y-125269737D01*
X149421153Y-125300499D01*
X149421156Y-125300500D01*
X149421158Y-125300500D01*
X149578844Y-125300500D01*
X149578845Y-125300499D01*
X149733497Y-125269737D01*
X149879179Y-125209394D01*
X150010289Y-125121789D01*
X150121789Y-125010289D01*
X150209394Y-124879179D01*
X150269737Y-124733497D01*
X150300500Y-124578842D01*
X150300500Y-124421158D01*
X150300500Y-124421155D01*
X150300499Y-124421153D01*
X150270652Y-124271104D01*
X150269737Y-124266503D01*
X150223472Y-124154808D01*
X150209397Y-124120827D01*
X150209390Y-124120814D01*
X150121789Y-123989711D01*
X150121786Y-123989707D01*
X150010292Y-123878213D01*
X150010288Y-123878210D01*
X149879185Y-123790609D01*
X149879172Y-123790602D01*
X149733501Y-123730264D01*
X149733489Y-123730261D01*
X149578845Y-123699500D01*
X149578842Y-123699500D01*
X149421158Y-123699500D01*
X149421155Y-123699500D01*
X149266510Y-123730261D01*
X149266498Y-123730264D01*
X149120827Y-123790602D01*
X149120814Y-123790609D01*
X148989711Y-123878210D01*
X148989707Y-123878213D01*
X148878213Y-123989707D01*
X148878210Y-123989711D01*
X148790609Y-124120814D01*
X148790602Y-124120827D01*
X148730264Y-124266498D01*
X148730261Y-124266510D01*
X148699500Y-124421153D01*
X146583562Y-124421153D01*
X146571699Y-124409290D01*
X146401233Y-124285441D01*
X146372112Y-124270603D01*
X146321317Y-124222629D01*
X146304522Y-124154808D01*
X146327060Y-124088673D01*
X146372114Y-124049634D01*
X146400967Y-124034932D01*
X146400968Y-124034932D01*
X146452868Y-123997223D01*
X146452868Y-123997222D01*
X145897758Y-123442112D01*
X145925093Y-123434788D01*
X146058307Y-123357876D01*
X146167076Y-123249107D01*
X146243988Y-123115893D01*
X146251312Y-123088558D01*
X146806422Y-123643668D01*
X146806423Y-123643668D01*
X146844130Y-123591770D01*
X146939760Y-123404088D01*
X147004848Y-123203764D01*
X147037800Y-122995718D01*
X147037800Y-122785081D01*
X147004848Y-122577035D01*
X146939760Y-122376711D01*
X146844134Y-122189037D01*
X146844126Y-122189024D01*
X146806423Y-122137130D01*
X146806422Y-122137129D01*
X146251311Y-122692240D01*
X146243988Y-122664907D01*
X146167076Y-122531693D01*
X146058307Y-122422924D01*
X145925093Y-122346012D01*
X145897758Y-122338687D01*
X146452869Y-121783577D01*
X146452868Y-121783576D01*
X146400970Y-121745869D01*
X146213288Y-121650239D01*
X146012964Y-121585151D01*
X145804918Y-121552200D01*
X145594282Y-121552200D01*
X145386235Y-121585151D01*
X145185911Y-121650239D01*
X144998233Y-121745867D01*
X144946330Y-121783576D01*
X145501441Y-122338687D01*
X145474107Y-122346012D01*
X145340893Y-122422924D01*
X145232124Y-122531693D01*
X145155212Y-122664907D01*
X145147887Y-122692241D01*
X144592776Y-122137130D01*
X144555067Y-122189033D01*
X144459439Y-122376711D01*
X144394351Y-122577035D01*
X144361400Y-122785081D01*
X144361400Y-122995718D01*
X144394351Y-123203764D01*
X144459439Y-123404088D01*
X144555069Y-123591770D01*
X144592776Y-123643668D01*
X144592777Y-123643669D01*
X145147887Y-123088558D01*
X145155212Y-123115893D01*
X145232124Y-123249107D01*
X145340893Y-123357876D01*
X145474107Y-123434788D01*
X145501441Y-123442112D01*
X144946329Y-123997222D01*
X144946330Y-123997223D01*
X144998224Y-124034926D01*
X144998242Y-124034937D01*
X145027087Y-124049635D01*
X145077882Y-124097609D01*
X145094677Y-124165430D01*
X145072139Y-124231565D01*
X145027088Y-124270603D01*
X144997964Y-124285442D01*
X144827500Y-124409290D01*
X144678490Y-124558300D01*
X144554643Y-124728764D01*
X144458979Y-124916512D01*
X144393862Y-125116919D01*
X144360900Y-125325036D01*
X139256516Y-125325036D01*
X139240622Y-125276117D01*
X139240620Y-125276114D01*
X139240620Y-125276112D01*
X139192906Y-125182470D01*
X139144959Y-125088368D01*
X139137001Y-125077415D01*
X139021109Y-124917900D01*
X138872099Y-124768890D01*
X138701636Y-124645043D01*
X138673064Y-124630485D01*
X138622268Y-124582510D01*
X138605473Y-124514689D01*
X138628010Y-124448554D01*
X138673064Y-124409515D01*
X138673506Y-124409290D01*
X138701632Y-124394959D01*
X138723413Y-124379134D01*
X138872099Y-124271109D01*
X138872101Y-124271106D01*
X138872105Y-124271104D01*
X139021104Y-124122105D01*
X139021106Y-124122101D01*
X139021109Y-124122099D01*
X139117296Y-123989707D01*
X139144959Y-123951632D01*
X139240622Y-123763883D01*
X139305737Y-123563480D01*
X139326120Y-123434788D01*
X139338700Y-123355363D01*
X139338700Y-123144636D01*
X139312703Y-122980504D01*
X139305737Y-122936520D01*
X139305736Y-122936516D01*
X139305736Y-122936515D01*
X139267399Y-122818527D01*
X139240620Y-122736112D01*
X139204339Y-122664907D01*
X139144959Y-122548368D01*
X139132844Y-122531693D01*
X139021109Y-122377900D01*
X138872099Y-122228890D01*
X138701633Y-122105041D01*
X138672512Y-122090203D01*
X138621717Y-122042229D01*
X138604922Y-121974408D01*
X138627460Y-121908273D01*
X138640790Y-121892376D01*
X138734443Y-121797997D01*
X138198158Y-121261712D01*
X138225493Y-121254388D01*
X138358707Y-121177476D01*
X138467476Y-121068707D01*
X138544388Y-120935493D01*
X138551712Y-120908158D01*
X139106822Y-121463268D01*
X139106823Y-121463268D01*
X139144532Y-121411368D01*
X139144535Y-121411362D01*
X139170308Y-121360781D01*
X152361901Y-121360781D01*
X152361901Y-121620018D01*
X152361902Y-121620034D01*
X152395739Y-121877056D01*
X152462838Y-122127473D01*
X152562045Y-122366982D01*
X152562053Y-122366998D01*
X152691671Y-122591501D01*
X152691682Y-122591517D01*
X152849495Y-122797184D01*
X152849501Y-122797191D01*
X153032809Y-122980499D01*
X153032815Y-122980504D01*
X153238492Y-123138325D01*
X153238499Y-123138329D01*
X153463002Y-123267947D01*
X153463018Y-123267955D01*
X153612378Y-123329821D01*
X153702526Y-123367162D01*
X153952943Y-123434261D01*
X154209976Y-123468100D01*
X154209983Y-123468100D01*
X154469219Y-123468100D01*
X154469226Y-123468100D01*
X154726259Y-123434261D01*
X154976676Y-123367162D01*
X155156970Y-123292481D01*
X155216183Y-123267955D01*
X155216186Y-123267953D01*
X155216192Y-123267951D01*
X155440710Y-123138325D01*
X155646387Y-122980504D01*
X155829705Y-122797186D01*
X155987526Y-122591509D01*
X156117152Y-122366991D01*
X156216363Y-122127475D01*
X156283462Y-121877058D01*
X156317301Y-121620025D01*
X156317301Y-121360775D01*
X156283462Y-121103742D01*
X156216363Y-120853325D01*
X156156996Y-120710000D01*
X156117156Y-120613817D01*
X156117148Y-120613801D01*
X155987530Y-120389298D01*
X155987526Y-120389291D01*
X155831995Y-120186598D01*
X155829706Y-120183615D01*
X155829700Y-120183608D01*
X155646392Y-120000300D01*
X155646385Y-120000294D01*
X155440718Y-119842481D01*
X155440716Y-119842479D01*
X155440710Y-119842475D01*
X155440705Y-119842472D01*
X155440702Y-119842470D01*
X155216199Y-119712852D01*
X155216183Y-119712844D01*
X154976674Y-119613637D01*
X154726257Y-119546538D01*
X154469235Y-119512701D01*
X154469232Y-119512700D01*
X154469226Y-119512700D01*
X154209976Y-119512700D01*
X154209970Y-119512700D01*
X154209966Y-119512701D01*
X153952944Y-119546538D01*
X153702527Y-119613637D01*
X153463018Y-119712844D01*
X153463002Y-119712852D01*
X153238499Y-119842470D01*
X153238483Y-119842481D01*
X153032816Y-120000294D01*
X153032809Y-120000300D01*
X152849501Y-120183608D01*
X152849495Y-120183615D01*
X152691682Y-120389282D01*
X152691671Y-120389298D01*
X152562053Y-120613801D01*
X152562045Y-120613817D01*
X152462838Y-120853326D01*
X152395739Y-121103743D01*
X152361902Y-121360765D01*
X152361901Y-121360781D01*
X139170308Y-121360781D01*
X139201061Y-121300426D01*
X139201063Y-121300421D01*
X139240160Y-121223688D01*
X139305248Y-121023364D01*
X139338200Y-120815318D01*
X139338200Y-120604681D01*
X139305248Y-120396635D01*
X139240160Y-120196311D01*
X139144534Y-120008637D01*
X139144526Y-120008624D01*
X139106823Y-119956730D01*
X139106822Y-119956729D01*
X138551711Y-120511840D01*
X138544388Y-120484507D01*
X138467476Y-120351293D01*
X138358707Y-120242524D01*
X138225493Y-120165612D01*
X138198158Y-120158287D01*
X138753269Y-119603177D01*
X138753268Y-119603176D01*
X138701370Y-119565469D01*
X138513688Y-119469839D01*
X138313364Y-119404751D01*
X138105318Y-119371800D01*
X137894682Y-119371800D01*
X137686635Y-119404751D01*
X137486311Y-119469839D01*
X137298633Y-119565467D01*
X137246730Y-119603176D01*
X137801841Y-120158287D01*
X137774507Y-120165612D01*
X137641293Y-120242524D01*
X137532524Y-120351293D01*
X137455612Y-120484507D01*
X137448287Y-120511841D01*
X136893176Y-119956730D01*
X136855467Y-120008633D01*
X136759839Y-120196311D01*
X136694751Y-120396635D01*
X136661800Y-120604681D01*
X136661800Y-120815318D01*
X136694751Y-121023364D01*
X136759839Y-121223688D01*
X136855469Y-121411370D01*
X136893176Y-121463268D01*
X136893177Y-121463269D01*
X137448287Y-120908158D01*
X137455612Y-120935493D01*
X137532524Y-121068707D01*
X137641293Y-121177476D01*
X137774507Y-121254388D01*
X137801841Y-121261712D01*
X137246729Y-121816822D01*
X137246730Y-121816823D01*
X137298624Y-121854526D01*
X137298642Y-121854537D01*
X137327487Y-121869235D01*
X137378282Y-121917209D01*
X137395077Y-121985030D01*
X137372539Y-122051165D01*
X137327488Y-122090203D01*
X137298364Y-122105042D01*
X137127900Y-122228890D01*
X136978890Y-122377900D01*
X136855043Y-122548364D01*
X136759379Y-122736112D01*
X136694262Y-122936519D01*
X136661300Y-123144636D01*
X127500500Y-123144636D01*
X127500500Y-120500672D01*
X127520185Y-120433633D01*
X127572989Y-120387878D01*
X127642147Y-120377934D01*
X127705703Y-120406959D01*
X127722873Y-120425183D01*
X127768394Y-120484507D01*
X127869893Y-120616784D01*
X127869899Y-120616791D01*
X128053207Y-120800099D01*
X128053213Y-120800104D01*
X128258890Y-120957925D01*
X128258897Y-120957929D01*
X128483400Y-121087547D01*
X128483416Y-121087555D01*
X128632776Y-121149421D01*
X128722924Y-121186762D01*
X128973341Y-121253861D01*
X129230374Y-121287700D01*
X129230381Y-121287700D01*
X129489617Y-121287700D01*
X129489624Y-121287700D01*
X129746657Y-121253861D01*
X129997074Y-121186762D01*
X130197502Y-121103742D01*
X130236581Y-121087555D01*
X130236584Y-121087553D01*
X130236590Y-121087551D01*
X130461108Y-120957925D01*
X130666785Y-120800104D01*
X130850103Y-120616786D01*
X130877007Y-120581722D01*
X130921053Y-120524323D01*
X131007917Y-120411118D01*
X131007916Y-120411118D01*
X131007924Y-120411109D01*
X131137550Y-120186591D01*
X131236761Y-119947075D01*
X131303860Y-119696658D01*
X131337699Y-119439625D01*
X131337699Y-119180375D01*
X131303860Y-118923342D01*
X131236761Y-118672925D01*
X131199420Y-118582777D01*
X131137554Y-118433417D01*
X131137546Y-118433401D01*
X131007928Y-118208898D01*
X131007924Y-118208891D01*
X130850103Y-118003214D01*
X130850098Y-118003208D01*
X130666790Y-117819900D01*
X130666783Y-117819894D01*
X130461116Y-117662081D01*
X130461114Y-117662079D01*
X130461108Y-117662075D01*
X130461103Y-117662072D01*
X130461100Y-117662070D01*
X130236597Y-117532452D01*
X130236581Y-117532444D01*
X129997072Y-117433237D01*
X129746655Y-117366138D01*
X129489633Y-117332301D01*
X129489630Y-117332300D01*
X129489624Y-117332300D01*
X129230374Y-117332300D01*
X129230368Y-117332300D01*
X129230364Y-117332301D01*
X128973342Y-117366138D01*
X128722925Y-117433237D01*
X128483416Y-117532444D01*
X128483400Y-117532452D01*
X128258897Y-117662070D01*
X128258881Y-117662081D01*
X128053214Y-117819894D01*
X128053207Y-117819900D01*
X127869899Y-118003208D01*
X127869893Y-118003215D01*
X127722876Y-118194813D01*
X127666448Y-118236016D01*
X127596702Y-118240171D01*
X127535782Y-118205959D01*
X127503029Y-118144242D01*
X127500500Y-118119327D01*
X127500500Y-111874500D01*
X127520185Y-111807461D01*
X127572989Y-111761706D01*
X127624500Y-111750500D01*
X157625500Y-111750500D01*
X157692539Y-111770185D01*
G37*
%TD.AperFunction*%
%TD*%
M02*
