%TF.GenerationSoftware,KiCad,Pcbnew,10.0.1*%
%TF.CreationDate,2026-05-06T11:20:22-04:00*%
%TF.ProjectId,PDM_Board_mini,50444d5f-426f-4617-9264-5f6d696e692e,rev?*%
%TF.SameCoordinates,Original*%
%TF.FileFunction,Legend,Top*%
%TF.FilePolarity,Positive*%
%FSLAX46Y46*%
G04 Gerber Fmt 4.6, Leading zero omitted, Abs format (unit mm)*
G04 Created by KiCad (PCBNEW 10.0.1) date 2026-05-06 11:20:22*
%MOMM*%
%LPD*%
G01*
G04 APERTURE LIST*
%ADD10C,0.150000*%
%ADD11C,0.300000*%
%ADD12C,0.400000*%
%ADD13C,0.125000*%
%ADD14C,0.120000*%
%ADD15C,0.508000*%
%ADD16C,0.152400*%
G04 APERTURE END LIST*
D10*
X177002200Y-166007200D02*
X285002200Y-166007200D01*
X285002200Y-198007200D01*
X177002200Y-198007200D01*
X177002200Y-166007200D01*
X10000000Y-10000000D02*
X287002200Y-10000000D01*
X287002200Y-200007200D01*
X10000000Y-200007200D01*
X10000000Y-10000000D01*
X12000000Y-12000000D02*
X285002200Y-12000000D01*
X285002200Y-198007200D01*
X12000000Y-198007200D01*
X12000000Y-12000000D01*
X60000000Y-12000000D02*
X60000000Y-10000000D01*
X110000000Y-12000000D02*
X110000000Y-10000000D01*
X160000000Y-12000000D02*
X160000000Y-10000000D01*
X210000000Y-12000000D02*
X210000000Y-10000000D01*
X260000000Y-12000000D02*
X260000000Y-10000000D01*
X36089160Y-11593604D02*
X35346303Y-11593604D01*
X35717731Y-11593604D02*
X35717731Y-10293604D01*
X35717731Y-10293604D02*
X35593922Y-10479319D01*
X35593922Y-10479319D02*
X35470112Y-10603128D01*
X35470112Y-10603128D02*
X35346303Y-10665033D01*
X85346303Y-10417414D02*
X85408207Y-10355509D01*
X85408207Y-10355509D02*
X85532017Y-10293604D01*
X85532017Y-10293604D02*
X85841541Y-10293604D01*
X85841541Y-10293604D02*
X85965350Y-10355509D01*
X85965350Y-10355509D02*
X86027255Y-10417414D01*
X86027255Y-10417414D02*
X86089160Y-10541223D01*
X86089160Y-10541223D02*
X86089160Y-10665033D01*
X86089160Y-10665033D02*
X86027255Y-10850747D01*
X86027255Y-10850747D02*
X85284398Y-11593604D01*
X85284398Y-11593604D02*
X86089160Y-11593604D01*
X135284398Y-10293604D02*
X136089160Y-10293604D01*
X136089160Y-10293604D02*
X135655826Y-10788842D01*
X135655826Y-10788842D02*
X135841541Y-10788842D01*
X135841541Y-10788842D02*
X135965350Y-10850747D01*
X135965350Y-10850747D02*
X136027255Y-10912652D01*
X136027255Y-10912652D02*
X136089160Y-11036461D01*
X136089160Y-11036461D02*
X136089160Y-11345985D01*
X136089160Y-11345985D02*
X136027255Y-11469795D01*
X136027255Y-11469795D02*
X135965350Y-11531700D01*
X135965350Y-11531700D02*
X135841541Y-11593604D01*
X135841541Y-11593604D02*
X135470112Y-11593604D01*
X135470112Y-11593604D02*
X135346303Y-11531700D01*
X135346303Y-11531700D02*
X135284398Y-11469795D01*
X185965350Y-10726938D02*
X185965350Y-11593604D01*
X185655826Y-10231700D02*
X185346303Y-11160271D01*
X185346303Y-11160271D02*
X186151064Y-11160271D01*
X236027255Y-10293604D02*
X235408207Y-10293604D01*
X235408207Y-10293604D02*
X235346303Y-10912652D01*
X235346303Y-10912652D02*
X235408207Y-10850747D01*
X235408207Y-10850747D02*
X235532017Y-10788842D01*
X235532017Y-10788842D02*
X235841541Y-10788842D01*
X235841541Y-10788842D02*
X235965350Y-10850747D01*
X235965350Y-10850747D02*
X236027255Y-10912652D01*
X236027255Y-10912652D02*
X236089160Y-11036461D01*
X236089160Y-11036461D02*
X236089160Y-11345985D01*
X236089160Y-11345985D02*
X236027255Y-11469795D01*
X236027255Y-11469795D02*
X235965350Y-11531700D01*
X235965350Y-11531700D02*
X235841541Y-11593604D01*
X235841541Y-11593604D02*
X235532017Y-11593604D01*
X235532017Y-11593604D02*
X235408207Y-11531700D01*
X235408207Y-11531700D02*
X235346303Y-11469795D01*
X285965350Y-10293604D02*
X285717731Y-10293604D01*
X285717731Y-10293604D02*
X285593922Y-10355509D01*
X285593922Y-10355509D02*
X285532017Y-10417414D01*
X285532017Y-10417414D02*
X285408207Y-10603128D01*
X285408207Y-10603128D02*
X285346303Y-10850747D01*
X285346303Y-10850747D02*
X285346303Y-11345985D01*
X285346303Y-11345985D02*
X285408207Y-11469795D01*
X285408207Y-11469795D02*
X285470112Y-11531700D01*
X285470112Y-11531700D02*
X285593922Y-11593604D01*
X285593922Y-11593604D02*
X285841541Y-11593604D01*
X285841541Y-11593604D02*
X285965350Y-11531700D01*
X285965350Y-11531700D02*
X286027255Y-11469795D01*
X286027255Y-11469795D02*
X286089160Y-11345985D01*
X286089160Y-11345985D02*
X286089160Y-11036461D01*
X286089160Y-11036461D02*
X286027255Y-10912652D01*
X286027255Y-10912652D02*
X285965350Y-10850747D01*
X285965350Y-10850747D02*
X285841541Y-10788842D01*
X285841541Y-10788842D02*
X285593922Y-10788842D01*
X285593922Y-10788842D02*
X285470112Y-10850747D01*
X285470112Y-10850747D02*
X285408207Y-10912652D01*
X285408207Y-10912652D02*
X285346303Y-11036461D01*
X60000000Y-198007200D02*
X60000000Y-200007200D01*
X110000000Y-198007200D02*
X110000000Y-200007200D01*
X160000000Y-198007200D02*
X160000000Y-200007200D01*
X210000000Y-198007200D02*
X210000000Y-200007200D01*
X260000000Y-198007200D02*
X260000000Y-200007200D01*
X36089160Y-199600804D02*
X35346303Y-199600804D01*
X35717731Y-199600804D02*
X35717731Y-198300804D01*
X35717731Y-198300804D02*
X35593922Y-198486519D01*
X35593922Y-198486519D02*
X35470112Y-198610328D01*
X35470112Y-198610328D02*
X35346303Y-198672233D01*
X85346303Y-198424614D02*
X85408207Y-198362709D01*
X85408207Y-198362709D02*
X85532017Y-198300804D01*
X85532017Y-198300804D02*
X85841541Y-198300804D01*
X85841541Y-198300804D02*
X85965350Y-198362709D01*
X85965350Y-198362709D02*
X86027255Y-198424614D01*
X86027255Y-198424614D02*
X86089160Y-198548423D01*
X86089160Y-198548423D02*
X86089160Y-198672233D01*
X86089160Y-198672233D02*
X86027255Y-198857947D01*
X86027255Y-198857947D02*
X85284398Y-199600804D01*
X85284398Y-199600804D02*
X86089160Y-199600804D01*
X135284398Y-198300804D02*
X136089160Y-198300804D01*
X136089160Y-198300804D02*
X135655826Y-198796042D01*
X135655826Y-198796042D02*
X135841541Y-198796042D01*
X135841541Y-198796042D02*
X135965350Y-198857947D01*
X135965350Y-198857947D02*
X136027255Y-198919852D01*
X136027255Y-198919852D02*
X136089160Y-199043661D01*
X136089160Y-199043661D02*
X136089160Y-199353185D01*
X136089160Y-199353185D02*
X136027255Y-199476995D01*
X136027255Y-199476995D02*
X135965350Y-199538900D01*
X135965350Y-199538900D02*
X135841541Y-199600804D01*
X135841541Y-199600804D02*
X135470112Y-199600804D01*
X135470112Y-199600804D02*
X135346303Y-199538900D01*
X135346303Y-199538900D02*
X135284398Y-199476995D01*
X185965350Y-198734138D02*
X185965350Y-199600804D01*
X185655826Y-198238900D02*
X185346303Y-199167471D01*
X185346303Y-199167471D02*
X186151064Y-199167471D01*
X236027255Y-198300804D02*
X235408207Y-198300804D01*
X235408207Y-198300804D02*
X235346303Y-198919852D01*
X235346303Y-198919852D02*
X235408207Y-198857947D01*
X235408207Y-198857947D02*
X235532017Y-198796042D01*
X235532017Y-198796042D02*
X235841541Y-198796042D01*
X235841541Y-198796042D02*
X235965350Y-198857947D01*
X235965350Y-198857947D02*
X236027255Y-198919852D01*
X236027255Y-198919852D02*
X236089160Y-199043661D01*
X236089160Y-199043661D02*
X236089160Y-199353185D01*
X236089160Y-199353185D02*
X236027255Y-199476995D01*
X236027255Y-199476995D02*
X235965350Y-199538900D01*
X235965350Y-199538900D02*
X235841541Y-199600804D01*
X235841541Y-199600804D02*
X235532017Y-199600804D01*
X235532017Y-199600804D02*
X235408207Y-199538900D01*
X235408207Y-199538900D02*
X235346303Y-199476995D01*
X285965350Y-198300804D02*
X285717731Y-198300804D01*
X285717731Y-198300804D02*
X285593922Y-198362709D01*
X285593922Y-198362709D02*
X285532017Y-198424614D01*
X285532017Y-198424614D02*
X285408207Y-198610328D01*
X285408207Y-198610328D02*
X285346303Y-198857947D01*
X285346303Y-198857947D02*
X285346303Y-199353185D01*
X285346303Y-199353185D02*
X285408207Y-199476995D01*
X285408207Y-199476995D02*
X285470112Y-199538900D01*
X285470112Y-199538900D02*
X285593922Y-199600804D01*
X285593922Y-199600804D02*
X285841541Y-199600804D01*
X285841541Y-199600804D02*
X285965350Y-199538900D01*
X285965350Y-199538900D02*
X286027255Y-199476995D01*
X286027255Y-199476995D02*
X286089160Y-199353185D01*
X286089160Y-199353185D02*
X286089160Y-199043661D01*
X286089160Y-199043661D02*
X286027255Y-198919852D01*
X286027255Y-198919852D02*
X285965350Y-198857947D01*
X285965350Y-198857947D02*
X285841541Y-198796042D01*
X285841541Y-198796042D02*
X285593922Y-198796042D01*
X285593922Y-198796042D02*
X285470112Y-198857947D01*
X285470112Y-198857947D02*
X285408207Y-198919852D01*
X285408207Y-198919852D02*
X285346303Y-199043661D01*
X10000000Y-60000000D02*
X12000000Y-60000000D01*
X10000000Y-110000000D02*
X12000000Y-110000000D01*
X10000000Y-160000000D02*
X12000000Y-160000000D01*
X10690476Y-35222176D02*
X11309523Y-35222176D01*
X10566666Y-35593604D02*
X10999999Y-34293604D01*
X10999999Y-34293604D02*
X11433333Y-35593604D01*
X11092857Y-84912652D02*
X11278571Y-84974557D01*
X11278571Y-84974557D02*
X11340476Y-85036461D01*
X11340476Y-85036461D02*
X11402380Y-85160271D01*
X11402380Y-85160271D02*
X11402380Y-85345985D01*
X11402380Y-85345985D02*
X11340476Y-85469795D01*
X11340476Y-85469795D02*
X11278571Y-85531700D01*
X11278571Y-85531700D02*
X11154761Y-85593604D01*
X11154761Y-85593604D02*
X10659523Y-85593604D01*
X10659523Y-85593604D02*
X10659523Y-84293604D01*
X10659523Y-84293604D02*
X11092857Y-84293604D01*
X11092857Y-84293604D02*
X11216666Y-84355509D01*
X11216666Y-84355509D02*
X11278571Y-84417414D01*
X11278571Y-84417414D02*
X11340476Y-84541223D01*
X11340476Y-84541223D02*
X11340476Y-84665033D01*
X11340476Y-84665033D02*
X11278571Y-84788842D01*
X11278571Y-84788842D02*
X11216666Y-84850747D01*
X11216666Y-84850747D02*
X11092857Y-84912652D01*
X11092857Y-84912652D02*
X10659523Y-84912652D01*
X11402380Y-135469795D02*
X11340476Y-135531700D01*
X11340476Y-135531700D02*
X11154761Y-135593604D01*
X11154761Y-135593604D02*
X11030952Y-135593604D01*
X11030952Y-135593604D02*
X10845238Y-135531700D01*
X10845238Y-135531700D02*
X10721428Y-135407890D01*
X10721428Y-135407890D02*
X10659523Y-135284080D01*
X10659523Y-135284080D02*
X10597619Y-135036461D01*
X10597619Y-135036461D02*
X10597619Y-134850747D01*
X10597619Y-134850747D02*
X10659523Y-134603128D01*
X10659523Y-134603128D02*
X10721428Y-134479319D01*
X10721428Y-134479319D02*
X10845238Y-134355509D01*
X10845238Y-134355509D02*
X11030952Y-134293604D01*
X11030952Y-134293604D02*
X11154761Y-134293604D01*
X11154761Y-134293604D02*
X11340476Y-134355509D01*
X11340476Y-134355509D02*
X11402380Y-134417414D01*
X10659523Y-185593604D02*
X10659523Y-184293604D01*
X10659523Y-184293604D02*
X10969047Y-184293604D01*
X10969047Y-184293604D02*
X11154761Y-184355509D01*
X11154761Y-184355509D02*
X11278571Y-184479319D01*
X11278571Y-184479319D02*
X11340476Y-184603128D01*
X11340476Y-184603128D02*
X11402380Y-184850747D01*
X11402380Y-184850747D02*
X11402380Y-185036461D01*
X11402380Y-185036461D02*
X11340476Y-185284080D01*
X11340476Y-185284080D02*
X11278571Y-185407890D01*
X11278571Y-185407890D02*
X11154761Y-185531700D01*
X11154761Y-185531700D02*
X10969047Y-185593604D01*
X10969047Y-185593604D02*
X10659523Y-185593604D01*
X287002200Y-60000000D02*
X285002200Y-60000000D01*
X287002200Y-110000000D02*
X285002200Y-110000000D01*
X287002200Y-160000000D02*
X285002200Y-160000000D01*
X285692676Y-35222176D02*
X286311723Y-35222176D01*
X285568866Y-35593604D02*
X286002199Y-34293604D01*
X286002199Y-34293604D02*
X286435533Y-35593604D01*
X286095057Y-84912652D02*
X286280771Y-84974557D01*
X286280771Y-84974557D02*
X286342676Y-85036461D01*
X286342676Y-85036461D02*
X286404580Y-85160271D01*
X286404580Y-85160271D02*
X286404580Y-85345985D01*
X286404580Y-85345985D02*
X286342676Y-85469795D01*
X286342676Y-85469795D02*
X286280771Y-85531700D01*
X286280771Y-85531700D02*
X286156961Y-85593604D01*
X286156961Y-85593604D02*
X285661723Y-85593604D01*
X285661723Y-85593604D02*
X285661723Y-84293604D01*
X285661723Y-84293604D02*
X286095057Y-84293604D01*
X286095057Y-84293604D02*
X286218866Y-84355509D01*
X286218866Y-84355509D02*
X286280771Y-84417414D01*
X286280771Y-84417414D02*
X286342676Y-84541223D01*
X286342676Y-84541223D02*
X286342676Y-84665033D01*
X286342676Y-84665033D02*
X286280771Y-84788842D01*
X286280771Y-84788842D02*
X286218866Y-84850747D01*
X286218866Y-84850747D02*
X286095057Y-84912652D01*
X286095057Y-84912652D02*
X285661723Y-84912652D01*
X286404580Y-135469795D02*
X286342676Y-135531700D01*
X286342676Y-135531700D02*
X286156961Y-135593604D01*
X286156961Y-135593604D02*
X286033152Y-135593604D01*
X286033152Y-135593604D02*
X285847438Y-135531700D01*
X285847438Y-135531700D02*
X285723628Y-135407890D01*
X285723628Y-135407890D02*
X285661723Y-135284080D01*
X285661723Y-135284080D02*
X285599819Y-135036461D01*
X285599819Y-135036461D02*
X285599819Y-134850747D01*
X285599819Y-134850747D02*
X285661723Y-134603128D01*
X285661723Y-134603128D02*
X285723628Y-134479319D01*
X285723628Y-134479319D02*
X285847438Y-134355509D01*
X285847438Y-134355509D02*
X286033152Y-134293604D01*
X286033152Y-134293604D02*
X286156961Y-134293604D01*
X286156961Y-134293604D02*
X286342676Y-134355509D01*
X286342676Y-134355509D02*
X286404580Y-134417414D01*
X285661723Y-185593604D02*
X285661723Y-184293604D01*
X285661723Y-184293604D02*
X285971247Y-184293604D01*
X285971247Y-184293604D02*
X286156961Y-184355509D01*
X286156961Y-184355509D02*
X286280771Y-184479319D01*
X286280771Y-184479319D02*
X286342676Y-184603128D01*
X286342676Y-184603128D02*
X286404580Y-184850747D01*
X286404580Y-184850747D02*
X286404580Y-185036461D01*
X286404580Y-185036461D02*
X286342676Y-185284080D01*
X286342676Y-185284080D02*
X286280771Y-185407890D01*
X286280771Y-185407890D02*
X286156961Y-185531700D01*
X286156961Y-185531700D02*
X285971247Y-185593604D01*
X285971247Y-185593604D02*
X285661723Y-185593604D01*
X200458026Y-193793328D02*
X200458026Y-192293328D01*
X200458026Y-192293328D02*
X200815169Y-192293328D01*
X200815169Y-192293328D02*
X201029455Y-192364757D01*
X201029455Y-192364757D02*
X201172312Y-192507614D01*
X201172312Y-192507614D02*
X201243741Y-192650471D01*
X201243741Y-192650471D02*
X201315169Y-192936185D01*
X201315169Y-192936185D02*
X201315169Y-193150471D01*
X201315169Y-193150471D02*
X201243741Y-193436185D01*
X201243741Y-193436185D02*
X201172312Y-193579042D01*
X201172312Y-193579042D02*
X201029455Y-193721900D01*
X201029455Y-193721900D02*
X200815169Y-193793328D01*
X200815169Y-193793328D02*
X200458026Y-193793328D01*
X202600884Y-193793328D02*
X202600884Y-193007614D01*
X202600884Y-193007614D02*
X202529455Y-192864757D01*
X202529455Y-192864757D02*
X202386598Y-192793328D01*
X202386598Y-192793328D02*
X202100884Y-192793328D01*
X202100884Y-192793328D02*
X201958026Y-192864757D01*
X202600884Y-193721900D02*
X202458026Y-193793328D01*
X202458026Y-193793328D02*
X202100884Y-193793328D01*
X202100884Y-193793328D02*
X201958026Y-193721900D01*
X201958026Y-193721900D02*
X201886598Y-193579042D01*
X201886598Y-193579042D02*
X201886598Y-193436185D01*
X201886598Y-193436185D02*
X201958026Y-193293328D01*
X201958026Y-193293328D02*
X202100884Y-193221900D01*
X202100884Y-193221900D02*
X202458026Y-193221900D01*
X202458026Y-193221900D02*
X202600884Y-193150471D01*
X203100884Y-192793328D02*
X203672312Y-192793328D01*
X203315169Y-192293328D02*
X203315169Y-193579042D01*
X203315169Y-193579042D02*
X203386598Y-193721900D01*
X203386598Y-193721900D02*
X203529455Y-193793328D01*
X203529455Y-193793328D02*
X203672312Y-193793328D01*
X204743741Y-193721900D02*
X204600884Y-193793328D01*
X204600884Y-193793328D02*
X204315170Y-193793328D01*
X204315170Y-193793328D02*
X204172312Y-193721900D01*
X204172312Y-193721900D02*
X204100884Y-193579042D01*
X204100884Y-193579042D02*
X204100884Y-193007614D01*
X204100884Y-193007614D02*
X204172312Y-192864757D01*
X204172312Y-192864757D02*
X204315170Y-192793328D01*
X204315170Y-192793328D02*
X204600884Y-192793328D01*
X204600884Y-192793328D02*
X204743741Y-192864757D01*
X204743741Y-192864757D02*
X204815170Y-193007614D01*
X204815170Y-193007614D02*
X204815170Y-193150471D01*
X204815170Y-193150471D02*
X204100884Y-193293328D01*
X205458026Y-193650471D02*
X205529455Y-193721900D01*
X205529455Y-193721900D02*
X205458026Y-193793328D01*
X205458026Y-193793328D02*
X205386598Y-193721900D01*
X205386598Y-193721900D02*
X205458026Y-193650471D01*
X205458026Y-193650471D02*
X205458026Y-193793328D01*
X205458026Y-192864757D02*
X205529455Y-192936185D01*
X205529455Y-192936185D02*
X205458026Y-193007614D01*
X205458026Y-193007614D02*
X205386598Y-192936185D01*
X205386598Y-192936185D02*
X205458026Y-192864757D01*
X205458026Y-192864757D02*
X205458026Y-193007614D01*
X177002200Y-194507200D02*
X285002200Y-194507200D01*
X178458026Y-196593328D02*
X178458026Y-195093328D01*
X179315169Y-196593328D02*
X178672312Y-195736185D01*
X179315169Y-195093328D02*
X178458026Y-195950471D01*
X179958026Y-196593328D02*
X179958026Y-195593328D01*
X179958026Y-195093328D02*
X179886598Y-195164757D01*
X179886598Y-195164757D02*
X179958026Y-195236185D01*
X179958026Y-195236185D02*
X180029455Y-195164757D01*
X180029455Y-195164757D02*
X179958026Y-195093328D01*
X179958026Y-195093328D02*
X179958026Y-195236185D01*
X181529455Y-196450471D02*
X181458027Y-196521900D01*
X181458027Y-196521900D02*
X181243741Y-196593328D01*
X181243741Y-196593328D02*
X181100884Y-196593328D01*
X181100884Y-196593328D02*
X180886598Y-196521900D01*
X180886598Y-196521900D02*
X180743741Y-196379042D01*
X180743741Y-196379042D02*
X180672312Y-196236185D01*
X180672312Y-196236185D02*
X180600884Y-195950471D01*
X180600884Y-195950471D02*
X180600884Y-195736185D01*
X180600884Y-195736185D02*
X180672312Y-195450471D01*
X180672312Y-195450471D02*
X180743741Y-195307614D01*
X180743741Y-195307614D02*
X180886598Y-195164757D01*
X180886598Y-195164757D02*
X181100884Y-195093328D01*
X181100884Y-195093328D02*
X181243741Y-195093328D01*
X181243741Y-195093328D02*
X181458027Y-195164757D01*
X181458027Y-195164757D02*
X181529455Y-195236185D01*
X182815170Y-196593328D02*
X182815170Y-195807614D01*
X182815170Y-195807614D02*
X182743741Y-195664757D01*
X182743741Y-195664757D02*
X182600884Y-195593328D01*
X182600884Y-195593328D02*
X182315170Y-195593328D01*
X182315170Y-195593328D02*
X182172312Y-195664757D01*
X182815170Y-196521900D02*
X182672312Y-196593328D01*
X182672312Y-196593328D02*
X182315170Y-196593328D01*
X182315170Y-196593328D02*
X182172312Y-196521900D01*
X182172312Y-196521900D02*
X182100884Y-196379042D01*
X182100884Y-196379042D02*
X182100884Y-196236185D01*
X182100884Y-196236185D02*
X182172312Y-196093328D01*
X182172312Y-196093328D02*
X182315170Y-196021900D01*
X182315170Y-196021900D02*
X182672312Y-196021900D01*
X182672312Y-196021900D02*
X182815170Y-195950471D01*
X184172313Y-196593328D02*
X184172313Y-195093328D01*
X184172313Y-196521900D02*
X184029455Y-196593328D01*
X184029455Y-196593328D02*
X183743741Y-196593328D01*
X183743741Y-196593328D02*
X183600884Y-196521900D01*
X183600884Y-196521900D02*
X183529455Y-196450471D01*
X183529455Y-196450471D02*
X183458027Y-196307614D01*
X183458027Y-196307614D02*
X183458027Y-195879042D01*
X183458027Y-195879042D02*
X183529455Y-195736185D01*
X183529455Y-195736185D02*
X183600884Y-195664757D01*
X183600884Y-195664757D02*
X183743741Y-195593328D01*
X183743741Y-195593328D02*
X184029455Y-195593328D01*
X184029455Y-195593328D02*
X184172313Y-195664757D01*
X186029455Y-195807614D02*
X186529455Y-195807614D01*
X186743741Y-196593328D02*
X186029455Y-196593328D01*
X186029455Y-196593328D02*
X186029455Y-195093328D01*
X186029455Y-195093328D02*
X186743741Y-195093328D01*
X187386598Y-196450471D02*
X187458027Y-196521900D01*
X187458027Y-196521900D02*
X187386598Y-196593328D01*
X187386598Y-196593328D02*
X187315170Y-196521900D01*
X187315170Y-196521900D02*
X187386598Y-196450471D01*
X187386598Y-196450471D02*
X187386598Y-196593328D01*
X188100884Y-196593328D02*
X188100884Y-195093328D01*
X188100884Y-195093328D02*
X188458027Y-195093328D01*
X188458027Y-195093328D02*
X188672313Y-195164757D01*
X188672313Y-195164757D02*
X188815170Y-195307614D01*
X188815170Y-195307614D02*
X188886599Y-195450471D01*
X188886599Y-195450471D02*
X188958027Y-195736185D01*
X188958027Y-195736185D02*
X188958027Y-195950471D01*
X188958027Y-195950471D02*
X188886599Y-196236185D01*
X188886599Y-196236185D02*
X188815170Y-196379042D01*
X188815170Y-196379042D02*
X188672313Y-196521900D01*
X188672313Y-196521900D02*
X188458027Y-196593328D01*
X188458027Y-196593328D02*
X188100884Y-196593328D01*
X189600884Y-196450471D02*
X189672313Y-196521900D01*
X189672313Y-196521900D02*
X189600884Y-196593328D01*
X189600884Y-196593328D02*
X189529456Y-196521900D01*
X189529456Y-196521900D02*
X189600884Y-196450471D01*
X189600884Y-196450471D02*
X189600884Y-196593328D01*
X190243742Y-196164757D02*
X190958028Y-196164757D01*
X190100885Y-196593328D02*
X190600885Y-195093328D01*
X190600885Y-195093328D02*
X191100885Y-196593328D01*
X191600884Y-196450471D02*
X191672313Y-196521900D01*
X191672313Y-196521900D02*
X191600884Y-196593328D01*
X191600884Y-196593328D02*
X191529456Y-196521900D01*
X191529456Y-196521900D02*
X191600884Y-196450471D01*
X191600884Y-196450471D02*
X191600884Y-196593328D01*
X194243742Y-196593328D02*
X193386599Y-196593328D01*
X193815170Y-196593328D02*
X193815170Y-195093328D01*
X193815170Y-195093328D02*
X193672313Y-195307614D01*
X193672313Y-195307614D02*
X193529456Y-195450471D01*
X193529456Y-195450471D02*
X193386599Y-195521900D01*
X195172313Y-195093328D02*
X195315170Y-195093328D01*
X195315170Y-195093328D02*
X195458027Y-195164757D01*
X195458027Y-195164757D02*
X195529456Y-195236185D01*
X195529456Y-195236185D02*
X195600884Y-195379042D01*
X195600884Y-195379042D02*
X195672313Y-195664757D01*
X195672313Y-195664757D02*
X195672313Y-196021900D01*
X195672313Y-196021900D02*
X195600884Y-196307614D01*
X195600884Y-196307614D02*
X195529456Y-196450471D01*
X195529456Y-196450471D02*
X195458027Y-196521900D01*
X195458027Y-196521900D02*
X195315170Y-196593328D01*
X195315170Y-196593328D02*
X195172313Y-196593328D01*
X195172313Y-196593328D02*
X195029456Y-196521900D01*
X195029456Y-196521900D02*
X194958027Y-196450471D01*
X194958027Y-196450471D02*
X194886598Y-196307614D01*
X194886598Y-196307614D02*
X194815170Y-196021900D01*
X194815170Y-196021900D02*
X194815170Y-195664757D01*
X194815170Y-195664757D02*
X194886598Y-195379042D01*
X194886598Y-195379042D02*
X194958027Y-195236185D01*
X194958027Y-195236185D02*
X195029456Y-195164757D01*
X195029456Y-195164757D02*
X195172313Y-195093328D01*
X196315169Y-196450471D02*
X196386598Y-196521900D01*
X196386598Y-196521900D02*
X196315169Y-196593328D01*
X196315169Y-196593328D02*
X196243741Y-196521900D01*
X196243741Y-196521900D02*
X196315169Y-196450471D01*
X196315169Y-196450471D02*
X196315169Y-196593328D01*
X197315170Y-195093328D02*
X197458027Y-195093328D01*
X197458027Y-195093328D02*
X197600884Y-195164757D01*
X197600884Y-195164757D02*
X197672313Y-195236185D01*
X197672313Y-195236185D02*
X197743741Y-195379042D01*
X197743741Y-195379042D02*
X197815170Y-195664757D01*
X197815170Y-195664757D02*
X197815170Y-196021900D01*
X197815170Y-196021900D02*
X197743741Y-196307614D01*
X197743741Y-196307614D02*
X197672313Y-196450471D01*
X197672313Y-196450471D02*
X197600884Y-196521900D01*
X197600884Y-196521900D02*
X197458027Y-196593328D01*
X197458027Y-196593328D02*
X197315170Y-196593328D01*
X197315170Y-196593328D02*
X197172313Y-196521900D01*
X197172313Y-196521900D02*
X197100884Y-196450471D01*
X197100884Y-196450471D02*
X197029455Y-196307614D01*
X197029455Y-196307614D02*
X196958027Y-196021900D01*
X196958027Y-196021900D02*
X196958027Y-195664757D01*
X196958027Y-195664757D02*
X197029455Y-195379042D01*
X197029455Y-195379042D02*
X197100884Y-195236185D01*
X197100884Y-195236185D02*
X197172313Y-195164757D01*
X197172313Y-195164757D02*
X197315170Y-195093328D01*
X198458026Y-196450471D02*
X198529455Y-196521900D01*
X198529455Y-196521900D02*
X198458026Y-196593328D01*
X198458026Y-196593328D02*
X198386598Y-196521900D01*
X198386598Y-196521900D02*
X198458026Y-196450471D01*
X198458026Y-196450471D02*
X198458026Y-196593328D01*
X199958027Y-196593328D02*
X199100884Y-196593328D01*
X199529455Y-196593328D02*
X199529455Y-195093328D01*
X199529455Y-195093328D02*
X199386598Y-195307614D01*
X199386598Y-195307614D02*
X199243741Y-195450471D01*
X199243741Y-195450471D02*
X199100884Y-195521900D01*
X177002200Y-191507200D02*
X285002200Y-191507200D01*
D11*
X264413853Y-193785528D02*
X263913853Y-193071242D01*
X263556710Y-193785528D02*
X263556710Y-192285528D01*
X263556710Y-192285528D02*
X264128139Y-192285528D01*
X264128139Y-192285528D02*
X264270996Y-192356957D01*
X264270996Y-192356957D02*
X264342425Y-192428385D01*
X264342425Y-192428385D02*
X264413853Y-192571242D01*
X264413853Y-192571242D02*
X264413853Y-192785528D01*
X264413853Y-192785528D02*
X264342425Y-192928385D01*
X264342425Y-192928385D02*
X264270996Y-192999814D01*
X264270996Y-192999814D02*
X264128139Y-193071242D01*
X264128139Y-193071242D02*
X263556710Y-193071242D01*
X265628139Y-193714100D02*
X265485282Y-193785528D01*
X265485282Y-193785528D02*
X265199568Y-193785528D01*
X265199568Y-193785528D02*
X265056710Y-193714100D01*
X265056710Y-193714100D02*
X264985282Y-193571242D01*
X264985282Y-193571242D02*
X264985282Y-192999814D01*
X264985282Y-192999814D02*
X265056710Y-192856957D01*
X265056710Y-192856957D02*
X265199568Y-192785528D01*
X265199568Y-192785528D02*
X265485282Y-192785528D01*
X265485282Y-192785528D02*
X265628139Y-192856957D01*
X265628139Y-192856957D02*
X265699568Y-192999814D01*
X265699568Y-192999814D02*
X265699568Y-193142671D01*
X265699568Y-193142671D02*
X264985282Y-193285528D01*
X266199567Y-192785528D02*
X266556710Y-193785528D01*
X266556710Y-193785528D02*
X266913853Y-192785528D01*
X267485281Y-193642671D02*
X267556710Y-193714100D01*
X267556710Y-193714100D02*
X267485281Y-193785528D01*
X267485281Y-193785528D02*
X267413853Y-193714100D01*
X267413853Y-193714100D02*
X267485281Y-193642671D01*
X267485281Y-193642671D02*
X267485281Y-193785528D01*
X267485281Y-192856957D02*
X267556710Y-192928385D01*
X267556710Y-192928385D02*
X267485281Y-192999814D01*
X267485281Y-192999814D02*
X267413853Y-192928385D01*
X267413853Y-192928385D02*
X267485281Y-192856957D01*
X267485281Y-192856957D02*
X267485281Y-192999814D01*
D10*
X178386598Y-193721900D02*
X178600884Y-193793328D01*
X178600884Y-193793328D02*
X178958026Y-193793328D01*
X178958026Y-193793328D02*
X179100884Y-193721900D01*
X179100884Y-193721900D02*
X179172312Y-193650471D01*
X179172312Y-193650471D02*
X179243741Y-193507614D01*
X179243741Y-193507614D02*
X179243741Y-193364757D01*
X179243741Y-193364757D02*
X179172312Y-193221900D01*
X179172312Y-193221900D02*
X179100884Y-193150471D01*
X179100884Y-193150471D02*
X178958026Y-193079042D01*
X178958026Y-193079042D02*
X178672312Y-193007614D01*
X178672312Y-193007614D02*
X178529455Y-192936185D01*
X178529455Y-192936185D02*
X178458026Y-192864757D01*
X178458026Y-192864757D02*
X178386598Y-192721900D01*
X178386598Y-192721900D02*
X178386598Y-192579042D01*
X178386598Y-192579042D02*
X178458026Y-192436185D01*
X178458026Y-192436185D02*
X178529455Y-192364757D01*
X178529455Y-192364757D02*
X178672312Y-192293328D01*
X178672312Y-192293328D02*
X179029455Y-192293328D01*
X179029455Y-192293328D02*
X179243741Y-192364757D01*
X179886597Y-193793328D02*
X179886597Y-192793328D01*
X179886597Y-192293328D02*
X179815169Y-192364757D01*
X179815169Y-192364757D02*
X179886597Y-192436185D01*
X179886597Y-192436185D02*
X179958026Y-192364757D01*
X179958026Y-192364757D02*
X179886597Y-192293328D01*
X179886597Y-192293328D02*
X179886597Y-192436185D01*
X180458026Y-192793328D02*
X181243741Y-192793328D01*
X181243741Y-192793328D02*
X180458026Y-193793328D01*
X180458026Y-193793328D02*
X181243741Y-193793328D01*
X182386598Y-193721900D02*
X182243741Y-193793328D01*
X182243741Y-193793328D02*
X181958027Y-193793328D01*
X181958027Y-193793328D02*
X181815169Y-193721900D01*
X181815169Y-193721900D02*
X181743741Y-193579042D01*
X181743741Y-193579042D02*
X181743741Y-193007614D01*
X181743741Y-193007614D02*
X181815169Y-192864757D01*
X181815169Y-192864757D02*
X181958027Y-192793328D01*
X181958027Y-192793328D02*
X182243741Y-192793328D01*
X182243741Y-192793328D02*
X182386598Y-192864757D01*
X182386598Y-192864757D02*
X182458027Y-193007614D01*
X182458027Y-193007614D02*
X182458027Y-193150471D01*
X182458027Y-193150471D02*
X181743741Y-193293328D01*
X183100883Y-193650471D02*
X183172312Y-193721900D01*
X183172312Y-193721900D02*
X183100883Y-193793328D01*
X183100883Y-193793328D02*
X183029455Y-193721900D01*
X183029455Y-193721900D02*
X183100883Y-193650471D01*
X183100883Y-193650471D02*
X183100883Y-193793328D01*
X183100883Y-192864757D02*
X183172312Y-192936185D01*
X183172312Y-192936185D02*
X183100883Y-193007614D01*
X183100883Y-193007614D02*
X183029455Y-192936185D01*
X183029455Y-192936185D02*
X183100883Y-192864757D01*
X183100883Y-192864757D02*
X183100883Y-193007614D01*
X184886598Y-193364757D02*
X185600884Y-193364757D01*
X184743741Y-193793328D02*
X185243741Y-192293328D01*
X185243741Y-192293328D02*
X185743741Y-193793328D01*
X186886598Y-192793328D02*
X186886598Y-193793328D01*
X186529455Y-192221900D02*
X186172312Y-193293328D01*
X186172312Y-193293328D02*
X187100883Y-193293328D01*
X263458026Y-196593328D02*
X263458026Y-195093328D01*
X264815170Y-196593328D02*
X264815170Y-195093328D01*
X264815170Y-196521900D02*
X264672312Y-196593328D01*
X264672312Y-196593328D02*
X264386598Y-196593328D01*
X264386598Y-196593328D02*
X264243741Y-196521900D01*
X264243741Y-196521900D02*
X264172312Y-196450471D01*
X264172312Y-196450471D02*
X264100884Y-196307614D01*
X264100884Y-196307614D02*
X264100884Y-195879042D01*
X264100884Y-195879042D02*
X264172312Y-195736185D01*
X264172312Y-195736185D02*
X264243741Y-195664757D01*
X264243741Y-195664757D02*
X264386598Y-195593328D01*
X264386598Y-195593328D02*
X264672312Y-195593328D01*
X264672312Y-195593328D02*
X264815170Y-195664757D01*
X265529455Y-196450471D02*
X265600884Y-196521900D01*
X265600884Y-196521900D02*
X265529455Y-196593328D01*
X265529455Y-196593328D02*
X265458027Y-196521900D01*
X265458027Y-196521900D02*
X265529455Y-196450471D01*
X265529455Y-196450471D02*
X265529455Y-196593328D01*
X265529455Y-195664757D02*
X265600884Y-195736185D01*
X265600884Y-195736185D02*
X265529455Y-195807614D01*
X265529455Y-195807614D02*
X265458027Y-195736185D01*
X265458027Y-195736185D02*
X265529455Y-195664757D01*
X265529455Y-195664757D02*
X265529455Y-195807614D01*
X267243741Y-195093328D02*
X268243741Y-195093328D01*
X268243741Y-195093328D02*
X267600884Y-196593328D01*
X269886598Y-195021900D02*
X268600884Y-196950471D01*
X271172313Y-196593328D02*
X270315170Y-196593328D01*
X270743741Y-196593328D02*
X270743741Y-195093328D01*
X270743741Y-195093328D02*
X270600884Y-195307614D01*
X270600884Y-195307614D02*
X270458027Y-195450471D01*
X270458027Y-195450471D02*
X270315170Y-195521900D01*
X272600884Y-196593328D02*
X271743741Y-196593328D01*
X272172312Y-196593328D02*
X272172312Y-195093328D01*
X272172312Y-195093328D02*
X272029455Y-195307614D01*
X272029455Y-195307614D02*
X271886598Y-195450471D01*
X271886598Y-195450471D02*
X271743741Y-195521900D01*
X177002200Y-187507200D02*
X285002200Y-187507200D01*
D12*
X178693928Y-188211638D02*
X179836785Y-188211638D01*
X179015357Y-190211638D02*
X179265357Y-188211638D01*
X180253452Y-190211638D02*
X180420119Y-188878304D01*
X180503452Y-188211638D02*
X180396309Y-188306876D01*
X180396309Y-188306876D02*
X180479643Y-188402114D01*
X180479643Y-188402114D02*
X180586786Y-188306876D01*
X180586786Y-188306876D02*
X180503452Y-188211638D01*
X180503452Y-188211638D02*
X180479643Y-188402114D01*
X181086786Y-188878304D02*
X181848690Y-188878304D01*
X181455833Y-188211638D02*
X181241548Y-189925923D01*
X181241548Y-189925923D02*
X181312976Y-190116400D01*
X181312976Y-190116400D02*
X181491548Y-190211638D01*
X181491548Y-190211638D02*
X181682024Y-190211638D01*
X182634405Y-190211638D02*
X182455833Y-190116400D01*
X182455833Y-190116400D02*
X182384405Y-189925923D01*
X182384405Y-189925923D02*
X182598690Y-188211638D01*
X184170119Y-190116400D02*
X183967738Y-190211638D01*
X183967738Y-190211638D02*
X183586785Y-190211638D01*
X183586785Y-190211638D02*
X183408214Y-190116400D01*
X183408214Y-190116400D02*
X183336785Y-189925923D01*
X183336785Y-189925923D02*
X183432024Y-189164019D01*
X183432024Y-189164019D02*
X183551071Y-188973542D01*
X183551071Y-188973542D02*
X183753452Y-188878304D01*
X183753452Y-188878304D02*
X184134404Y-188878304D01*
X184134404Y-188878304D02*
X184312976Y-188973542D01*
X184312976Y-188973542D02*
X184384404Y-189164019D01*
X184384404Y-189164019D02*
X184360595Y-189354495D01*
X184360595Y-189354495D02*
X183384404Y-189544971D01*
X185134405Y-190021161D02*
X185217738Y-190116400D01*
X185217738Y-190116400D02*
X185110595Y-190211638D01*
X185110595Y-190211638D02*
X185027262Y-190116400D01*
X185027262Y-190116400D02*
X185134405Y-190021161D01*
X185134405Y-190021161D02*
X185110595Y-190211638D01*
X185265357Y-188973542D02*
X185348690Y-189068780D01*
X185348690Y-189068780D02*
X185241548Y-189164019D01*
X185241548Y-189164019D02*
X185158214Y-189068780D01*
X185158214Y-189068780D02*
X185265357Y-188973542D01*
X185265357Y-188973542D02*
X185241548Y-189164019D01*
D10*
X178958026Y-185607614D02*
X178458026Y-185607614D01*
X178458026Y-186393328D02*
X178458026Y-184893328D01*
X178458026Y-184893328D02*
X179172312Y-184893328D01*
X179743740Y-186393328D02*
X179743740Y-185393328D01*
X179743740Y-184893328D02*
X179672312Y-184964757D01*
X179672312Y-184964757D02*
X179743740Y-185036185D01*
X179743740Y-185036185D02*
X179815169Y-184964757D01*
X179815169Y-184964757D02*
X179743740Y-184893328D01*
X179743740Y-184893328D02*
X179743740Y-185036185D01*
X180672312Y-186393328D02*
X180529455Y-186321900D01*
X180529455Y-186321900D02*
X180458026Y-186179042D01*
X180458026Y-186179042D02*
X180458026Y-184893328D01*
X181815169Y-186321900D02*
X181672312Y-186393328D01*
X181672312Y-186393328D02*
X181386598Y-186393328D01*
X181386598Y-186393328D02*
X181243740Y-186321900D01*
X181243740Y-186321900D02*
X181172312Y-186179042D01*
X181172312Y-186179042D02*
X181172312Y-185607614D01*
X181172312Y-185607614D02*
X181243740Y-185464757D01*
X181243740Y-185464757D02*
X181386598Y-185393328D01*
X181386598Y-185393328D02*
X181672312Y-185393328D01*
X181672312Y-185393328D02*
X181815169Y-185464757D01*
X181815169Y-185464757D02*
X181886598Y-185607614D01*
X181886598Y-185607614D02*
X181886598Y-185750471D01*
X181886598Y-185750471D02*
X181172312Y-185893328D01*
X182529454Y-186250471D02*
X182600883Y-186321900D01*
X182600883Y-186321900D02*
X182529454Y-186393328D01*
X182529454Y-186393328D02*
X182458026Y-186321900D01*
X182458026Y-186321900D02*
X182529454Y-186250471D01*
X182529454Y-186250471D02*
X182529454Y-186393328D01*
X182529454Y-185464757D02*
X182600883Y-185536185D01*
X182600883Y-185536185D02*
X182529454Y-185607614D01*
X182529454Y-185607614D02*
X182458026Y-185536185D01*
X182458026Y-185536185D02*
X182529454Y-185464757D01*
X182529454Y-185464757D02*
X182529454Y-185607614D01*
X184386597Y-186393328D02*
X184386597Y-184893328D01*
X184386597Y-184893328D02*
X184958026Y-184893328D01*
X184958026Y-184893328D02*
X185100883Y-184964757D01*
X185100883Y-184964757D02*
X185172312Y-185036185D01*
X185172312Y-185036185D02*
X185243740Y-185179042D01*
X185243740Y-185179042D02*
X185243740Y-185393328D01*
X185243740Y-185393328D02*
X185172312Y-185536185D01*
X185172312Y-185536185D02*
X185100883Y-185607614D01*
X185100883Y-185607614D02*
X184958026Y-185679042D01*
X184958026Y-185679042D02*
X184386597Y-185679042D01*
X185886597Y-186393328D02*
X185886597Y-184893328D01*
X185886597Y-184893328D02*
X186243740Y-184893328D01*
X186243740Y-184893328D02*
X186458026Y-184964757D01*
X186458026Y-184964757D02*
X186600883Y-185107614D01*
X186600883Y-185107614D02*
X186672312Y-185250471D01*
X186672312Y-185250471D02*
X186743740Y-185536185D01*
X186743740Y-185536185D02*
X186743740Y-185750471D01*
X186743740Y-185750471D02*
X186672312Y-186036185D01*
X186672312Y-186036185D02*
X186600883Y-186179042D01*
X186600883Y-186179042D02*
X186458026Y-186321900D01*
X186458026Y-186321900D02*
X186243740Y-186393328D01*
X186243740Y-186393328D02*
X185886597Y-186393328D01*
X187386597Y-186393328D02*
X187386597Y-184893328D01*
X187386597Y-184893328D02*
X187886597Y-185964757D01*
X187886597Y-185964757D02*
X188386597Y-184893328D01*
X188386597Y-184893328D02*
X188386597Y-186393328D01*
X188743741Y-186536185D02*
X189886598Y-186536185D01*
X190743740Y-185607614D02*
X190958026Y-185679042D01*
X190958026Y-185679042D02*
X191029455Y-185750471D01*
X191029455Y-185750471D02*
X191100883Y-185893328D01*
X191100883Y-185893328D02*
X191100883Y-186107614D01*
X191100883Y-186107614D02*
X191029455Y-186250471D01*
X191029455Y-186250471D02*
X190958026Y-186321900D01*
X190958026Y-186321900D02*
X190815169Y-186393328D01*
X190815169Y-186393328D02*
X190243740Y-186393328D01*
X190243740Y-186393328D02*
X190243740Y-184893328D01*
X190243740Y-184893328D02*
X190743740Y-184893328D01*
X190743740Y-184893328D02*
X190886598Y-184964757D01*
X190886598Y-184964757D02*
X190958026Y-185036185D01*
X190958026Y-185036185D02*
X191029455Y-185179042D01*
X191029455Y-185179042D02*
X191029455Y-185321900D01*
X191029455Y-185321900D02*
X190958026Y-185464757D01*
X190958026Y-185464757D02*
X190886598Y-185536185D01*
X190886598Y-185536185D02*
X190743740Y-185607614D01*
X190743740Y-185607614D02*
X190243740Y-185607614D01*
X191958026Y-186393328D02*
X191815169Y-186321900D01*
X191815169Y-186321900D02*
X191743740Y-186250471D01*
X191743740Y-186250471D02*
X191672312Y-186107614D01*
X191672312Y-186107614D02*
X191672312Y-185679042D01*
X191672312Y-185679042D02*
X191743740Y-185536185D01*
X191743740Y-185536185D02*
X191815169Y-185464757D01*
X191815169Y-185464757D02*
X191958026Y-185393328D01*
X191958026Y-185393328D02*
X192172312Y-185393328D01*
X192172312Y-185393328D02*
X192315169Y-185464757D01*
X192315169Y-185464757D02*
X192386598Y-185536185D01*
X192386598Y-185536185D02*
X192458026Y-185679042D01*
X192458026Y-185679042D02*
X192458026Y-186107614D01*
X192458026Y-186107614D02*
X192386598Y-186250471D01*
X192386598Y-186250471D02*
X192315169Y-186321900D01*
X192315169Y-186321900D02*
X192172312Y-186393328D01*
X192172312Y-186393328D02*
X191958026Y-186393328D01*
X193743741Y-186393328D02*
X193743741Y-185607614D01*
X193743741Y-185607614D02*
X193672312Y-185464757D01*
X193672312Y-185464757D02*
X193529455Y-185393328D01*
X193529455Y-185393328D02*
X193243741Y-185393328D01*
X193243741Y-185393328D02*
X193100883Y-185464757D01*
X193743741Y-186321900D02*
X193600883Y-186393328D01*
X193600883Y-186393328D02*
X193243741Y-186393328D01*
X193243741Y-186393328D02*
X193100883Y-186321900D01*
X193100883Y-186321900D02*
X193029455Y-186179042D01*
X193029455Y-186179042D02*
X193029455Y-186036185D01*
X193029455Y-186036185D02*
X193100883Y-185893328D01*
X193100883Y-185893328D02*
X193243741Y-185821900D01*
X193243741Y-185821900D02*
X193600883Y-185821900D01*
X193600883Y-185821900D02*
X193743741Y-185750471D01*
X194458026Y-186393328D02*
X194458026Y-185393328D01*
X194458026Y-185679042D02*
X194529455Y-185536185D01*
X194529455Y-185536185D02*
X194600884Y-185464757D01*
X194600884Y-185464757D02*
X194743741Y-185393328D01*
X194743741Y-185393328D02*
X194886598Y-185393328D01*
X196029455Y-186393328D02*
X196029455Y-184893328D01*
X196029455Y-186321900D02*
X195886597Y-186393328D01*
X195886597Y-186393328D02*
X195600883Y-186393328D01*
X195600883Y-186393328D02*
X195458026Y-186321900D01*
X195458026Y-186321900D02*
X195386597Y-186250471D01*
X195386597Y-186250471D02*
X195315169Y-186107614D01*
X195315169Y-186107614D02*
X195315169Y-185679042D01*
X195315169Y-185679042D02*
X195386597Y-185536185D01*
X195386597Y-185536185D02*
X195458026Y-185464757D01*
X195458026Y-185464757D02*
X195600883Y-185393328D01*
X195600883Y-185393328D02*
X195886597Y-185393328D01*
X195886597Y-185393328D02*
X196029455Y-185464757D01*
X196386598Y-186536185D02*
X197529455Y-186536185D01*
X197886597Y-186393328D02*
X197886597Y-185393328D01*
X197886597Y-185536185D02*
X197958026Y-185464757D01*
X197958026Y-185464757D02*
X198100883Y-185393328D01*
X198100883Y-185393328D02*
X198315169Y-185393328D01*
X198315169Y-185393328D02*
X198458026Y-185464757D01*
X198458026Y-185464757D02*
X198529455Y-185607614D01*
X198529455Y-185607614D02*
X198529455Y-186393328D01*
X198529455Y-185607614D02*
X198600883Y-185464757D01*
X198600883Y-185464757D02*
X198743740Y-185393328D01*
X198743740Y-185393328D02*
X198958026Y-185393328D01*
X198958026Y-185393328D02*
X199100883Y-185464757D01*
X199100883Y-185464757D02*
X199172312Y-185607614D01*
X199172312Y-185607614D02*
X199172312Y-186393328D01*
X199886597Y-186393328D02*
X199886597Y-185393328D01*
X199886597Y-184893328D02*
X199815169Y-184964757D01*
X199815169Y-184964757D02*
X199886597Y-185036185D01*
X199886597Y-185036185D02*
X199958026Y-184964757D01*
X199958026Y-184964757D02*
X199886597Y-184893328D01*
X199886597Y-184893328D02*
X199886597Y-185036185D01*
X200600883Y-185393328D02*
X200600883Y-186393328D01*
X200600883Y-185536185D02*
X200672312Y-185464757D01*
X200672312Y-185464757D02*
X200815169Y-185393328D01*
X200815169Y-185393328D02*
X201029455Y-185393328D01*
X201029455Y-185393328D02*
X201172312Y-185464757D01*
X201172312Y-185464757D02*
X201243741Y-185607614D01*
X201243741Y-185607614D02*
X201243741Y-186393328D01*
X201958026Y-186393328D02*
X201958026Y-185393328D01*
X201958026Y-184893328D02*
X201886598Y-184964757D01*
X201886598Y-184964757D02*
X201958026Y-185036185D01*
X201958026Y-185036185D02*
X202029455Y-184964757D01*
X202029455Y-184964757D02*
X201958026Y-184893328D01*
X201958026Y-184893328D02*
X201958026Y-185036185D01*
X202672312Y-186250471D02*
X202743741Y-186321900D01*
X202743741Y-186321900D02*
X202672312Y-186393328D01*
X202672312Y-186393328D02*
X202600884Y-186321900D01*
X202600884Y-186321900D02*
X202672312Y-186250471D01*
X202672312Y-186250471D02*
X202672312Y-186393328D01*
X203386598Y-186393328D02*
X203386598Y-184893328D01*
X203529456Y-185821900D02*
X203958027Y-186393328D01*
X203958027Y-185393328D02*
X203386598Y-185964757D01*
X204600884Y-186393328D02*
X204600884Y-185393328D01*
X204600884Y-184893328D02*
X204529456Y-184964757D01*
X204529456Y-184964757D02*
X204600884Y-185036185D01*
X204600884Y-185036185D02*
X204672313Y-184964757D01*
X204672313Y-184964757D02*
X204600884Y-184893328D01*
X204600884Y-184893328D02*
X204600884Y-185036185D01*
X205958028Y-186321900D02*
X205815170Y-186393328D01*
X205815170Y-186393328D02*
X205529456Y-186393328D01*
X205529456Y-186393328D02*
X205386599Y-186321900D01*
X205386599Y-186321900D02*
X205315170Y-186250471D01*
X205315170Y-186250471D02*
X205243742Y-186107614D01*
X205243742Y-186107614D02*
X205243742Y-185679042D01*
X205243742Y-185679042D02*
X205315170Y-185536185D01*
X205315170Y-185536185D02*
X205386599Y-185464757D01*
X205386599Y-185464757D02*
X205529456Y-185393328D01*
X205529456Y-185393328D02*
X205815170Y-185393328D01*
X205815170Y-185393328D02*
X205958028Y-185464757D01*
X207243742Y-186393328D02*
X207243742Y-185607614D01*
X207243742Y-185607614D02*
X207172313Y-185464757D01*
X207172313Y-185464757D02*
X207029456Y-185393328D01*
X207029456Y-185393328D02*
X206743742Y-185393328D01*
X206743742Y-185393328D02*
X206600884Y-185464757D01*
X207243742Y-186321900D02*
X207100884Y-186393328D01*
X207100884Y-186393328D02*
X206743742Y-186393328D01*
X206743742Y-186393328D02*
X206600884Y-186321900D01*
X206600884Y-186321900D02*
X206529456Y-186179042D01*
X206529456Y-186179042D02*
X206529456Y-186036185D01*
X206529456Y-186036185D02*
X206600884Y-185893328D01*
X206600884Y-185893328D02*
X206743742Y-185821900D01*
X206743742Y-185821900D02*
X207100884Y-185821900D01*
X207100884Y-185821900D02*
X207243742Y-185750471D01*
X208600885Y-186393328D02*
X208600885Y-184893328D01*
X208600885Y-186321900D02*
X208458027Y-186393328D01*
X208458027Y-186393328D02*
X208172313Y-186393328D01*
X208172313Y-186393328D02*
X208029456Y-186321900D01*
X208029456Y-186321900D02*
X207958027Y-186250471D01*
X207958027Y-186250471D02*
X207886599Y-186107614D01*
X207886599Y-186107614D02*
X207886599Y-185679042D01*
X207886599Y-185679042D02*
X207958027Y-185536185D01*
X207958027Y-185536185D02*
X208029456Y-185464757D01*
X208029456Y-185464757D02*
X208172313Y-185393328D01*
X208172313Y-185393328D02*
X208458027Y-185393328D01*
X208458027Y-185393328D02*
X208600885Y-185464757D01*
X208958028Y-186536185D02*
X210100885Y-186536185D01*
X210458027Y-185393328D02*
X210458027Y-186893328D01*
X210458027Y-185464757D02*
X210600885Y-185393328D01*
X210600885Y-185393328D02*
X210886599Y-185393328D01*
X210886599Y-185393328D02*
X211029456Y-185464757D01*
X211029456Y-185464757D02*
X211100885Y-185536185D01*
X211100885Y-185536185D02*
X211172313Y-185679042D01*
X211172313Y-185679042D02*
X211172313Y-186107614D01*
X211172313Y-186107614D02*
X211100885Y-186250471D01*
X211100885Y-186250471D02*
X211029456Y-186321900D01*
X211029456Y-186321900D02*
X210886599Y-186393328D01*
X210886599Y-186393328D02*
X210600885Y-186393328D01*
X210600885Y-186393328D02*
X210458027Y-186321900D01*
X212458028Y-186321900D02*
X212315170Y-186393328D01*
X212315170Y-186393328D02*
X212029456Y-186393328D01*
X212029456Y-186393328D02*
X211886599Y-186321900D01*
X211886599Y-186321900D02*
X211815170Y-186250471D01*
X211815170Y-186250471D02*
X211743742Y-186107614D01*
X211743742Y-186107614D02*
X211743742Y-185679042D01*
X211743742Y-185679042D02*
X211815170Y-185536185D01*
X211815170Y-185536185D02*
X211886599Y-185464757D01*
X211886599Y-185464757D02*
X212029456Y-185393328D01*
X212029456Y-185393328D02*
X212315170Y-185393328D01*
X212315170Y-185393328D02*
X212458028Y-185464757D01*
X213100884Y-186393328D02*
X213100884Y-184893328D01*
X213100884Y-185464757D02*
X213243742Y-185393328D01*
X213243742Y-185393328D02*
X213529456Y-185393328D01*
X213529456Y-185393328D02*
X213672313Y-185464757D01*
X213672313Y-185464757D02*
X213743742Y-185536185D01*
X213743742Y-185536185D02*
X213815170Y-185679042D01*
X213815170Y-185679042D02*
X213815170Y-186107614D01*
X213815170Y-186107614D02*
X213743742Y-186250471D01*
X213743742Y-186250471D02*
X213672313Y-186321900D01*
X213672313Y-186321900D02*
X213529456Y-186393328D01*
X213529456Y-186393328D02*
X213243742Y-186393328D01*
X213243742Y-186393328D02*
X213100884Y-186321900D01*
X177002200Y-181507200D02*
X285002200Y-181507200D01*
X178386598Y-183621900D02*
X178600884Y-183693328D01*
X178600884Y-183693328D02*
X178958026Y-183693328D01*
X178958026Y-183693328D02*
X179100884Y-183621900D01*
X179100884Y-183621900D02*
X179172312Y-183550471D01*
X179172312Y-183550471D02*
X179243741Y-183407614D01*
X179243741Y-183407614D02*
X179243741Y-183264757D01*
X179243741Y-183264757D02*
X179172312Y-183121900D01*
X179172312Y-183121900D02*
X179100884Y-183050471D01*
X179100884Y-183050471D02*
X178958026Y-182979042D01*
X178958026Y-182979042D02*
X178672312Y-182907614D01*
X178672312Y-182907614D02*
X178529455Y-182836185D01*
X178529455Y-182836185D02*
X178458026Y-182764757D01*
X178458026Y-182764757D02*
X178386598Y-182621900D01*
X178386598Y-182621900D02*
X178386598Y-182479042D01*
X178386598Y-182479042D02*
X178458026Y-182336185D01*
X178458026Y-182336185D02*
X178529455Y-182264757D01*
X178529455Y-182264757D02*
X178672312Y-182193328D01*
X178672312Y-182193328D02*
X179029455Y-182193328D01*
X179029455Y-182193328D02*
X179243741Y-182264757D01*
X179886597Y-183693328D02*
X179886597Y-182193328D01*
X180529455Y-183693328D02*
X180529455Y-182907614D01*
X180529455Y-182907614D02*
X180458026Y-182764757D01*
X180458026Y-182764757D02*
X180315169Y-182693328D01*
X180315169Y-182693328D02*
X180100883Y-182693328D01*
X180100883Y-182693328D02*
X179958026Y-182764757D01*
X179958026Y-182764757D02*
X179886597Y-182836185D01*
X181815169Y-183621900D02*
X181672312Y-183693328D01*
X181672312Y-183693328D02*
X181386598Y-183693328D01*
X181386598Y-183693328D02*
X181243740Y-183621900D01*
X181243740Y-183621900D02*
X181172312Y-183479042D01*
X181172312Y-183479042D02*
X181172312Y-182907614D01*
X181172312Y-182907614D02*
X181243740Y-182764757D01*
X181243740Y-182764757D02*
X181386598Y-182693328D01*
X181386598Y-182693328D02*
X181672312Y-182693328D01*
X181672312Y-182693328D02*
X181815169Y-182764757D01*
X181815169Y-182764757D02*
X181886598Y-182907614D01*
X181886598Y-182907614D02*
X181886598Y-183050471D01*
X181886598Y-183050471D02*
X181172312Y-183193328D01*
X183100883Y-183621900D02*
X182958026Y-183693328D01*
X182958026Y-183693328D02*
X182672312Y-183693328D01*
X182672312Y-183693328D02*
X182529454Y-183621900D01*
X182529454Y-183621900D02*
X182458026Y-183479042D01*
X182458026Y-183479042D02*
X182458026Y-182907614D01*
X182458026Y-182907614D02*
X182529454Y-182764757D01*
X182529454Y-182764757D02*
X182672312Y-182693328D01*
X182672312Y-182693328D02*
X182958026Y-182693328D01*
X182958026Y-182693328D02*
X183100883Y-182764757D01*
X183100883Y-182764757D02*
X183172312Y-182907614D01*
X183172312Y-182907614D02*
X183172312Y-183050471D01*
X183172312Y-183050471D02*
X182458026Y-183193328D01*
X183600883Y-182693328D02*
X184172311Y-182693328D01*
X183815168Y-182193328D02*
X183815168Y-183479042D01*
X183815168Y-183479042D02*
X183886597Y-183621900D01*
X183886597Y-183621900D02*
X184029454Y-183693328D01*
X184029454Y-183693328D02*
X184172311Y-183693328D01*
X184672311Y-183550471D02*
X184743740Y-183621900D01*
X184743740Y-183621900D02*
X184672311Y-183693328D01*
X184672311Y-183693328D02*
X184600883Y-183621900D01*
X184600883Y-183621900D02*
X184672311Y-183550471D01*
X184672311Y-183550471D02*
X184672311Y-183693328D01*
X184672311Y-182764757D02*
X184743740Y-182836185D01*
X184743740Y-182836185D02*
X184672311Y-182907614D01*
X184672311Y-182907614D02*
X184600883Y-182836185D01*
X184600883Y-182836185D02*
X184672311Y-182764757D01*
X184672311Y-182764757D02*
X184672311Y-182907614D01*
X197002200Y-191507200D02*
X197002200Y-194507200D01*
X261002200Y-191507200D02*
X261002200Y-198007200D01*
D11*
X138911653Y-136050828D02*
X138411653Y-135336542D01*
X138054510Y-136050828D02*
X138054510Y-134550828D01*
X138054510Y-134550828D02*
X138625939Y-134550828D01*
X138625939Y-134550828D02*
X138768796Y-134622257D01*
X138768796Y-134622257D02*
X138840225Y-134693685D01*
X138840225Y-134693685D02*
X138911653Y-134836542D01*
X138911653Y-134836542D02*
X138911653Y-135050828D01*
X138911653Y-135050828D02*
X138840225Y-135193685D01*
X138840225Y-135193685D02*
X138768796Y-135265114D01*
X138768796Y-135265114D02*
X138625939Y-135336542D01*
X138625939Y-135336542D02*
X138054510Y-135336542D01*
X149018796Y-136050828D02*
X148304510Y-136050828D01*
X148304510Y-136050828D02*
X148304510Y-134550828D01*
D13*
X142907009Y-127203993D02*
X142376679Y-126673663D01*
X142376679Y-126673663D02*
X142991189Y-126816767D01*
X142991189Y-126816767D02*
X142848084Y-126202258D01*
X142848084Y-126202258D02*
X143378414Y-126732588D01*
X143715131Y-126395871D02*
X143184801Y-125865541D01*
X144405402Y-125604585D02*
X144396984Y-125663510D01*
X144396984Y-125663510D02*
X144321223Y-125789779D01*
X144321223Y-125789779D02*
X144253879Y-125857123D01*
X144253879Y-125857123D02*
X144127610Y-125932884D01*
X144127610Y-125932884D02*
X144009759Y-125949720D01*
X144009759Y-125949720D02*
X143925579Y-125932884D01*
X143925579Y-125932884D02*
X143790892Y-125865541D01*
X143790892Y-125865541D02*
X143715131Y-125789779D01*
X143715131Y-125789779D02*
X143647787Y-125655092D01*
X143647787Y-125655092D02*
X143630952Y-125570913D01*
X143630952Y-125570913D02*
X143647787Y-125453062D01*
X143647787Y-125453062D02*
X143723549Y-125326793D01*
X143723549Y-125326793D02*
X143790892Y-125259449D01*
X143790892Y-125259449D02*
X143917162Y-125183688D01*
X143917162Y-125183688D02*
X143976087Y-125175270D01*
X139525664Y-128354678D02*
X140291696Y-128649306D01*
X140291696Y-128649306D02*
X139997069Y-127883273D01*
X140763101Y-128177901D02*
X140232771Y-127647571D01*
X140232771Y-127647571D02*
X140401130Y-127479212D01*
X140401130Y-127479212D02*
X140527399Y-127403451D01*
X140527399Y-127403451D02*
X140645250Y-127386615D01*
X140645250Y-127386615D02*
X140729429Y-127403451D01*
X140729429Y-127403451D02*
X140864116Y-127470794D01*
X140864116Y-127470794D02*
X140939878Y-127546556D01*
X140939878Y-127546556D02*
X141007221Y-127681243D01*
X141007221Y-127681243D02*
X141024057Y-127765422D01*
X141024057Y-127765422D02*
X141007221Y-127883273D01*
X141007221Y-127883273D02*
X140931460Y-128009542D01*
X140931460Y-128009542D02*
X140763101Y-128177901D01*
X141470208Y-127470794D02*
X140939878Y-126940464D01*
X140939878Y-126940464D02*
X141108236Y-126772105D01*
X141108236Y-126772105D02*
X141234506Y-126696344D01*
X141234506Y-126696344D02*
X141352357Y-126679508D01*
X141352357Y-126679508D02*
X141436536Y-126696344D01*
X141436536Y-126696344D02*
X141571223Y-126763687D01*
X141571223Y-126763687D02*
X141646984Y-126839449D01*
X141646984Y-126839449D02*
X141714328Y-126974136D01*
X141714328Y-126974136D02*
X141731164Y-127058315D01*
X141731164Y-127058315D02*
X141714328Y-127176166D01*
X141714328Y-127176166D02*
X141638567Y-127302435D01*
X141638567Y-127302435D02*
X141470208Y-127470794D01*
X140260563Y-125829424D02*
X140252145Y-125888350D01*
X140252145Y-125888350D02*
X140176383Y-126014619D01*
X140176383Y-126014619D02*
X140109040Y-126081962D01*
X140109040Y-126081962D02*
X139982771Y-126157724D01*
X139982771Y-126157724D02*
X139864920Y-126174559D01*
X139864920Y-126174559D02*
X139780740Y-126157724D01*
X139780740Y-126157724D02*
X139646053Y-126090380D01*
X139646053Y-126090380D02*
X139570292Y-126014619D01*
X139570292Y-126014619D02*
X139502948Y-125879932D01*
X139502948Y-125879932D02*
X139486113Y-125795752D01*
X139486113Y-125795752D02*
X139502948Y-125677901D01*
X139502948Y-125677901D02*
X139578710Y-125551632D01*
X139578710Y-125551632D02*
X139646053Y-125484289D01*
X139646053Y-125484289D02*
X139772322Y-125408527D01*
X139772322Y-125408527D02*
X139831248Y-125400109D01*
X140950834Y-125240168D02*
X140614116Y-125576886D01*
X140614116Y-125576886D02*
X140083786Y-125046556D01*
X141186536Y-125004466D02*
X140656206Y-124474136D01*
X141590597Y-124600405D02*
X140984506Y-124600405D01*
X141060267Y-124070075D02*
X140959252Y-124777182D01*
X139907009Y-123533993D02*
X139376679Y-123003663D01*
X139376679Y-123003663D02*
X139545038Y-122835304D01*
X139545038Y-122835304D02*
X139671307Y-122759542D01*
X139671307Y-122759542D02*
X139789158Y-122742706D01*
X139789158Y-122742706D02*
X139873338Y-122759542D01*
X139873338Y-122759542D02*
X140008025Y-122826886D01*
X140008025Y-122826886D02*
X140083786Y-122902647D01*
X140083786Y-122902647D02*
X140151130Y-123037334D01*
X140151130Y-123037334D02*
X140167965Y-123121514D01*
X140167965Y-123121514D02*
X140151130Y-123239365D01*
X140151130Y-123239365D02*
X140075368Y-123365634D01*
X140075368Y-123365634D02*
X139907009Y-123533993D01*
X140428922Y-122709035D02*
X140765639Y-122372317D01*
X140513101Y-122927901D02*
X140218473Y-122161869D01*
X140218473Y-122161869D02*
X140984505Y-122456497D01*
X140588862Y-121791479D02*
X140992923Y-121387418D01*
X141321223Y-122119779D02*
X140790893Y-121589449D01*
X142522322Y-123828527D02*
X142429725Y-123870617D01*
X142429725Y-123870617D02*
X142328710Y-123971632D01*
X142328710Y-123971632D02*
X142252948Y-124097901D01*
X142252948Y-124097901D02*
X142236113Y-124215752D01*
X142236113Y-124215752D02*
X142252948Y-124299932D01*
X142252948Y-124299932D02*
X142320292Y-124434619D01*
X142320292Y-124434619D02*
X142396053Y-124510380D01*
X142396053Y-124510380D02*
X142530740Y-124577724D01*
X142530740Y-124577724D02*
X142614920Y-124594559D01*
X142614920Y-124594559D02*
X142732771Y-124577724D01*
X142732771Y-124577724D02*
X142859040Y-124501962D01*
X142859040Y-124501962D02*
X142926383Y-124434619D01*
X142926383Y-124434619D02*
X143002145Y-124308350D01*
X143002145Y-124308350D02*
X143010563Y-124249424D01*
X143010563Y-124249424D02*
X142833786Y-124072647D01*
X142833786Y-124072647D02*
X142699099Y-124207334D01*
X143364116Y-123996886D02*
X142833786Y-123466556D01*
X142833786Y-123466556D02*
X143768177Y-123592825D01*
X143768177Y-123592825D02*
X143237847Y-123062495D01*
X144104895Y-123256107D02*
X143574565Y-122725777D01*
X143574565Y-122725777D02*
X143742923Y-122557418D01*
X143742923Y-122557418D02*
X143869192Y-122481657D01*
X143869192Y-122481657D02*
X143987044Y-122464821D01*
X143987044Y-122464821D02*
X144071223Y-122481657D01*
X144071223Y-122481657D02*
X144205910Y-122549001D01*
X144205910Y-122549001D02*
X144281671Y-122624762D01*
X144281671Y-122624762D02*
X144349015Y-122759449D01*
X144349015Y-122759449D02*
X144365851Y-122843628D01*
X144365851Y-122843628D02*
X144349015Y-122961480D01*
X144349015Y-122961480D02*
X144273253Y-123087749D01*
X144273253Y-123087749D02*
X144104895Y-123256107D01*
X139772322Y-120158527D02*
X139679725Y-120200617D01*
X139679725Y-120200617D02*
X139578710Y-120301632D01*
X139578710Y-120301632D02*
X139502948Y-120427901D01*
X139502948Y-120427901D02*
X139486113Y-120545752D01*
X139486113Y-120545752D02*
X139502948Y-120629932D01*
X139502948Y-120629932D02*
X139570292Y-120764619D01*
X139570292Y-120764619D02*
X139646053Y-120840380D01*
X139646053Y-120840380D02*
X139780740Y-120907724D01*
X139780740Y-120907724D02*
X139864920Y-120924559D01*
X139864920Y-120924559D02*
X139982771Y-120907724D01*
X139982771Y-120907724D02*
X140109040Y-120831962D01*
X140109040Y-120831962D02*
X140176383Y-120764619D01*
X140176383Y-120764619D02*
X140252145Y-120638350D01*
X140252145Y-120638350D02*
X140260563Y-120579424D01*
X140260563Y-120579424D02*
X140083786Y-120402647D01*
X140083786Y-120402647D02*
X139949099Y-120537334D01*
X140614116Y-120326886D02*
X140083786Y-119796556D01*
X140083786Y-119796556D02*
X141018177Y-119922825D01*
X141018177Y-119922825D02*
X140487847Y-119392495D01*
X141354895Y-119586107D02*
X140824565Y-119055777D01*
X140824565Y-119055777D02*
X140992923Y-118887418D01*
X140992923Y-118887418D02*
X141119192Y-118811657D01*
X141119192Y-118811657D02*
X141237044Y-118794821D01*
X141237044Y-118794821D02*
X141321223Y-118811657D01*
X141321223Y-118811657D02*
X141455910Y-118879001D01*
X141455910Y-118879001D02*
X141531671Y-118954762D01*
X141531671Y-118954762D02*
X141599015Y-119089449D01*
X141599015Y-119089449D02*
X141615851Y-119173628D01*
X141615851Y-119173628D02*
X141599015Y-119291480D01*
X141599015Y-119291480D02*
X141523253Y-119417749D01*
X141523253Y-119417749D02*
X141354895Y-119586107D01*
D10*
X140245833Y-114704819D02*
X139769643Y-114704819D01*
X139769643Y-114704819D02*
X139769643Y-113704819D01*
X141102976Y-114704819D02*
X140531548Y-114704819D01*
X140817262Y-114704819D02*
X140817262Y-113704819D01*
X140817262Y-113704819D02*
X140722024Y-113847676D01*
X140722024Y-113847676D02*
X140626786Y-113942914D01*
X140626786Y-113942914D02*
X140531548Y-113990533D01*
X140245833Y-116454819D02*
X139912500Y-115978628D01*
X139674405Y-116454819D02*
X139674405Y-115454819D01*
X139674405Y-115454819D02*
X140055357Y-115454819D01*
X140055357Y-115454819D02*
X140150595Y-115502438D01*
X140150595Y-115502438D02*
X140198214Y-115550057D01*
X140198214Y-115550057D02*
X140245833Y-115645295D01*
X140245833Y-115645295D02*
X140245833Y-115788152D01*
X140245833Y-115788152D02*
X140198214Y-115883390D01*
X140198214Y-115883390D02*
X140150595Y-115931009D01*
X140150595Y-115931009D02*
X140055357Y-115978628D01*
X140055357Y-115978628D02*
X139674405Y-115978628D01*
X140579167Y-115454819D02*
X141198214Y-115454819D01*
X141198214Y-115454819D02*
X140864881Y-115835771D01*
X140864881Y-115835771D02*
X141007738Y-115835771D01*
X141007738Y-115835771D02*
X141102976Y-115883390D01*
X141102976Y-115883390D02*
X141150595Y-115931009D01*
X141150595Y-115931009D02*
X141198214Y-116026247D01*
X141198214Y-116026247D02*
X141198214Y-116264342D01*
X141198214Y-116264342D02*
X141150595Y-116359580D01*
X141150595Y-116359580D02*
X141102976Y-116407200D01*
X141102976Y-116407200D02*
X141007738Y-116454819D01*
X141007738Y-116454819D02*
X140722024Y-116454819D01*
X140722024Y-116454819D02*
X140626786Y-116407200D01*
X140626786Y-116407200D02*
X140579167Y-116359580D01*
X132738095Y-135204819D02*
X132738095Y-134204819D01*
X132738095Y-134681009D02*
X133309523Y-134681009D01*
X133309523Y-135204819D02*
X133309523Y-134204819D01*
X133738095Y-134300057D02*
X133785714Y-134252438D01*
X133785714Y-134252438D02*
X133880952Y-134204819D01*
X133880952Y-134204819D02*
X134119047Y-134204819D01*
X134119047Y-134204819D02*
X134214285Y-134252438D01*
X134214285Y-134252438D02*
X134261904Y-134300057D01*
X134261904Y-134300057D02*
X134309523Y-134395295D01*
X134309523Y-134395295D02*
X134309523Y-134490533D01*
X134309523Y-134490533D02*
X134261904Y-134633390D01*
X134261904Y-134633390D02*
X133690476Y-135204819D01*
X133690476Y-135204819D02*
X134309523Y-135204819D01*
X139916666Y-130954819D02*
X139916666Y-131669104D01*
X139916666Y-131669104D02*
X139869047Y-131811961D01*
X139869047Y-131811961D02*
X139773809Y-131907200D01*
X139773809Y-131907200D02*
X139630952Y-131954819D01*
X139630952Y-131954819D02*
X139535714Y-131954819D01*
X140916666Y-131954819D02*
X140345238Y-131954819D01*
X140630952Y-131954819D02*
X140630952Y-130954819D01*
X140630952Y-130954819D02*
X140535714Y-131097676D01*
X140535714Y-131097676D02*
X140440476Y-131192914D01*
X140440476Y-131192914D02*
X140345238Y-131240533D01*
X150988095Y-114704819D02*
X150988095Y-113704819D01*
X150988095Y-114181009D02*
X151559523Y-114181009D01*
X151559523Y-114704819D02*
X151559523Y-113704819D01*
X152464285Y-114038152D02*
X152464285Y-114704819D01*
X152226190Y-113657200D02*
X151988095Y-114371485D01*
X151988095Y-114371485D02*
X152607142Y-114371485D01*
X150988095Y-135204819D02*
X150988095Y-134204819D01*
X150988095Y-134681009D02*
X151559523Y-134681009D01*
X151559523Y-135204819D02*
X151559523Y-134204819D01*
X151940476Y-134204819D02*
X152559523Y-134204819D01*
X152559523Y-134204819D02*
X152226190Y-134585771D01*
X152226190Y-134585771D02*
X152369047Y-134585771D01*
X152369047Y-134585771D02*
X152464285Y-134633390D01*
X152464285Y-134633390D02*
X152511904Y-134681009D01*
X152511904Y-134681009D02*
X152559523Y-134776247D01*
X152559523Y-134776247D02*
X152559523Y-135014342D01*
X152559523Y-135014342D02*
X152511904Y-135109580D01*
X152511904Y-135109580D02*
X152464285Y-135157200D01*
X152464285Y-135157200D02*
X152369047Y-135204819D01*
X152369047Y-135204819D02*
X152083333Y-135204819D01*
X152083333Y-135204819D02*
X151988095Y-135157200D01*
X151988095Y-135157200D02*
X151940476Y-135109580D01*
X132738095Y-114704819D02*
X132738095Y-113704819D01*
X132738095Y-114181009D02*
X133309523Y-114181009D01*
X133309523Y-114704819D02*
X133309523Y-113704819D01*
X134309523Y-114704819D02*
X133738095Y-114704819D01*
X134023809Y-114704819D02*
X134023809Y-113704819D01*
X134023809Y-113704819D02*
X133928571Y-113847676D01*
X133928571Y-113847676D02*
X133833333Y-113942914D01*
X133833333Y-113942914D02*
X133738095Y-113990533D01*
X142666666Y-132204819D02*
X142666666Y-132919104D01*
X142666666Y-132919104D02*
X142619047Y-133061961D01*
X142619047Y-133061961D02*
X142523809Y-133157200D01*
X142523809Y-133157200D02*
X142380952Y-133204819D01*
X142380952Y-133204819D02*
X142285714Y-133204819D01*
X143142857Y-133204819D02*
X143142857Y-132204819D01*
X143142857Y-132204819D02*
X143523809Y-132204819D01*
X143523809Y-132204819D02*
X143619047Y-132252438D01*
X143619047Y-132252438D02*
X143666666Y-132300057D01*
X143666666Y-132300057D02*
X143714285Y-132395295D01*
X143714285Y-132395295D02*
X143714285Y-132538152D01*
X143714285Y-132538152D02*
X143666666Y-132633390D01*
X143666666Y-132633390D02*
X143619047Y-132681009D01*
X143619047Y-132681009D02*
X143523809Y-132728628D01*
X143523809Y-132728628D02*
X143142857Y-132728628D01*
X144666666Y-133204819D02*
X144095238Y-133204819D01*
X144380952Y-133204819D02*
X144380952Y-132204819D01*
X144380952Y-132204819D02*
X144285714Y-132347676D01*
X144285714Y-132347676D02*
X144190476Y-132442914D01*
X144190476Y-132442914D02*
X144095238Y-132490533D01*
X143166666Y-128454819D02*
X143166666Y-129169104D01*
X143166666Y-129169104D02*
X143119047Y-129311961D01*
X143119047Y-129311961D02*
X143023809Y-129407200D01*
X143023809Y-129407200D02*
X142880952Y-129454819D01*
X142880952Y-129454819D02*
X142785714Y-129454819D01*
X143595238Y-128550057D02*
X143642857Y-128502438D01*
X143642857Y-128502438D02*
X143738095Y-128454819D01*
X143738095Y-128454819D02*
X143976190Y-128454819D01*
X143976190Y-128454819D02*
X144071428Y-128502438D01*
X144071428Y-128502438D02*
X144119047Y-128550057D01*
X144119047Y-128550057D02*
X144166666Y-128645295D01*
X144166666Y-128645295D02*
X144166666Y-128740533D01*
X144166666Y-128740533D02*
X144119047Y-128883390D01*
X144119047Y-128883390D02*
X143547619Y-129454819D01*
X143547619Y-129454819D02*
X144166666Y-129454819D01*
%TO.C,L1*%
D14*
X144212500Y-113515000D02*
X141752500Y-113515000D01*
X141752500Y-114985000D02*
X144212500Y-114985000D01*
X141752500Y-113515000D02*
X141752500Y-114985000D01*
%TO.C,R3*%
X143667224Y-115477500D02*
X143157776Y-115477500D01*
X143667224Y-116522500D02*
X143157776Y-116522500D01*
%TO.C,J1*%
D15*
X138381000Y-132533700D02*
G75*
G02*
X137619000Y-132533700I-381000J0D01*
G01*
X137619000Y-132533700D02*
G75*
G02*
X138381000Y-132533700I381000J0D01*
G01*
D16*
X138777000Y-131644700D02*
X138777000Y-129205997D01*
X138777000Y-127454003D02*
X138777000Y-126665997D01*
X138777000Y-124914003D02*
X138777000Y-124125997D01*
X138777000Y-122374003D02*
X138777000Y-121585997D01*
X138777000Y-119834003D02*
X138777000Y-117395300D01*
X138777000Y-117395300D02*
X130119786Y-117395300D01*
X130119786Y-131644700D02*
X138777000Y-131644700D01*
X128600213Y-117395300D02*
X124933999Y-117395300D01*
X124933999Y-131644700D02*
X128600213Y-131644700D01*
X124933999Y-117395300D02*
X124933999Y-131644700D01*
%TO.C,JP1*%
D14*
X142230000Y-133870000D02*
X147420000Y-133870000D01*
X147420000Y-136630000D02*
X147420000Y-133870000D01*
X142230000Y-136630000D02*
X142230000Y-133870000D01*
X142230000Y-136630000D02*
X147420000Y-136630000D01*
X140960000Y-136630000D02*
X139580000Y-136630000D01*
X139580000Y-136630000D02*
X139580000Y-135250000D01*
%TO.C,J2*%
D15*
X146080600Y-118747200D02*
G75*
G02*
X145318600Y-118747200I-381000J0D01*
G01*
X145318600Y-118747200D02*
G75*
G02*
X146080600Y-118747200I381000J0D01*
G01*
D16*
X158765601Y-128618100D02*
X158765601Y-119702700D01*
X158765601Y-119702700D02*
X155363066Y-119702700D01*
X155363066Y-128618100D02*
X158765601Y-128618100D01*
X153316135Y-119702700D02*
X144922600Y-119702700D01*
X144922600Y-128618100D02*
X153316135Y-128618100D01*
X144922600Y-126306397D02*
X144922600Y-128618100D01*
X144922600Y-123766397D02*
X144922600Y-124554403D01*
X144922600Y-119702700D02*
X144922600Y-122014403D01*
%TD*%
M02*
