M48
; DRILL file KiCad 10.0.1 date 2026-05-06T11:20:26
; FORMAT={-:-/ absolute / metric / decimal}
; #@! TF.CreationDate,2026-05-06T11:20:26-04:00
; #@! TF.GenerationSoftware,Kicad,Pcbnew,10.0.1
; #@! TF.FileFunction,Plated,1,4,PTH
FMAT,2
METRIC
; #@! TA.AperFunction,Plated,PTH,ViaDrill
T1C0.300
; #@! TA.AperFunction,Plated,PTH,ComponentDrill
T2C1.000
; #@! TA.AperFunction,Plated,PTH,ComponentDrill
T3C1.168
; #@! TA.AperFunction,Plated,PTH,ComponentDrill
T4C2.200
%
G90
G05
T1
X132.0Y-116.25
X132.0Y-132.75
X136.338Y-135.5
X142.332Y-128.33
X142.537Y-114.25
X148.5Y-128.612
X149.5Y-124.5
X149.5Y-124.5
X150.25Y-128.612
X150.662Y-135.5
X150.75Y-123.0
X153.25Y-116.25
X153.25Y-132.75
T2
X140.96Y-135.25
X143.5Y-135.25
X146.04Y-135.25
T3
X138.0Y-120.71
X138.0Y-123.25
X138.0Y-125.79
X138.0Y-128.33
X145.7Y-122.89
X145.7Y-125.43
T4
X130.0Y-114.25
X130.0Y-134.75
X155.25Y-114.25
X155.25Y-134.75
M30
