M48
; DRILL file KiCad 10.0.1 date 2026-05-06T13:36:52
; FORMAT={-:-/ absolute / metric / decimal}
; #@! TF.CreationDate,2026-05-06T13:36:52-04:00
; #@! TF.GenerationSoftware,Kicad,Pcbnew,10.0.1
; #@! TF.FileFunction,Plated,1,2,PTH
FMAT,2
METRIC
; #@! TA.AperFunction,Plated,PTH,ViaDrill
T1C0.300
; #@! TA.AperFunction,Plated,PTH,ComponentDrill
T2C1.000
; #@! TA.AperFunction,Plated,PTH,ComponentDrill
T3C1.168
; #@! TA.AperFunction,Plated,PTH,ComponentDrill
T4C2.200
%
G90
G05
T1
X136.5Y-133.588
X137.0Y-118.0
X138.25Y-112.644
X139.75Y-118.0
X141.5Y-118.0
X143.537Y-115.2
X143.537Y-116.95
X143.875Y-122.375
X146.75Y-132.25
X149.15Y-114.7
X149.15Y-118.047
T2
X140.96Y-135.25
X143.5Y-135.25
X146.04Y-135.25
T3
X138.0Y-120.71
X138.0Y-123.25
X138.0Y-125.79
X138.0Y-128.33
X145.7Y-125.89
X145.7Y-128.43
T4
X130.0Y-114.25
X130.0Y-134.75
X155.25Y-114.25
X155.25Y-134.75
M30
