%TF.GenerationSoftware,KiCad,Pcbnew,10.0.1*%
%TF.CreationDate,2026-05-07T11:14:09-04:00*%
%TF.ProjectId,PDM_Board_mini,50444d5f-426f-4617-9264-5f6d696e692e,rev?*%
%TF.SameCoordinates,Original*%
%TF.FileFunction,Legend,Top*%
%TF.FilePolarity,Positive*%
%FSLAX46Y46*%
G04 Gerber Fmt 4.6, Leading zero omitted, Abs format (unit mm)*
G04 Created by KiCad (PCBNEW 10.0.1) date 2026-05-07 11:14:09*
%MOMM*%
%LPD*%
G01*
G04 APERTURE LIST*
%ADD10C,0.062500*%
%ADD11C,0.125000*%
%ADD12C,0.300000*%
%ADD13C,0.150000*%
%ADD14C,0.254000*%
%ADD15C,0.120000*%
%ADD16C,0.200000*%
%ADD17C,0.152400*%
%ADD18C,0.508000*%
G04 APERTURE END LIST*
D10*
X161583882Y-96553819D02*
X161583882Y-96153819D01*
X161583882Y-96153819D02*
X161702930Y-96153819D01*
X161702930Y-96153819D02*
X161774358Y-96172867D01*
X161774358Y-96172867D02*
X161821977Y-96210962D01*
X161821977Y-96210962D02*
X161845787Y-96249057D01*
X161845787Y-96249057D02*
X161869596Y-96325248D01*
X161869596Y-96325248D02*
X161869596Y-96382391D01*
X161869596Y-96382391D02*
X161845787Y-96458581D01*
X161845787Y-96458581D02*
X161821977Y-96496676D01*
X161821977Y-96496676D02*
X161774358Y-96534772D01*
X161774358Y-96534772D02*
X161702930Y-96553819D01*
X161702930Y-96553819D02*
X161583882Y-96553819D01*
X162298168Y-96553819D02*
X162298168Y-96344295D01*
X162298168Y-96344295D02*
X162274358Y-96306200D01*
X162274358Y-96306200D02*
X162226739Y-96287152D01*
X162226739Y-96287152D02*
X162131501Y-96287152D01*
X162131501Y-96287152D02*
X162083882Y-96306200D01*
X162298168Y-96534772D02*
X162250549Y-96553819D01*
X162250549Y-96553819D02*
X162131501Y-96553819D01*
X162131501Y-96553819D02*
X162083882Y-96534772D01*
X162083882Y-96534772D02*
X162060073Y-96496676D01*
X162060073Y-96496676D02*
X162060073Y-96458581D01*
X162060073Y-96458581D02*
X162083882Y-96420486D01*
X162083882Y-96420486D02*
X162131501Y-96401438D01*
X162131501Y-96401438D02*
X162250549Y-96401438D01*
X162250549Y-96401438D02*
X162298168Y-96382391D01*
X162536263Y-96287152D02*
X162536263Y-96553819D01*
X162536263Y-96325248D02*
X162560073Y-96306200D01*
X162560073Y-96306200D02*
X162607692Y-96287152D01*
X162607692Y-96287152D02*
X162679120Y-96287152D01*
X162679120Y-96287152D02*
X162726739Y-96306200D01*
X162726739Y-96306200D02*
X162750549Y-96344295D01*
X162750549Y-96344295D02*
X162750549Y-96553819D01*
X162988644Y-96287152D02*
X162988644Y-96553819D01*
X162988644Y-96325248D02*
X163012454Y-96306200D01*
X163012454Y-96306200D02*
X163060073Y-96287152D01*
X163060073Y-96287152D02*
X163131501Y-96287152D01*
X163131501Y-96287152D02*
X163179120Y-96306200D01*
X163179120Y-96306200D02*
X163202930Y-96344295D01*
X163202930Y-96344295D02*
X163202930Y-96553819D01*
X163393406Y-96287152D02*
X163512454Y-96553819D01*
X163631501Y-96287152D02*
X163512454Y-96553819D01*
X163512454Y-96553819D02*
X163464835Y-96649057D01*
X163464835Y-96649057D02*
X163441025Y-96668105D01*
X163441025Y-96668105D02*
X163393406Y-96687152D01*
X164488643Y-96515724D02*
X164464834Y-96534772D01*
X164464834Y-96534772D02*
X164393405Y-96553819D01*
X164393405Y-96553819D02*
X164345786Y-96553819D01*
X164345786Y-96553819D02*
X164274358Y-96534772D01*
X164274358Y-96534772D02*
X164226739Y-96496676D01*
X164226739Y-96496676D02*
X164202929Y-96458581D01*
X164202929Y-96458581D02*
X164179120Y-96382391D01*
X164179120Y-96382391D02*
X164179120Y-96325248D01*
X164179120Y-96325248D02*
X164202929Y-96249057D01*
X164202929Y-96249057D02*
X164226739Y-96210962D01*
X164226739Y-96210962D02*
X164274358Y-96172867D01*
X164274358Y-96172867D02*
X164345786Y-96153819D01*
X164345786Y-96153819D02*
X164393405Y-96153819D01*
X164393405Y-96153819D02*
X164464834Y-96172867D01*
X164464834Y-96172867D02*
X164488643Y-96191914D01*
X162202930Y-96816845D02*
X162155311Y-96797797D01*
X162155311Y-96797797D02*
X162083882Y-96797797D01*
X162083882Y-96797797D02*
X162012454Y-96816845D01*
X162012454Y-96816845D02*
X161964835Y-96854940D01*
X161964835Y-96854940D02*
X161941025Y-96893035D01*
X161941025Y-96893035D02*
X161917216Y-96969226D01*
X161917216Y-96969226D02*
X161917216Y-97026369D01*
X161917216Y-97026369D02*
X161941025Y-97102559D01*
X161941025Y-97102559D02*
X161964835Y-97140654D01*
X161964835Y-97140654D02*
X162012454Y-97178750D01*
X162012454Y-97178750D02*
X162083882Y-97197797D01*
X162083882Y-97197797D02*
X162131501Y-97197797D01*
X162131501Y-97197797D02*
X162202930Y-97178750D01*
X162202930Y-97178750D02*
X162226739Y-97159702D01*
X162226739Y-97159702D02*
X162226739Y-97026369D01*
X162226739Y-97026369D02*
X162131501Y-97026369D01*
X162631501Y-97178750D02*
X162583882Y-97197797D01*
X162583882Y-97197797D02*
X162488644Y-97197797D01*
X162488644Y-97197797D02*
X162441025Y-97178750D01*
X162441025Y-97178750D02*
X162417216Y-97140654D01*
X162417216Y-97140654D02*
X162417216Y-96988273D01*
X162417216Y-96988273D02*
X162441025Y-96950178D01*
X162441025Y-96950178D02*
X162488644Y-96931130D01*
X162488644Y-96931130D02*
X162583882Y-96931130D01*
X162583882Y-96931130D02*
X162631501Y-96950178D01*
X162631501Y-96950178D02*
X162655311Y-96988273D01*
X162655311Y-96988273D02*
X162655311Y-97026369D01*
X162655311Y-97026369D02*
X162417216Y-97064464D01*
X162869596Y-96931130D02*
X162869596Y-97197797D01*
X162869596Y-96969226D02*
X162893406Y-96950178D01*
X162893406Y-96950178D02*
X162941025Y-96931130D01*
X162941025Y-96931130D02*
X163012453Y-96931130D01*
X163012453Y-96931130D02*
X163060072Y-96950178D01*
X163060072Y-96950178D02*
X163083882Y-96988273D01*
X163083882Y-96988273D02*
X163083882Y-97197797D01*
X163512453Y-97178750D02*
X163464834Y-97197797D01*
X163464834Y-97197797D02*
X163369596Y-97197797D01*
X163369596Y-97197797D02*
X163321977Y-97178750D01*
X163321977Y-97178750D02*
X163298168Y-97140654D01*
X163298168Y-97140654D02*
X163298168Y-96988273D01*
X163298168Y-96988273D02*
X163321977Y-96950178D01*
X163321977Y-96950178D02*
X163369596Y-96931130D01*
X163369596Y-96931130D02*
X163464834Y-96931130D01*
X163464834Y-96931130D02*
X163512453Y-96950178D01*
X163512453Y-96950178D02*
X163536263Y-96988273D01*
X163536263Y-96988273D02*
X163536263Y-97026369D01*
X163536263Y-97026369D02*
X163298168Y-97064464D01*
X164083881Y-96797797D02*
X164202929Y-97197797D01*
X164202929Y-97197797D02*
X164298167Y-96912083D01*
X164298167Y-96912083D02*
X164393405Y-97197797D01*
X164393405Y-97197797D02*
X164512453Y-96797797D01*
D11*
X157983239Y-94301399D02*
X158316572Y-94301399D01*
X158459429Y-94694256D02*
X157983239Y-94694256D01*
X157983239Y-94694256D02*
X157983239Y-93944256D01*
X157983239Y-93944256D02*
X158459429Y-93944256D01*
X159364191Y-94694256D02*
X158888001Y-94694256D01*
X158888001Y-94694256D02*
X158888001Y-93944256D01*
X159697525Y-94301399D02*
X160030858Y-94301399D01*
X160173715Y-94694256D02*
X159697525Y-94694256D01*
X159697525Y-94694256D02*
X159697525Y-93944256D01*
X159697525Y-93944256D02*
X160173715Y-93944256D01*
X161173715Y-94622827D02*
X161126096Y-94658542D01*
X161126096Y-94658542D02*
X160983239Y-94694256D01*
X160983239Y-94694256D02*
X160888001Y-94694256D01*
X160888001Y-94694256D02*
X160745144Y-94658542D01*
X160745144Y-94658542D02*
X160649906Y-94587113D01*
X160649906Y-94587113D02*
X160602287Y-94515684D01*
X160602287Y-94515684D02*
X160554668Y-94372827D01*
X160554668Y-94372827D02*
X160554668Y-94265684D01*
X160554668Y-94265684D02*
X160602287Y-94122827D01*
X160602287Y-94122827D02*
X160649906Y-94051399D01*
X160649906Y-94051399D02*
X160745144Y-93979970D01*
X160745144Y-93979970D02*
X160888001Y-93944256D01*
X160888001Y-93944256D02*
X160983239Y-93944256D01*
X160983239Y-93944256D02*
X161126096Y-93979970D01*
X161126096Y-93979970D02*
X161173715Y-94015684D01*
X161459430Y-93944256D02*
X162030858Y-93944256D01*
X161745144Y-94694256D02*
X161745144Y-93944256D01*
X162935620Y-94694256D02*
X162602287Y-94337113D01*
X162364192Y-94694256D02*
X162364192Y-93944256D01*
X162364192Y-93944256D02*
X162745144Y-93944256D01*
X162745144Y-93944256D02*
X162840382Y-93979970D01*
X162840382Y-93979970D02*
X162888001Y-94015684D01*
X162888001Y-94015684D02*
X162935620Y-94087113D01*
X162935620Y-94087113D02*
X162935620Y-94194256D01*
X162935620Y-94194256D02*
X162888001Y-94265684D01*
X162888001Y-94265684D02*
X162840382Y-94301399D01*
X162840382Y-94301399D02*
X162745144Y-94337113D01*
X162745144Y-94337113D02*
X162364192Y-94337113D01*
X163364192Y-94301399D02*
X163697525Y-94301399D01*
X163840382Y-94694256D02*
X163364192Y-94694256D01*
X163364192Y-94694256D02*
X163364192Y-93944256D01*
X163364192Y-93944256D02*
X163840382Y-93944256D01*
X164126097Y-93944256D02*
X164697525Y-93944256D01*
X164411811Y-94694256D02*
X164411811Y-93944256D01*
X159173716Y-95151714D02*
X159745144Y-95151714D01*
X159459430Y-95901714D02*
X159459430Y-95151714D01*
X160268954Y-95151714D02*
X160459430Y-95151714D01*
X160459430Y-95151714D02*
X160554668Y-95187428D01*
X160554668Y-95187428D02*
X160649906Y-95258857D01*
X160649906Y-95258857D02*
X160697525Y-95401714D01*
X160697525Y-95401714D02*
X160697525Y-95651714D01*
X160697525Y-95651714D02*
X160649906Y-95794571D01*
X160649906Y-95794571D02*
X160554668Y-95866000D01*
X160554668Y-95866000D02*
X160459430Y-95901714D01*
X160459430Y-95901714D02*
X160268954Y-95901714D01*
X160268954Y-95901714D02*
X160173716Y-95866000D01*
X160173716Y-95866000D02*
X160078478Y-95794571D01*
X160078478Y-95794571D02*
X160030859Y-95651714D01*
X160030859Y-95651714D02*
X160030859Y-95401714D01*
X160030859Y-95401714D02*
X160078478Y-95258857D01*
X160078478Y-95258857D02*
X160173716Y-95187428D01*
X160173716Y-95187428D02*
X160268954Y-95151714D01*
X161888002Y-95901714D02*
X161888002Y-95151714D01*
X161888002Y-95151714D02*
X162268954Y-95151714D01*
X162268954Y-95151714D02*
X162364192Y-95187428D01*
X162364192Y-95187428D02*
X162411811Y-95223142D01*
X162411811Y-95223142D02*
X162459430Y-95294571D01*
X162459430Y-95294571D02*
X162459430Y-95401714D01*
X162459430Y-95401714D02*
X162411811Y-95473142D01*
X162411811Y-95473142D02*
X162364192Y-95508857D01*
X162364192Y-95508857D02*
X162268954Y-95544571D01*
X162268954Y-95544571D02*
X161888002Y-95544571D01*
X162888002Y-95901714D02*
X162888002Y-95151714D01*
X162888002Y-95151714D02*
X163126097Y-95151714D01*
X163126097Y-95151714D02*
X163268954Y-95187428D01*
X163268954Y-95187428D02*
X163364192Y-95258857D01*
X163364192Y-95258857D02*
X163411811Y-95330285D01*
X163411811Y-95330285D02*
X163459430Y-95473142D01*
X163459430Y-95473142D02*
X163459430Y-95580285D01*
X163459430Y-95580285D02*
X163411811Y-95723142D01*
X163411811Y-95723142D02*
X163364192Y-95794571D01*
X163364192Y-95794571D02*
X163268954Y-95866000D01*
X163268954Y-95866000D02*
X163126097Y-95901714D01*
X163126097Y-95901714D02*
X162888002Y-95901714D01*
X163888002Y-95901714D02*
X163888002Y-95151714D01*
X163888002Y-95151714D02*
X164221335Y-95687428D01*
X164221335Y-95687428D02*
X164554668Y-95151714D01*
X164554668Y-95151714D02*
X164554668Y-95901714D01*
X147147322Y-95408527D02*
X147054725Y-95450617D01*
X147054725Y-95450617D02*
X146953710Y-95551632D01*
X146953710Y-95551632D02*
X146877948Y-95677901D01*
X146877948Y-95677901D02*
X146861113Y-95795752D01*
X146861113Y-95795752D02*
X146877948Y-95879932D01*
X146877948Y-95879932D02*
X146945292Y-96014619D01*
X146945292Y-96014619D02*
X147021053Y-96090380D01*
X147021053Y-96090380D02*
X147155740Y-96157724D01*
X147155740Y-96157724D02*
X147239920Y-96174559D01*
X147239920Y-96174559D02*
X147357771Y-96157724D01*
X147357771Y-96157724D02*
X147484040Y-96081962D01*
X147484040Y-96081962D02*
X147551383Y-96014619D01*
X147551383Y-96014619D02*
X147627145Y-95888350D01*
X147627145Y-95888350D02*
X147635563Y-95829424D01*
X147635563Y-95829424D02*
X147458786Y-95652647D01*
X147458786Y-95652647D02*
X147324099Y-95787334D01*
X147989116Y-95576886D02*
X147458786Y-95046556D01*
X147458786Y-95046556D02*
X148393177Y-95172825D01*
X148393177Y-95172825D02*
X147862847Y-94642495D01*
X148729895Y-94836107D02*
X148199565Y-94305777D01*
X148199565Y-94305777D02*
X148367923Y-94137418D01*
X148367923Y-94137418D02*
X148494192Y-94061657D01*
X148494192Y-94061657D02*
X148612044Y-94044821D01*
X148612044Y-94044821D02*
X148696223Y-94061657D01*
X148696223Y-94061657D02*
X148830910Y-94129001D01*
X148830910Y-94129001D02*
X148906671Y-94204762D01*
X148906671Y-94204762D02*
X148974015Y-94339449D01*
X148974015Y-94339449D02*
X148990851Y-94423628D01*
X148990851Y-94423628D02*
X148974015Y-94541480D01*
X148974015Y-94541480D02*
X148898253Y-94667749D01*
X148898253Y-94667749D02*
X148729895Y-94836107D01*
X147282009Y-98783993D02*
X146751679Y-98253663D01*
X146751679Y-98253663D02*
X146920038Y-98085304D01*
X146920038Y-98085304D02*
X147046307Y-98009542D01*
X147046307Y-98009542D02*
X147164158Y-97992706D01*
X147164158Y-97992706D02*
X147248338Y-98009542D01*
X147248338Y-98009542D02*
X147383025Y-98076886D01*
X147383025Y-98076886D02*
X147458786Y-98152647D01*
X147458786Y-98152647D02*
X147526130Y-98287334D01*
X147526130Y-98287334D02*
X147542965Y-98371514D01*
X147542965Y-98371514D02*
X147526130Y-98489365D01*
X147526130Y-98489365D02*
X147450368Y-98615634D01*
X147450368Y-98615634D02*
X147282009Y-98783993D01*
X147803922Y-97959035D02*
X148140639Y-97622317D01*
X147888101Y-98177901D02*
X147593473Y-97411869D01*
X147593473Y-97411869D02*
X148359505Y-97706497D01*
X147963862Y-97041479D02*
X148367923Y-96637418D01*
X148696223Y-97369779D02*
X148165893Y-96839449D01*
X147635563Y-101079424D02*
X147627145Y-101138350D01*
X147627145Y-101138350D02*
X147551383Y-101264619D01*
X147551383Y-101264619D02*
X147484040Y-101331962D01*
X147484040Y-101331962D02*
X147357771Y-101407724D01*
X147357771Y-101407724D02*
X147239920Y-101424559D01*
X147239920Y-101424559D02*
X147155740Y-101407724D01*
X147155740Y-101407724D02*
X147021053Y-101340380D01*
X147021053Y-101340380D02*
X146945292Y-101264619D01*
X146945292Y-101264619D02*
X146877948Y-101129932D01*
X146877948Y-101129932D02*
X146861113Y-101045752D01*
X146861113Y-101045752D02*
X146877948Y-100927901D01*
X146877948Y-100927901D02*
X146953710Y-100801632D01*
X146953710Y-100801632D02*
X147021053Y-100734289D01*
X147021053Y-100734289D02*
X147147322Y-100658527D01*
X147147322Y-100658527D02*
X147206248Y-100650109D01*
X148325834Y-100490168D02*
X147989116Y-100826886D01*
X147989116Y-100826886D02*
X147458786Y-100296556D01*
X148561536Y-100254466D02*
X148031206Y-99724136D01*
X148965597Y-99850405D02*
X148359506Y-99850405D01*
X148435267Y-99320075D02*
X148334252Y-100027182D01*
X146900664Y-103604678D02*
X147666696Y-103899306D01*
X147666696Y-103899306D02*
X147372069Y-103133273D01*
X148138101Y-103427901D02*
X147607771Y-102897571D01*
X147607771Y-102897571D02*
X147776130Y-102729212D01*
X147776130Y-102729212D02*
X147902399Y-102653451D01*
X147902399Y-102653451D02*
X148020250Y-102636615D01*
X148020250Y-102636615D02*
X148104429Y-102653451D01*
X148104429Y-102653451D02*
X148239116Y-102720794D01*
X148239116Y-102720794D02*
X148314878Y-102796556D01*
X148314878Y-102796556D02*
X148382221Y-102931243D01*
X148382221Y-102931243D02*
X148399057Y-103015422D01*
X148399057Y-103015422D02*
X148382221Y-103133273D01*
X148382221Y-103133273D02*
X148306460Y-103259542D01*
X148306460Y-103259542D02*
X148138101Y-103427901D01*
X148845208Y-102720794D02*
X148314878Y-102190464D01*
X148314878Y-102190464D02*
X148483236Y-102022105D01*
X148483236Y-102022105D02*
X148609506Y-101946344D01*
X148609506Y-101946344D02*
X148727357Y-101929508D01*
X148727357Y-101929508D02*
X148811536Y-101946344D01*
X148811536Y-101946344D02*
X148946223Y-102013687D01*
X148946223Y-102013687D02*
X149021984Y-102089449D01*
X149021984Y-102089449D02*
X149089328Y-102224136D01*
X149089328Y-102224136D02*
X149106164Y-102308315D01*
X149106164Y-102308315D02*
X149089328Y-102426166D01*
X149089328Y-102426166D02*
X149013567Y-102552435D01*
X149013567Y-102552435D02*
X148845208Y-102720794D01*
X149897322Y-102328527D02*
X149804725Y-102370617D01*
X149804725Y-102370617D02*
X149703710Y-102471632D01*
X149703710Y-102471632D02*
X149627948Y-102597901D01*
X149627948Y-102597901D02*
X149611113Y-102715752D01*
X149611113Y-102715752D02*
X149627948Y-102799932D01*
X149627948Y-102799932D02*
X149695292Y-102934619D01*
X149695292Y-102934619D02*
X149771053Y-103010380D01*
X149771053Y-103010380D02*
X149905740Y-103077724D01*
X149905740Y-103077724D02*
X149989920Y-103094559D01*
X149989920Y-103094559D02*
X150107771Y-103077724D01*
X150107771Y-103077724D02*
X150234040Y-103001962D01*
X150234040Y-103001962D02*
X150301383Y-102934619D01*
X150301383Y-102934619D02*
X150377145Y-102808350D01*
X150377145Y-102808350D02*
X150385563Y-102749424D01*
X150385563Y-102749424D02*
X150208786Y-102572647D01*
X150208786Y-102572647D02*
X150074099Y-102707334D01*
X150739116Y-102496886D02*
X150208786Y-101966556D01*
X150208786Y-101966556D02*
X151143177Y-102092825D01*
X151143177Y-102092825D02*
X150612847Y-101562495D01*
X151479895Y-101756107D02*
X150949565Y-101225777D01*
X150949565Y-101225777D02*
X151117923Y-101057418D01*
X151117923Y-101057418D02*
X151244192Y-100981657D01*
X151244192Y-100981657D02*
X151362044Y-100964821D01*
X151362044Y-100964821D02*
X151446223Y-100981657D01*
X151446223Y-100981657D02*
X151580910Y-101049001D01*
X151580910Y-101049001D02*
X151656671Y-101124762D01*
X151656671Y-101124762D02*
X151724015Y-101259449D01*
X151724015Y-101259449D02*
X151740851Y-101343628D01*
X151740851Y-101343628D02*
X151724015Y-101461480D01*
X151724015Y-101461480D02*
X151648253Y-101587749D01*
X151648253Y-101587749D02*
X151479895Y-101756107D01*
X150282009Y-105703993D02*
X149751679Y-105173663D01*
X149751679Y-105173663D02*
X150366189Y-105316767D01*
X150366189Y-105316767D02*
X150223084Y-104702258D01*
X150223084Y-104702258D02*
X150753414Y-105232588D01*
X151090131Y-104895871D02*
X150559801Y-104365541D01*
X151780402Y-104104585D02*
X151771984Y-104163510D01*
X151771984Y-104163510D02*
X151696223Y-104289779D01*
X151696223Y-104289779D02*
X151628879Y-104357123D01*
X151628879Y-104357123D02*
X151502610Y-104432884D01*
X151502610Y-104432884D02*
X151384759Y-104449720D01*
X151384759Y-104449720D02*
X151300579Y-104432884D01*
X151300579Y-104432884D02*
X151165892Y-104365541D01*
X151165892Y-104365541D02*
X151090131Y-104289779D01*
X151090131Y-104289779D02*
X151022787Y-104155092D01*
X151022787Y-104155092D02*
X151005952Y-104070913D01*
X151005952Y-104070913D02*
X151022787Y-103953062D01*
X151022787Y-103953062D02*
X151098549Y-103826793D01*
X151098549Y-103826793D02*
X151165892Y-103759449D01*
X151165892Y-103759449D02*
X151292162Y-103683688D01*
X151292162Y-103683688D02*
X151351087Y-103675270D01*
D12*
X146286653Y-111300828D02*
X145786653Y-110586542D01*
X145429510Y-111300828D02*
X145429510Y-109800828D01*
X145429510Y-109800828D02*
X146000939Y-109800828D01*
X146000939Y-109800828D02*
X146143796Y-109872257D01*
X146143796Y-109872257D02*
X146215225Y-109943685D01*
X146215225Y-109943685D02*
X146286653Y-110086542D01*
X146286653Y-110086542D02*
X146286653Y-110300828D01*
X146286653Y-110300828D02*
X146215225Y-110443685D01*
X146215225Y-110443685D02*
X146143796Y-110515114D01*
X146143796Y-110515114D02*
X146000939Y-110586542D01*
X146000939Y-110586542D02*
X145429510Y-110586542D01*
X156393796Y-111300828D02*
X155679510Y-111300828D01*
X155679510Y-111300828D02*
X155679510Y-109800828D01*
D13*
X141958333Y-110204819D02*
X141625000Y-109728628D01*
X141386905Y-110204819D02*
X141386905Y-109204819D01*
X141386905Y-109204819D02*
X141767857Y-109204819D01*
X141767857Y-109204819D02*
X141863095Y-109252438D01*
X141863095Y-109252438D02*
X141910714Y-109300057D01*
X141910714Y-109300057D02*
X141958333Y-109395295D01*
X141958333Y-109395295D02*
X141958333Y-109538152D01*
X141958333Y-109538152D02*
X141910714Y-109633390D01*
X141910714Y-109633390D02*
X141863095Y-109681009D01*
X141863095Y-109681009D02*
X141767857Y-109728628D01*
X141767857Y-109728628D02*
X141386905Y-109728628D01*
X142863095Y-109204819D02*
X142386905Y-109204819D01*
X142386905Y-109204819D02*
X142339286Y-109681009D01*
X142339286Y-109681009D02*
X142386905Y-109633390D01*
X142386905Y-109633390D02*
X142482143Y-109585771D01*
X142482143Y-109585771D02*
X142720238Y-109585771D01*
X142720238Y-109585771D02*
X142815476Y-109633390D01*
X142815476Y-109633390D02*
X142863095Y-109681009D01*
X142863095Y-109681009D02*
X142910714Y-109776247D01*
X142910714Y-109776247D02*
X142910714Y-110014342D01*
X142910714Y-110014342D02*
X142863095Y-110109580D01*
X142863095Y-110109580D02*
X142815476Y-110157200D01*
X142815476Y-110157200D02*
X142720238Y-110204819D01*
X142720238Y-110204819D02*
X142482143Y-110204819D01*
X142482143Y-110204819D02*
X142386905Y-110157200D01*
X142386905Y-110157200D02*
X142339286Y-110109580D01*
X139863095Y-112204819D02*
X139863095Y-111204819D01*
X139863095Y-111681009D02*
X140434523Y-111681009D01*
X140434523Y-112204819D02*
X140434523Y-111204819D01*
X140863095Y-111300057D02*
X140910714Y-111252438D01*
X140910714Y-111252438D02*
X141005952Y-111204819D01*
X141005952Y-111204819D02*
X141244047Y-111204819D01*
X141244047Y-111204819D02*
X141339285Y-111252438D01*
X141339285Y-111252438D02*
X141386904Y-111300057D01*
X141386904Y-111300057D02*
X141434523Y-111395295D01*
X141434523Y-111395295D02*
X141434523Y-111490533D01*
X141434523Y-111490533D02*
X141386904Y-111633390D01*
X141386904Y-111633390D02*
X140815476Y-112204819D01*
X140815476Y-112204819D02*
X141434523Y-112204819D01*
X143333333Y-90098569D02*
X143000000Y-89622378D01*
X142761905Y-90098569D02*
X142761905Y-89098569D01*
X142761905Y-89098569D02*
X143142857Y-89098569D01*
X143142857Y-89098569D02*
X143238095Y-89146188D01*
X143238095Y-89146188D02*
X143285714Y-89193807D01*
X143285714Y-89193807D02*
X143333333Y-89289045D01*
X143333333Y-89289045D02*
X143333333Y-89431902D01*
X143333333Y-89431902D02*
X143285714Y-89527140D01*
X143285714Y-89527140D02*
X143238095Y-89574759D01*
X143238095Y-89574759D02*
X143142857Y-89622378D01*
X143142857Y-89622378D02*
X142761905Y-89622378D01*
X143666667Y-89098569D02*
X144285714Y-89098569D01*
X144285714Y-89098569D02*
X143952381Y-89479521D01*
X143952381Y-89479521D02*
X144095238Y-89479521D01*
X144095238Y-89479521D02*
X144190476Y-89527140D01*
X144190476Y-89527140D02*
X144238095Y-89574759D01*
X144238095Y-89574759D02*
X144285714Y-89669997D01*
X144285714Y-89669997D02*
X144285714Y-89908092D01*
X144285714Y-89908092D02*
X144238095Y-90003330D01*
X144238095Y-90003330D02*
X144190476Y-90050950D01*
X144190476Y-90050950D02*
X144095238Y-90098569D01*
X144095238Y-90098569D02*
X143809524Y-90098569D01*
X143809524Y-90098569D02*
X143714286Y-90050950D01*
X143714286Y-90050950D02*
X143666667Y-90003330D01*
X155484580Y-92916666D02*
X155532200Y-92964285D01*
X155532200Y-92964285D02*
X155579819Y-93107142D01*
X155579819Y-93107142D02*
X155579819Y-93202380D01*
X155579819Y-93202380D02*
X155532200Y-93345237D01*
X155532200Y-93345237D02*
X155436961Y-93440475D01*
X155436961Y-93440475D02*
X155341723Y-93488094D01*
X155341723Y-93488094D02*
X155151247Y-93535713D01*
X155151247Y-93535713D02*
X155008390Y-93535713D01*
X155008390Y-93535713D02*
X154817914Y-93488094D01*
X154817914Y-93488094D02*
X154722676Y-93440475D01*
X154722676Y-93440475D02*
X154627438Y-93345237D01*
X154627438Y-93345237D02*
X154579819Y-93202380D01*
X154579819Y-93202380D02*
X154579819Y-93107142D01*
X154579819Y-93107142D02*
X154627438Y-92964285D01*
X154627438Y-92964285D02*
X154675057Y-92916666D01*
X155579819Y-91964285D02*
X155579819Y-92535713D01*
X155579819Y-92249999D02*
X154579819Y-92249999D01*
X154579819Y-92249999D02*
X154722676Y-92345237D01*
X154722676Y-92345237D02*
X154817914Y-92440475D01*
X154817914Y-92440475D02*
X154865533Y-92535713D01*
X158458333Y-109954819D02*
X158125000Y-109478628D01*
X157886905Y-109954819D02*
X157886905Y-108954819D01*
X157886905Y-108954819D02*
X158267857Y-108954819D01*
X158267857Y-108954819D02*
X158363095Y-109002438D01*
X158363095Y-109002438D02*
X158410714Y-109050057D01*
X158410714Y-109050057D02*
X158458333Y-109145295D01*
X158458333Y-109145295D02*
X158458333Y-109288152D01*
X158458333Y-109288152D02*
X158410714Y-109383390D01*
X158410714Y-109383390D02*
X158363095Y-109431009D01*
X158363095Y-109431009D02*
X158267857Y-109478628D01*
X158267857Y-109478628D02*
X157886905Y-109478628D01*
X159315476Y-109288152D02*
X159315476Y-109954819D01*
X159077381Y-108907200D02*
X158839286Y-109621485D01*
X158839286Y-109621485D02*
X159458333Y-109621485D01*
X150041666Y-107454819D02*
X150041666Y-108169104D01*
X150041666Y-108169104D02*
X149994047Y-108311961D01*
X149994047Y-108311961D02*
X149898809Y-108407200D01*
X149898809Y-108407200D02*
X149755952Y-108454819D01*
X149755952Y-108454819D02*
X149660714Y-108454819D01*
X150517857Y-108454819D02*
X150517857Y-107454819D01*
X150517857Y-107454819D02*
X150898809Y-107454819D01*
X150898809Y-107454819D02*
X150994047Y-107502438D01*
X150994047Y-107502438D02*
X151041666Y-107550057D01*
X151041666Y-107550057D02*
X151089285Y-107645295D01*
X151089285Y-107645295D02*
X151089285Y-107788152D01*
X151089285Y-107788152D02*
X151041666Y-107883390D01*
X151041666Y-107883390D02*
X150994047Y-107931009D01*
X150994047Y-107931009D02*
X150898809Y-107978628D01*
X150898809Y-107978628D02*
X150517857Y-107978628D01*
X152041666Y-108454819D02*
X151470238Y-108454819D01*
X151755952Y-108454819D02*
X151755952Y-107454819D01*
X151755952Y-107454819D02*
X151660714Y-107597676D01*
X151660714Y-107597676D02*
X151565476Y-107692914D01*
X151565476Y-107692914D02*
X151470238Y-107740533D01*
X158613095Y-88204819D02*
X158613095Y-87204819D01*
X158613095Y-87681009D02*
X159184523Y-87681009D01*
X159184523Y-88204819D02*
X159184523Y-87204819D01*
X160089285Y-87538152D02*
X160089285Y-88204819D01*
X159851190Y-87157200D02*
X159613095Y-87871485D01*
X159613095Y-87871485D02*
X160232142Y-87871485D01*
X147829819Y-106416666D02*
X147353628Y-106749999D01*
X147829819Y-106988094D02*
X146829819Y-106988094D01*
X146829819Y-106988094D02*
X146829819Y-106607142D01*
X146829819Y-106607142D02*
X146877438Y-106511904D01*
X146877438Y-106511904D02*
X146925057Y-106464285D01*
X146925057Y-106464285D02*
X147020295Y-106416666D01*
X147020295Y-106416666D02*
X147163152Y-106416666D01*
X147163152Y-106416666D02*
X147258390Y-106464285D01*
X147258390Y-106464285D02*
X147306009Y-106511904D01*
X147306009Y-106511904D02*
X147353628Y-106607142D01*
X147353628Y-106607142D02*
X147353628Y-106988094D01*
X146925057Y-106035713D02*
X146877438Y-105988094D01*
X146877438Y-105988094D02*
X146829819Y-105892856D01*
X146829819Y-105892856D02*
X146829819Y-105654761D01*
X146829819Y-105654761D02*
X146877438Y-105559523D01*
X146877438Y-105559523D02*
X146925057Y-105511904D01*
X146925057Y-105511904D02*
X147020295Y-105464285D01*
X147020295Y-105464285D02*
X147115533Y-105464285D01*
X147115533Y-105464285D02*
X147258390Y-105511904D01*
X147258390Y-105511904D02*
X147829819Y-106083332D01*
X147829819Y-106083332D02*
X147829819Y-105464285D01*
X151458333Y-94109580D02*
X151410714Y-94157200D01*
X151410714Y-94157200D02*
X151267857Y-94204819D01*
X151267857Y-94204819D02*
X151172619Y-94204819D01*
X151172619Y-94204819D02*
X151029762Y-94157200D01*
X151029762Y-94157200D02*
X150934524Y-94061961D01*
X150934524Y-94061961D02*
X150886905Y-93966723D01*
X150886905Y-93966723D02*
X150839286Y-93776247D01*
X150839286Y-93776247D02*
X150839286Y-93633390D01*
X150839286Y-93633390D02*
X150886905Y-93442914D01*
X150886905Y-93442914D02*
X150934524Y-93347676D01*
X150934524Y-93347676D02*
X151029762Y-93252438D01*
X151029762Y-93252438D02*
X151172619Y-93204819D01*
X151172619Y-93204819D02*
X151267857Y-93204819D01*
X151267857Y-93204819D02*
X151410714Y-93252438D01*
X151410714Y-93252438D02*
X151458333Y-93300057D01*
X151839286Y-93300057D02*
X151886905Y-93252438D01*
X151886905Y-93252438D02*
X151982143Y-93204819D01*
X151982143Y-93204819D02*
X152220238Y-93204819D01*
X152220238Y-93204819D02*
X152315476Y-93252438D01*
X152315476Y-93252438D02*
X152363095Y-93300057D01*
X152363095Y-93300057D02*
X152410714Y-93395295D01*
X152410714Y-93395295D02*
X152410714Y-93490533D01*
X152410714Y-93490533D02*
X152363095Y-93633390D01*
X152363095Y-93633390D02*
X151791667Y-94204819D01*
X151791667Y-94204819D02*
X152410714Y-94204819D01*
X151208333Y-89359580D02*
X151160714Y-89407200D01*
X151160714Y-89407200D02*
X151017857Y-89454819D01*
X151017857Y-89454819D02*
X150922619Y-89454819D01*
X150922619Y-89454819D02*
X150779762Y-89407200D01*
X150779762Y-89407200D02*
X150684524Y-89311961D01*
X150684524Y-89311961D02*
X150636905Y-89216723D01*
X150636905Y-89216723D02*
X150589286Y-89026247D01*
X150589286Y-89026247D02*
X150589286Y-88883390D01*
X150589286Y-88883390D02*
X150636905Y-88692914D01*
X150636905Y-88692914D02*
X150684524Y-88597676D01*
X150684524Y-88597676D02*
X150779762Y-88502438D01*
X150779762Y-88502438D02*
X150922619Y-88454819D01*
X150922619Y-88454819D02*
X151017857Y-88454819D01*
X151017857Y-88454819D02*
X151160714Y-88502438D01*
X151160714Y-88502438D02*
X151208333Y-88550057D01*
X151541667Y-88454819D02*
X152160714Y-88454819D01*
X152160714Y-88454819D02*
X151827381Y-88835771D01*
X151827381Y-88835771D02*
X151970238Y-88835771D01*
X151970238Y-88835771D02*
X152065476Y-88883390D01*
X152065476Y-88883390D02*
X152113095Y-88931009D01*
X152113095Y-88931009D02*
X152160714Y-89026247D01*
X152160714Y-89026247D02*
X152160714Y-89264342D01*
X152160714Y-89264342D02*
X152113095Y-89359580D01*
X152113095Y-89359580D02*
X152065476Y-89407200D01*
X152065476Y-89407200D02*
X151970238Y-89454819D01*
X151970238Y-89454819D02*
X151684524Y-89454819D01*
X151684524Y-89454819D02*
X151589286Y-89407200D01*
X151589286Y-89407200D02*
X151541667Y-89359580D01*
D14*
X154157380Y-87304318D02*
X154157380Y-88332413D01*
X154157380Y-88332413D02*
X154217857Y-88453365D01*
X154217857Y-88453365D02*
X154278333Y-88513842D01*
X154278333Y-88513842D02*
X154399285Y-88574318D01*
X154399285Y-88574318D02*
X154641190Y-88574318D01*
X154641190Y-88574318D02*
X154762142Y-88513842D01*
X154762142Y-88513842D02*
X154822619Y-88453365D01*
X154822619Y-88453365D02*
X154883095Y-88332413D01*
X154883095Y-88332413D02*
X154883095Y-87304318D01*
X156153095Y-88574318D02*
X155427380Y-88574318D01*
X155790237Y-88574318D02*
X155790237Y-87304318D01*
X155790237Y-87304318D02*
X155669285Y-87485746D01*
X155669285Y-87485746D02*
X155548333Y-87606699D01*
X155548333Y-87606699D02*
X155427380Y-87667175D01*
D13*
X147291666Y-92454819D02*
X147291666Y-93169104D01*
X147291666Y-93169104D02*
X147244047Y-93311961D01*
X147244047Y-93311961D02*
X147148809Y-93407200D01*
X147148809Y-93407200D02*
X147005952Y-93454819D01*
X147005952Y-93454819D02*
X146910714Y-93454819D01*
X148291666Y-93454819D02*
X147720238Y-93454819D01*
X148005952Y-93454819D02*
X148005952Y-92454819D01*
X148005952Y-92454819D02*
X147910714Y-92597676D01*
X147910714Y-92597676D02*
X147815476Y-92692914D01*
X147815476Y-92692914D02*
X147720238Y-92740533D01*
X150541666Y-97704819D02*
X150541666Y-98419104D01*
X150541666Y-98419104D02*
X150494047Y-98561961D01*
X150494047Y-98561961D02*
X150398809Y-98657200D01*
X150398809Y-98657200D02*
X150255952Y-98704819D01*
X150255952Y-98704819D02*
X150160714Y-98704819D01*
X150970238Y-97800057D02*
X151017857Y-97752438D01*
X151017857Y-97752438D02*
X151113095Y-97704819D01*
X151113095Y-97704819D02*
X151351190Y-97704819D01*
X151351190Y-97704819D02*
X151446428Y-97752438D01*
X151446428Y-97752438D02*
X151494047Y-97800057D01*
X151494047Y-97800057D02*
X151541666Y-97895295D01*
X151541666Y-97895295D02*
X151541666Y-97990533D01*
X151541666Y-97990533D02*
X151494047Y-98133390D01*
X151494047Y-98133390D02*
X150922619Y-98704819D01*
X150922619Y-98704819D02*
X151541666Y-98704819D01*
X143333333Y-88348569D02*
X142857143Y-88348569D01*
X142857143Y-88348569D02*
X142857143Y-87348569D01*
X144190476Y-88348569D02*
X143619048Y-88348569D01*
X143904762Y-88348569D02*
X143904762Y-87348569D01*
X143904762Y-87348569D02*
X143809524Y-87491426D01*
X143809524Y-87491426D02*
X143714286Y-87586664D01*
X143714286Y-87586664D02*
X143619048Y-87634283D01*
X158613095Y-112204819D02*
X158613095Y-111204819D01*
X158613095Y-111681009D02*
X159184523Y-111681009D01*
X159184523Y-112204819D02*
X159184523Y-111204819D01*
X159565476Y-111204819D02*
X160184523Y-111204819D01*
X160184523Y-111204819D02*
X159851190Y-111585771D01*
X159851190Y-111585771D02*
X159994047Y-111585771D01*
X159994047Y-111585771D02*
X160089285Y-111633390D01*
X160089285Y-111633390D02*
X160136904Y-111681009D01*
X160136904Y-111681009D02*
X160184523Y-111776247D01*
X160184523Y-111776247D02*
X160184523Y-112014342D01*
X160184523Y-112014342D02*
X160136904Y-112109580D01*
X160136904Y-112109580D02*
X160089285Y-112157200D01*
X160089285Y-112157200D02*
X159994047Y-112204819D01*
X159994047Y-112204819D02*
X159708333Y-112204819D01*
X159708333Y-112204819D02*
X159613095Y-112157200D01*
X159613095Y-112157200D02*
X159565476Y-112109580D01*
X158079819Y-92916666D02*
X157603628Y-93249999D01*
X158079819Y-93488094D02*
X157079819Y-93488094D01*
X157079819Y-93488094D02*
X157079819Y-93107142D01*
X157079819Y-93107142D02*
X157127438Y-93011904D01*
X157127438Y-93011904D02*
X157175057Y-92964285D01*
X157175057Y-92964285D02*
X157270295Y-92916666D01*
X157270295Y-92916666D02*
X157413152Y-92916666D01*
X157413152Y-92916666D02*
X157508390Y-92964285D01*
X157508390Y-92964285D02*
X157556009Y-93011904D01*
X157556009Y-93011904D02*
X157603628Y-93107142D01*
X157603628Y-93107142D02*
X157603628Y-93488094D01*
X158079819Y-91964285D02*
X158079819Y-92535713D01*
X158079819Y-92249999D02*
X157079819Y-92249999D01*
X157079819Y-92249999D02*
X157222676Y-92345237D01*
X157222676Y-92345237D02*
X157317914Y-92440475D01*
X157317914Y-92440475D02*
X157365533Y-92535713D01*
X139863095Y-88204819D02*
X139863095Y-87204819D01*
X139863095Y-87681009D02*
X140434523Y-87681009D01*
X140434523Y-88204819D02*
X140434523Y-87204819D01*
X141434523Y-88204819D02*
X140863095Y-88204819D01*
X141148809Y-88204819D02*
X141148809Y-87204819D01*
X141148809Y-87204819D02*
X141053571Y-87347676D01*
X141053571Y-87347676D02*
X140958333Y-87442914D01*
X140958333Y-87442914D02*
X140863095Y-87490533D01*
%TO.C,R5*%
D15*
X143352500Y-109495276D02*
X143352500Y-110004724D01*
X144397500Y-109495276D02*
X144397500Y-110004724D01*
%TO.C,R3*%
X146754724Y-89121250D02*
X146245276Y-89121250D01*
X146754724Y-90166250D02*
X146245276Y-90166250D01*
%TO.C,C1*%
X153665000Y-92584165D02*
X153665000Y-92815835D01*
X154385000Y-92584165D02*
X154385000Y-92815835D01*
%TO.C,R4*%
X156352500Y-109504724D02*
X156352500Y-108995276D01*
X157397500Y-109504724D02*
X157397500Y-108995276D01*
%TO.C,JP1*%
X146955000Y-111880000D02*
X146955000Y-110500000D01*
X148335000Y-111880000D02*
X146955000Y-111880000D01*
X149605000Y-109120000D02*
X154795000Y-109120000D01*
X149605000Y-111880000D02*
X149605000Y-109120000D01*
X149605000Y-111880000D02*
X154795000Y-111880000D01*
X154795000Y-111880000D02*
X154795000Y-109120000D01*
%TO.C,R2*%
X148352500Y-106254724D02*
X148352500Y-105745276D01*
X149397500Y-106254724D02*
X149397500Y-105745276D01*
%TO.C,C2*%
X151628733Y-91690000D02*
X151921267Y-91690000D01*
X151628733Y-92710000D02*
X151921267Y-92710000D01*
%TO.C,C3*%
X151921267Y-89940000D02*
X151628733Y-89940000D01*
X151921267Y-90960000D02*
X151628733Y-90960000D01*
%TO.C,U1*%
D16*
X154471000Y-88896000D02*
X155779000Y-88896000D01*
X154471000Y-90604000D02*
X154471000Y-88896000D01*
X155325000Y-90604000D02*
X154471000Y-90604000D01*
X155779000Y-88896000D02*
X155779000Y-90150000D01*
X155779000Y-90150000D02*
X155325000Y-90604000D01*
X155879000Y-90604000D02*
G75*
G02*
X155679000Y-90604000I-100000J0D01*
G01*
X155679000Y-90604000D02*
G75*
G02*
X155879000Y-90604000I100000J0D01*
G01*
%TO.C,J1*%
D17*
X132308999Y-92645300D02*
X132308999Y-106894700D01*
X132308999Y-106894700D02*
X135975213Y-106894700D01*
X135975213Y-92645300D02*
X132308999Y-92645300D01*
X137494786Y-106894700D02*
X146152000Y-106894700D01*
X146152000Y-92645300D02*
X137494786Y-92645300D01*
X146152000Y-95084003D02*
X146152000Y-92645300D01*
X146152000Y-97624003D02*
X146152000Y-96835997D01*
X146152000Y-100164003D02*
X146152000Y-99375997D01*
X146152000Y-102704003D02*
X146152000Y-101915997D01*
X146152000Y-106894700D02*
X146152000Y-104455997D01*
D18*
X145756000Y-107783700D02*
G75*
G02*
X144994000Y-107783700I-381000J0D01*
G01*
X144994000Y-107783700D02*
G75*
G02*
X145756000Y-107783700I381000J0D01*
G01*
%TO.C,J2*%
D17*
X152297600Y-97952700D02*
X152297600Y-100264403D01*
X152297600Y-102016397D02*
X152297600Y-102804403D01*
X152297600Y-104556397D02*
X152297600Y-106868100D01*
X152297600Y-106868100D02*
X160691135Y-106868100D01*
X160691135Y-97952700D02*
X152297600Y-97952700D01*
X162738066Y-106868100D02*
X166140601Y-106868100D01*
X166140601Y-97952700D02*
X162738066Y-97952700D01*
X166140601Y-106868100D02*
X166140601Y-97952700D01*
D18*
X153455600Y-96997200D02*
G75*
G02*
X152693600Y-96997200I-381000J0D01*
G01*
X152693600Y-96997200D02*
G75*
G02*
X153455600Y-96997200I381000J0D01*
G01*
%TO.C,L1*%
D15*
X144840000Y-87158750D02*
X144840000Y-88628750D01*
X144840000Y-88628750D02*
X147300000Y-88628750D01*
X147300000Y-87158750D02*
X144840000Y-87158750D01*
%TO.C,R1*%
X156145000Y-92867621D02*
X156145000Y-92532379D01*
X156905000Y-92867621D02*
X156905000Y-92532379D01*
%TD*%
M02*
