%TF.GenerationSoftware,KiCad,Pcbnew,10.0.1*%
%TF.CreationDate,2026-05-07T11:14:09-04:00*%
%TF.ProjectId,PDM_Board_mini,50444d5f-426f-4617-9264-5f6d696e692e,rev?*%
%TF.SameCoordinates,Original*%
%TF.FileFunction,Copper,L1,Top*%
%TF.FilePolarity,Positive*%
%FSLAX46Y46*%
G04 Gerber Fmt 4.6, Leading zero omitted, Abs format (unit mm)*
G04 Created by KiCad (PCBNEW 10.0.1) date 2026-05-07 11:14:09*
%MOMM*%
%LPD*%
G01*
G04 APERTURE LIST*
G04 Aperture macros list*
%AMRoundRect*
0 Rectangle with rounded corners*
0 $1 Rounding radius*
0 $2 $3 $4 $5 $6 $7 $8 $9 X,Y pos of 4 corners*
0 Add a 4 corners polygon primitive as box body*
4,1,4,$2,$3,$4,$5,$6,$7,$8,$9,$2,$3,0*
0 Add four circle primitives for the rounded corners*
1,1,$1+$1,$2,$3*
1,1,$1+$1,$4,$5*
1,1,$1+$1,$6,$7*
1,1,$1+$1,$8,$9*
0 Add four rect primitives between the rounded corners*
20,1,$1+$1,$2,$3,$4,$5,0*
20,1,$1+$1,$4,$5,$6,$7,0*
20,1,$1+$1,$6,$7,$8,$9,0*
20,1,$1+$1,$8,$9,$2,$3,0*%
G04 Aperture macros list end*
%TA.AperFunction,SMDPad,CuDef*%
%ADD10RoundRect,0.237500X-0.237500X0.250000X-0.237500X-0.250000X0.237500X-0.250000X0.237500X0.250000X0*%
%TD*%
%TA.AperFunction,ComponentPad*%
%ADD11C,4.400000*%
%TD*%
%TA.AperFunction,SMDPad,CuDef*%
%ADD12RoundRect,0.237500X0.250000X0.237500X-0.250000X0.237500X-0.250000X-0.237500X0.250000X-0.237500X0*%
%TD*%
%TA.AperFunction,SMDPad,CuDef*%
%ADD13RoundRect,0.155000X-0.155000X0.212500X-0.155000X-0.212500X0.155000X-0.212500X0.155000X0.212500X0*%
%TD*%
%TA.AperFunction,SMDPad,CuDef*%
%ADD14RoundRect,0.237500X0.237500X-0.250000X0.237500X0.250000X-0.237500X0.250000X-0.237500X-0.250000X0*%
%TD*%
%TA.AperFunction,ComponentPad*%
%ADD15R,1.700000X1.700000*%
%TD*%
%TA.AperFunction,ComponentPad*%
%ADD16C,1.700000*%
%TD*%
%TA.AperFunction,SMDPad,CuDef*%
%ADD17RoundRect,0.237500X-0.300000X-0.237500X0.300000X-0.237500X0.300000X0.237500X-0.300000X0.237500X0*%
%TD*%
%TA.AperFunction,SMDPad,CuDef*%
%ADD18RoundRect,0.237500X0.300000X0.237500X-0.300000X0.237500X-0.300000X-0.237500X0.300000X-0.237500X0*%
%TD*%
%TA.AperFunction,SMDPad,CuDef*%
%ADD19C,0.208000*%
%TD*%
%TA.AperFunction,ComponentPad*%
%ADD20C,1.676400*%
%TD*%
%TA.AperFunction,SMDPad,CuDef*%
%ADD21RoundRect,0.237500X-0.287500X-0.237500X0.287500X-0.237500X0.287500X0.237500X-0.287500X0.237500X0*%
%TD*%
%TA.AperFunction,SMDPad,CuDef*%
%ADD22RoundRect,0.160000X0.160000X-0.197500X0.160000X0.197500X-0.160000X0.197500X-0.160000X-0.197500X0*%
%TD*%
%TA.AperFunction,ViaPad*%
%ADD23C,0.600000*%
%TD*%
%TA.AperFunction,Conductor*%
%ADD24C,0.200000*%
%TD*%
G04 APERTURE END LIST*
D10*
%TO.P,R5,1*%
%TO.N,GND*%
X143875000Y-108837500D03*
%TO.P,R5,2*%
%TO.N,Net-(JP1-A)*%
X143875000Y-110662500D03*
%TD*%
D11*
%TO.P,H2,1,1_1*%
%TO.N,GND*%
X137375000Y-110000000D03*
%TD*%
D12*
%TO.P,R3,1*%
%TO.N,Net-(L1-A)*%
X147412500Y-89643750D03*
%TO.P,R3,2*%
%TO.N,VDD*%
X145587500Y-89643750D03*
%TD*%
D13*
%TO.P,C1,1*%
%TO.N,Net-(U1-Input)*%
X154025000Y-92132500D03*
%TO.P,C1,2*%
%TO.N,IN*%
X154025000Y-93267500D03*
%TD*%
D14*
%TO.P,R4,1*%
%TO.N,Net-(JP1-B)*%
X156875000Y-110162500D03*
%TO.P,R4,2*%
%TO.N,VDD*%
X156875000Y-108337500D03*
%TD*%
D15*
%TO.P,JP1,1,A_1*%
%TO.N,Net-(JP1-A)*%
X148335000Y-110500000D03*
D16*
%TO.P,JP1,2,C_2*%
%TO.N,J_OUT*%
X150875000Y-110500000D03*
%TO.P,JP1,3,B_3*%
%TO.N,Net-(JP1-B)*%
X153415000Y-110500000D03*
%TD*%
D11*
%TO.P,H4,1,1_1*%
%TO.N,GND*%
X162625000Y-89500000D03*
%TD*%
D14*
%TO.P,R2,1*%
%TO.N,VDD*%
X148875000Y-106912500D03*
%TO.P,R2,2*%
%TO.N,IN*%
X148875000Y-105087500D03*
%TD*%
D17*
%TO.P,C2,1*%
%TO.N,GND*%
X150912500Y-92200000D03*
%TO.P,C2,2*%
%TO.N,VDD*%
X152637500Y-92200000D03*
%TD*%
D18*
%TO.P,C3,1*%
%TO.N,VDD*%
X152637500Y-90450000D03*
%TO.P,C3,2*%
%TO.N,GND*%
X150912500Y-90450000D03*
%TD*%
D19*
%TO.P,U1,A1,Clock_A1*%
%TO.N,Net-(U1-Clock)*%
X155325000Y-90150000D03*
%TO.P,U1,A2,Select_A2*%
%TO.N,J_OUT*%
X154925000Y-90150000D03*
%TO.P,U1,B1,GND_B1*%
%TO.N,GND*%
X155325000Y-89750000D03*
%TO.P,U1,B2,Input_B2*%
%TO.N,Net-(U1-Input)*%
X154925000Y-89750000D03*
%TO.P,U1,C1,Data_C1*%
%TO.N,DAT*%
X155325000Y-89350000D03*
%TO.P,U1,C2,VDD_C2*%
%TO.N,VDD*%
X154925000Y-89350000D03*
%TD*%
D20*
%TO.P,J1,1,1_1*%
%TO.N,VDD*%
X145375000Y-103580000D03*
%TO.P,J1,2,2_2*%
%TO.N,CLK*%
X145375000Y-101040000D03*
%TO.P,J1,3,3_3*%
%TO.N,DAT*%
X145375000Y-98500000D03*
%TO.P,J1,4,4_4*%
%TO.N,GND*%
X145375000Y-95960000D03*
%TD*%
%TO.P,J2,1,1_1*%
%TO.N,GND*%
X153074600Y-101140400D03*
%TO.P,J2,2,2_2*%
%TO.N,IN*%
X153074600Y-103680400D03*
%TD*%
D21*
%TO.P,L1,1,K_1*%
%TO.N,GND*%
X145625000Y-87893750D03*
%TO.P,L1,2,A_2*%
%TO.N,Net-(L1-A)*%
X147375000Y-87893750D03*
%TD*%
D11*
%TO.P,H3,1,1_1*%
%TO.N,GND*%
X162625000Y-110000000D03*
%TD*%
D22*
%TO.P,R1,1*%
%TO.N,CLK*%
X156525000Y-93297500D03*
%TO.P,R1,2*%
%TO.N,Net-(U1-Clock)*%
X156525000Y-92102500D03*
%TD*%
D11*
%TO.P,H1,1,1_1*%
%TO.N,GND*%
X137375000Y-89500000D03*
%TD*%
D23*
%TO.N,GND*%
X143875000Y-108837500D03*
X150912500Y-90450000D03*
X145625000Y-87893750D03*
X150912500Y-92200000D03*
X156525000Y-89950000D03*
%TO.N,VDD*%
X147125000Y-93250000D03*
X148875000Y-93250000D03*
%TO.N,J_OUT*%
X154125000Y-107500000D03*
%TO.N,CLK*%
X151250000Y-97625000D03*
X156525000Y-93297500D03*
%TD*%
%TO.N,GND*%
D24*
X156325000Y-89750000D02*
X156525000Y-89950000D01*
X155325000Y-89750000D02*
X156325000Y-89750000D01*
%TO.N,Net-(JP1-A)*%
X144375000Y-110662500D02*
X143875000Y-110662500D01*
X147835000Y-110500000D02*
X148085000Y-110750000D01*
X144462500Y-110750000D02*
X144375000Y-110662500D01*
X148335000Y-110500000D02*
X148085000Y-110750000D01*
X148085000Y-110750000D02*
X144462500Y-110750000D01*
%TO.N,Net-(L1-A)*%
X147375000Y-89606250D02*
X147412500Y-89643750D01*
X147375000Y-87893750D02*
X147375000Y-89606250D01*
%TO.N,VDD*%
X145375000Y-103580000D02*
X145792500Y-103580000D01*
X144375000Y-93250000D02*
X142625000Y-95000000D01*
X144375000Y-93250000D02*
X147125000Y-93250000D01*
X142625000Y-95000000D02*
X142625000Y-103250000D01*
X152625000Y-93000000D02*
X152625000Y-92212500D01*
X152637500Y-92200000D02*
X152637500Y-90450000D01*
X142625000Y-103250000D02*
X142955000Y-103580000D01*
X144375000Y-93250000D02*
X145587500Y-92037500D01*
X152375000Y-93250000D02*
X152625000Y-93000000D01*
X148875000Y-93250000D02*
X152375000Y-93250000D01*
X142955000Y-103580000D02*
X145375000Y-103580000D01*
X145587500Y-92037500D02*
X145587500Y-89643750D01*
X152625000Y-92212500D02*
X152637500Y-92200000D01*
X154925000Y-89350000D02*
X153625000Y-89350000D01*
X150550000Y-108337500D02*
X156875000Y-108337500D01*
X145792500Y-103580000D02*
X150550000Y-108337500D01*
X153625000Y-89350000D02*
X152637500Y-90337500D01*
%TO.N,Net-(U1-Input)*%
X154025000Y-90200000D02*
X154475000Y-89750000D01*
X154475000Y-89750000D02*
X154925000Y-89750000D01*
X154025000Y-92132500D02*
X154025000Y-90200000D01*
%TO.N,IN*%
X154112800Y-102642200D02*
X153074600Y-103680400D01*
X154025000Y-93267500D02*
X154112800Y-93355300D01*
X152167500Y-104587500D02*
X153074600Y-103680400D01*
X154112800Y-93355300D02*
X154112800Y-102642200D01*
X149125000Y-104587500D02*
X152167500Y-104587500D01*
%TO.N,Net-(JP1-B)*%
X157125000Y-110412500D02*
X153502500Y-110412500D01*
X153502500Y-110412500D02*
X153415000Y-110500000D01*
%TO.N,J_OUT*%
X154925000Y-106700000D02*
X154925000Y-90150000D01*
X154125000Y-107500000D02*
X154925000Y-106700000D01*
%TO.N,Net-(U1-Clock)*%
X155325000Y-90150000D02*
X156525000Y-91350000D01*
X156525000Y-91350000D02*
X156525000Y-92102500D01*
%TO.N,DAT*%
X155125000Y-87500000D02*
X155625000Y-88000000D01*
X147875000Y-96250000D02*
X147875000Y-91500000D01*
X145625000Y-98500000D02*
X147875000Y-96250000D01*
X147875000Y-91500000D02*
X151875000Y-87500000D01*
X155625000Y-89050000D02*
X155325000Y-89350000D01*
X151875000Y-87500000D02*
X155125000Y-87500000D01*
X145375000Y-98500000D02*
X145625000Y-98500000D01*
X155625000Y-88000000D02*
X155625000Y-89050000D01*
%TO.N,CLK*%
X147835000Y-101040000D02*
X151250000Y-97625000D01*
X145375000Y-101040000D02*
X147835000Y-101040000D01*
%TD*%
M02*
